<?xml version="1.0" encoding="utf-8"?>
<!-- Generator: Adobe Illustrator 16.0.0, SVG Export Plug-In . SVG Version: 6.00 Build 0)  -->
<!DOCTYPE svg PUBLIC "-//W3C//DTD SVG 1.1//EN" "http://www.w3.org/Graphics/SVG/1.1/DTD/svg11.dtd">
<svg version="1.1" id="Layer_1" xmlns="http://www.w3.org/2000/svg" xmlns:xlink="http://www.w3.org/1999/xlink" x="0px" y="0px"
	 width="640px" height="105px" viewBox="0 0 640 105" enable-background="new 0 0 640 105" xml:space="preserve">
<rect stroke="#FFFFFF" stroke-miterlimit="10" width="640" height="105"/>
<g id="Layer_1_1_">
</g>
<g id="logo">
	<polygon fill="#FFFFFF" points="39.446,12.83 39.446,34.027 14.124,34.027 14.124,12.83 7.662,12.83 7.662,62.167 14.124,62.167 
		14.124,39.964 39.446,39.964 39.446,62.167 45.898,62.167 45.898,12.83 	"/>
	<path fill="#FFFFFF" d="M80.786,57.002c-9.308,0-18.864-7.227-18.864-19.629c0-12.652,9.816-19.38,18.864-19.38
		c9.558,0,19.371,6.474,19.371,19.38C100.157,50.029,90.079,57.002,80.786,57.002 M80.786,11.8c-16.8,0-25.828,13.18-25.828,25.573
		c0,12.656,9.541,25.835,25.828,25.835c17.045,0,26.084-13.433,26.084-25.835C106.871,24.98,97.832,11.8,80.786,11.8"/>
	<path fill="#FFFFFF" d="M154.926,12.83v28.937c0,10.33-5.168,20.918-19.378,20.918c-14.207,0-19.368-10.588-19.368-20.918V12.83
		h6.45v28.937c0,9.306,4.917,14.978,13.186,14.978c3.613,0,12.645-1.286,12.645-14.978V12.83H154.926"/>
	<polygon fill="#FFFFFF" points="234.232,12.83 234.232,19.036 215.115,19.036 215.115,34.268 230.109,34.268 230.109,40.217 
		215.115,40.217 215.115,55.973 234.232,55.973 234.232,62.167 208.4,62.167 208.4,12.83 	"/>
	<polygon fill="#FFFFFF" points="353.834,12.83 353.834,19.036 332.913,19.036 332.913,34.268 349.457,34.268 349.457,40.217 
		332.913,40.217 332.913,62.167 326.462,62.167 326.462,12.83 	"/>
	<path fill="#FFFFFF" d="M437.541,36.855h-6.461h-0.506V18.52h0.506h6.986c6.978,0,10.85,3.622,10.85,9.813
		C448.916,33.761,444.789,36.855,437.541,36.855 M446.07,41.248l0.256-0.26c5.682-2.314,9.041-7.227,9.041-12.655
		c0-10.337-6.451-15.504-18.851-15.504h-12.405v49.334h6.463V42.542h9.546c0,0,9.054,19.108,9.314,19.621h8.008
		C456.672,61.148,446.07,41.248,446.07,41.248"/>
	<path fill="#FFFFFF" d="M477.85,44.875l8.535-24.543l0.506-1.036l8.522,25.579H477.85z M490.761,12.83h-7.492
		c-0.262,0.524-18.599,48.318-18.86,49.337h7.229c0-0.512,4.407-11.36,4.407-11.36h21.441c0,0,4.12,10.848,4.389,11.36h7.232
		C508.596,61.148,491.023,13.354,490.761,12.83"/>
	<polygon fill="#FFFFFF" points="413.516,12.83 413.516,19.036 392.346,19.036 392.346,34.268 408.877,34.268 408.877,40.217 
		392.346,40.217 392.346,62.167 385.883,62.167 385.883,12.83 	"/>
	<path fill="#FFFFFF" d="M289.787,57.002c-9.303,0-19.117-7.227-19.117-19.629c0-12.652,9.814-19.38,19.117-19.38
		c9.559,0,19.118,6.728,19.118,19.38C308.905,50.294,299.084,57.002,289.787,57.002 M289.787,11.8
		c-16.792,0-26.098,13.18-26.098,25.573c0,12.656,9.81,25.835,26.098,25.835c17.046,0,26.077-13.433,26.077-25.835
		C315.864,24.98,306.833,11.8,289.787,11.8"/>
	<polygon fill="#FFFFFF" points="583.003,12.83 583.003,19.036 563.88,19.036 563.88,34.268 578.876,34.268 578.876,40.217 
		563.88,40.217 563.88,56.227 583.003,56.227 583.003,62.167 557.434,62.167 557.434,12.83 	"/>
	<path fill="#FFFFFF" d="M607.107,37.121l-6.445-0.266h-0.53V18.78h0.53h6.97c6.962,0,10.839,3.362,10.839,9.554
		C618.471,31.695,616.924,37.121,607.107,37.121 M615.637,41.248h0.263c5.682-2.574,9.038-7.487,9.038-12.915
		c0-10.337-6.467-15.504-18.858-15.504h-12.4v49.334h6.454V42.792h9.567c0,0,9.038,18.858,9.291,19.371H627
		C626.488,61.148,615.637,41.248,615.637,41.248"/>
	<path fill="#FFFFFF" d="M191.355,49.002c0-5.417-5.688-7.236-11.632-9.3c-6.71-2.585-13.943-4.911-13.943-13.174
		c0-13.958,13.689-14.726,16.531-14.726c7.74,0,12.924,2.581,14.204,3.099c-0.25,0.507-1.542,5.429-1.542,6.195
		c-1.557-1.031-6.204-3.615-12.408-3.615c-6.973,0-10.07,4.133-10.07,8.01c0,5.176,5.162,6.725,10.847,8.535
		c6.975,2.313,14.734,4.645,14.734,14.457c0,8.516-6.986,14.466-16.797,14.466c-8.266,0-15.499-4.141-16.797-4.917
		c0.264-0.25,1.806-5.161,2.074-5.938c1.546,1.289,8,5.164,15.495,5.164C188.769,57.259,191.355,52.873,191.355,49.002"/>
	<path fill="#FFFFFF" d="M540.372,49.002c0-5.417-5.688-7.236-11.628-9.3c-6.722-2.585-13.945-4.911-13.945-13.174
		c0-13.958,13.682-14.726,16.526-14.726c7.745,0,12.921,2.581,14.211,3.099c-0.25,0.507-1.549,5.429-1.549,6.195
		c-1.547-1.031-6.205-3.615-12.398-3.615c-6.969,0-10.078,4.133-10.078,8.01c0,5.176,5.17,6.725,10.59,8.535
		c7.236,2.313,14.99,4.645,14.99,14.457c0,8.516-6.968,14.466-16.789,14.466c-8.278,0-15.503-4.141-16.807-4.917
		c0.268-0.25,1.815-5.161,2.072-5.938c1.549,1.289,8.007,5.164,15.502,5.164C537.782,57.259,540.372,52.873,540.372,49.002"/>
	<path fill="#FFFFFF" d="M242.886,98.54c-3.166,0-5.446-0.742-7.464-2.783l2.134-2.103c1.542,1.529,3.228,2.018,5.376,2.018
		c2.768,0,4.365-1.193,4.365-3.24c0-0.916-0.271-1.684-0.829-2.188c-0.531-0.501-1.061-0.713-2.311-0.889l-2.494-0.354
		c-1.707-0.234-3.072-0.839-3.99-1.688c-1.036-0.988-1.539-2.312-1.539-4.026c0-3.677,2.667-6.181,7.046-6.181
		c2.79,0,4.737,0.701,6.545,2.388l-2.043,2.012c-1.301-1.233-2.813-1.625-4.59-1.625c-2.49,0-3.853,1.417-3.853,3.287
		c0,0.772,0.246,1.458,0.795,1.951c0.536,0.471,1.399,0.831,2.372,0.976l2.402,0.363c1.951,0.285,3.048,0.766,3.932,1.562
		c1.158,1.017,1.719,2.518,1.719,4.326C250.461,96.227,247.297,98.54,242.886,98.54"/>
	<rect x="254.759" y="77.279" fill="#FFFFFF" width="3.19" height="21.078"/>
	<polygon fill="#FFFFFF" points="276.4,98.357 266.652,83.525 266.652,98.357 263.458,98.357 263.458,77.279 266.384,77.279 
		276.126,92.081 276.126,77.279 279.326,77.279 279.326,98.357 	"/>
	<path fill="#FFFFFF" d="M291.635,98.54c-2.18,0-4.078-0.796-5.535-2.252c-2.073-2.079-2.049-4.417-2.049-8.465
		c0-4.058-0.024-6.406,2.049-8.479c1.457-1.438,3.355-2.234,5.535-2.234c3.89,0,6.788,2.271,7.522,6.471h-3.261
		c-0.488-2.129-1.928-3.614-4.262-3.614c-1.241,0-2.365,0.468-3.101,1.277c-1.035,1.122-1.283,2.337-1.283,6.58
		c0,4.223,0.248,5.444,1.283,6.565c0.735,0.795,1.859,1.283,3.101,1.283c2.334,0,3.797-1.49,4.298-3.626h3.225
		C298.443,96.251,295.457,98.54,291.635,98.54"/>
	<polygon fill="#FFFFFF" points="303.416,98.357 303.416,77.279 316.889,77.279 316.889,80.143 306.616,80.143 306.616,86.3 
		315.383,86.3 315.383,89.15 306.616,89.15 306.616,95.492 316.889,95.492 316.889,98.357 	"/>
	<polygon fill="#FFFFFF" points="333.102,98.357 333.102,80.562 328.996,84.177 328.996,80.826 333.102,77.279 336.125,77.279 
		336.125,98.357 	"/>
	<path fill="#FFFFFF" d="M349.268,79.791c-1.847,0-3.107,1.398-3.107,3.229c0,1.867,1.262,3.193,3.107,3.193
		c1.836,0,3.146-1.326,3.146-3.193C352.414,81.189,351.104,79.791,349.268,79.791 M349.268,88.818c-1.959,0-3.468,1.574-3.468,3.529
		s1.509,3.485,3.468,3.485c1.965,0,3.471-1.53,3.471-3.485C352.736,90.393,351.23,88.818,349.268,88.818 M349.268,98.54
		c-3.603,0-6.484-2.312-6.484-6.134c0-2.521,1.426-4.053,2.896-4.941c-1.355-0.83-2.546-2.312-2.546-4.523
		c0-3.529,2.698-5.832,6.136-5.832c3.437,0,6.164,2.303,6.164,5.832c0,2.211-1.194,3.693-2.556,4.523
		c1.487,0.889,2.908,2.422,2.908,4.941C355.785,96.227,352.877,98.54,349.268,98.54"/>
	<polygon fill="#FFFFFF" points="369.666,95.184 369.666,98.357 366.734,98.357 366.734,95.184 358.199,95.184 358.199,92.372 
		365.637,77.277 368.896,77.277 361.491,92.372 366.734,92.372 366.734,87.464 369.666,87.464 369.666,92.372 371.91,92.372 
		371.91,95.184 	"/>
	<path fill="#FFFFFF" d="M380.822,79.791c-1.896,0-3.194,1.415-3.194,3.672c0,2.064,1.177,3.641,3.194,3.641
		c1.896,0,3.213-1.359,3.213-3.641C384.035,81.206,382.719,79.791,380.822,79.791 M385.496,88.592l-4.793,9.766h-3.223l4.529-9.053
		c-0.568,0.227-1.248,0.322-1.9,0.322c-3.043,0-5.506-2.402-5.506-6.1c0-3.883,2.576-6.42,6.219-6.42
		c3.64,0,6.236,2.388,6.236,6.297C387.059,85.121,386.409,86.745,385.496,88.592"/>
</g>
</svg>
