<svg xmlns="http://www.w3.org/2000/svg" xmlns:xlink="http://www.w3.org/1999/xlink" version="1.1" id="Layer_1" x="0px" y="0px" width="37.917px" height="23.333px" viewBox="316.667 0 37.917 23.333" enable-background="new 316.667 0 37.917 23.333" xml:space="preserve"><g><g><linearGradient id="SVGID_1_" gradientUnits="userSpaceOnUse" x1="1081.8584" y1="939.833" x2="1041.8574" y2="939.833" gradientTransform="matrix(2.618968e-11 -0.5833 -0.5833 -2.618968e-11 883.8607 631.0842)"><stop offset="0" stop-color="#000000"/><stop offset="1" stop-color="#00CDD4"/></linearGradient><path fill="url(#SVGID_1_)" d="M349.917 0c2.567 0 4.667 2.1 4.667 4.667v14c0 2.567-2.1 4.667-4.667 4.667h-28.583c-2.567 0-4.667-2.1-4.667-4.667v-14c0-2.566 2.1-4.667 4.667-4.667H349.917z"/></g><g><path fill="#FFFFFF" d="M322.383 4.725c0 0.058 0 2.333 0 2.392h-0.292c0-0.058 0-1.05 0-1.05h-1.225v1.05h-0.292c0-0.058 0-2.333 0-2.392h0.292c0 0.058 0 1.05 0 1.05h1.225c0 0 0-0.992 0-1.05H322.383"/><path fill="#FFFFFF" d="M324.075 6.825c-0.467 0-0.934-0.35-0.934-0.934 0-0.642 0.467-0.933 0.934-0.933 0.466 0 0.933 0.292 0.933 0.933C325.008 6.475 324.542 6.825 324.075 6.825M324.075 4.667c-0.817 0-1.225 0.642-1.225 1.225 0 0.642 0.467 1.225 1.225 1.225 0.816 0 1.283-0.642 1.283-1.225C325.358 5.309 324.95 4.667 324.075 4.667"/><path fill="#FFFFFF" d="M327.692 4.725c0 0.058 0 1.4 0 1.4 0 0.525-0.233 0.992-0.934 0.992 -0.7 0-0.933-0.525-0.933-0.992 0 0 0-1.342 0-1.4h0.292c0 0.058 0 1.4 0 1.4 0 0.467 0.233 0.7 0.642 0.7 0.175 0 0.642-0.059 0.642-0.7 0 0 0-1.342 0-1.4C327.4 4.725 327.633 4.725 327.692 4.725"/><path fill="#FFFFFF" d="M331.542 4.725c0 0.058 0 0.292 0 0.292 -0.058 0-0.933 0-0.933 0v0.758h0.7v0.292c-0.059 0-0.7 0-0.7 0v0.759c0 0 0.875 0 0.933 0 0 0.058 0 0.233 0 0.292 -0.058 0-1.225 0-1.225 0 0-0.058 0-2.333 0-2.392C330.317 4.725 331.483 4.725 331.542 4.725"/><path fill="#FFFFFF" d="M337.317 4.725c0 0.058 0 0.292 0 0.292h-0.992v0.758c0 0 0.758 0 0.816 0v0.292h-0.816v1.05c-0.059 0-0.292 0-0.292 0 0-0.058 0-2.333 0-2.392H337.317"/><path fill="#FFFFFF" d="M341.4 5.892h-0.35V4.958h0.35c0.35 0 0.525 0.175 0.525 0.466C341.925 5.717 341.75 5.892 341.4 5.892M341.809 6.066L341.809 6.066c0.292-0.116 0.466-0.35 0.466-0.642 0-0.525-0.292-0.758-0.933-0.758h-0.583c0 0.059 0 2.333 0 2.392 0.059 0 0.292 0 0.292 0 0-0.059 0-0.934 0-0.934h0.467l0.467 0.934c0 0 0.35 0 0.408 0C342.275 7.059 341.809 6.066 341.809 6.066"/><path fill="#FFFFFF" d="M343.325 6.242l0.408-1.167V5.017l0.408 1.225H343.325M343.967 4.725h-0.35c0 0-0.875 2.333-0.933 2.392 0.058 0 0.35 0 0.35 0l0.233-0.525h1.05c0 0 0.175 0.525 0.233 0.525 0 0 0.292 0 0.35 0C344.842 7.059 343.967 4.725 343.967 4.725"/><path fill="#FFFFFF" d="M340.233 4.725c0 0.058 0 0.292 0 0.292 -0.059 0-1.05 0-1.05 0v0.758c0 0 0.758 0 0.816 0v0.292h-0.816v1.05h-0.292c0-0.058 0-2.333 0-2.392C338.892 4.725 340.175 4.725 340.233 4.725"/><path fill="#FFFFFF" d="M334.225 6.825c-0.467 0-0.934-0.35-0.934-0.934 0-0.642 0.467-0.933 0.934-0.933s0.933 0.35 0.933 0.933C335.158 6.533 334.692 6.825 334.225 6.825M334.225 4.667c-0.817 0-1.283 0.642-1.283 1.225 0 0.642 0.466 1.225 1.283 1.225 0.816 0 1.283-0.642 1.283-1.225C335.508 5.309 335.042 4.667 334.225 4.667"/><path fill="#FFFFFF" d="M348.4 4.725c0 0.058 0 0.292 0 0.292h-0.933v0.758h0.7v0.292h-0.7v0.759c0 0 0.875 0 0.933 0 0 0 0 0.233 0 0.292h-1.225c0-0.058 0-2.333 0-2.392C347.233 4.725 348.4 4.725 348.4 4.725"/><path fill="#FFFFFF" d="M349.567 5.892h-0.292l0 0V5.017h0.35c0.35 0 0.525 0.175 0.525 0.467C350.15 5.6 350.092 5.892 349.567 5.892M349.975 6.066L349.975 6.066c0.292-0.116 0.467-0.35 0.467-0.642 0-0.525-0.292-0.758-0.934-0.758h-0.583c0 0.059 0 2.333 0 2.392 0.059 0 0.292 0 0.292 0 0-0.059 0-0.934 0-0.934h0.467l0.466 0.934c0 0 0.35 0 0.409 0C350.5 7.059 349.975 6.066 349.975 6.066"/><path fill="#FFFFFF" d="M329.442 6.475c0-0.292-0.292-0.35-0.583-0.467 -0.35-0.117-0.7-0.233-0.7-0.642 0.059-0.7 0.7-0.7 0.875-0.7 0.35 0 0.642 0.117 0.7 0.175l-0.059 0.292c-0.058-0.058-0.292-0.175-0.583-0.175 -0.35 0-0.467 0.175-0.467 0.408s0.233 0.35 0.525 0.408c0.35 0.117 0.7 0.233 0.7 0.7 0 0.408-0.35 0.7-0.817 0.7 -0.408 0-0.758-0.175-0.816-0.233 0 0 0.058-0.233 0.117-0.292 0.058 0.059 0.408 0.233 0.758 0.233C329.325 6.825 329.442 6.65 329.442 6.475"/><path fill="#FFFFFF" d="M346.358 6.475c0-0.292-0.292-0.35-0.583-0.467 -0.35-0.117-0.7-0.233-0.7-0.642 0.058-0.7 0.7-0.7 0.816-0.7 0.35 0 0.642 0.117 0.7 0.175l-0.059 0.292c-0.058-0.058-0.292-0.175-0.583-0.175 -0.35 0-0.467 0.175-0.467 0.408s0.233 0.35 0.525 0.408c0.35 0.117 0.7 0.233 0.7 0.7 0 0.408-0.35 0.7-0.817 0.7 -0.408 0-0.758-0.175-0.816-0.233 0 0 0.117-0.233 0.117-0.292 0.058 0.059 0.408 0.233 0.758 0.233C346.242 6.825 346.358 6.65 346.358 6.475"/></g><g><g><path fill="#F7971D" d="M336.15 18.667c0.875 0.817 2.042 1.284 3.325 1.284 2.742 0 4.958-2.217 4.958-4.958s-2.217-4.958-4.958-4.958c-1.283 0-2.45 0.467-3.325 1.283 -0.992 0.934-1.633 2.217-1.633 3.675S335.158 17.733 336.15 18.667"/><path fill="#CA2027" d="M337.783 14.467c0-0.175-0.058-0.35-0.058-0.525h-3.033c0.058-0.175 0.058-0.35 0.117-0.525h2.741c-0.058-0.175-0.116-0.35-0.233-0.525h-2.333c0.058-0.175 0.175-0.35 0.292-0.525h1.75c-0.117-0.175-0.233-0.35-0.35-0.525h-0.991c0.175-0.175 0.292-0.35 0.525-0.525 -0.875-0.816-2.042-1.283-3.325-1.283 -2.742 0-4.958 2.217-4.958 4.958s2.217 4.958 4.958 4.958c1.283 0 2.45-0.467 3.325-1.284 0.175-0.175 0.35-0.35 0.525-0.525h-0.992c-0.117-0.175-0.233-0.35-0.35-0.525h1.75c0.117-0.175 0.175-0.35 0.292-0.525H335.1c-0.059-0.175-0.175-0.35-0.233-0.525h2.742c0.058-0.175 0.117-0.35 0.117-0.525 0.058-0.175 0.058-0.35 0.058-0.525s0-0.35 0-0.525C337.783 14.816 337.783 14.642 337.783 14.467"/><path fill="#FFFFFF" d="M343.733 16.158c0-0.117 0.058-0.175 0.175-0.175s0.175 0.058 0.175 0.175 -0.059 0.175-0.175 0.175S343.733 16.217 343.733 16.158M343.908 16.275c0.059 0 0.117-0.058 0.117-0.117 0-0.058-0.058-0.117-0.117-0.117 -0.058 0-0.117 0.059-0.117 0.117C343.792 16.217 343.85 16.275 343.908 16.275M343.908 16.217L343.908 16.217 343.85 16.1h0.058c0 0 0 0 0.059 0 0 0 0 0 0 0.058v0.059 0.058h-0.059V16.217L343.908 16.217 343.908 16.217zM343.908 16.158L343.908 16.158 343.908 16.158C343.908 16.158 343.908 16.1 343.908 16.158 343.908 16.1 343.908 16.1 343.908 16.158 343.908 16.1 343.908 16.1 343.908 16.158L343.908 16.158 343.908 16.158z"/><path fill="#FFFFFF" d="M339.417 13.883l-0.117 0.525c-0.175-0.117-0.35-0.117-0.466-0.117 -0.409 0-0.7 0.409-0.7 0.934 0 0.408 0.175 0.583 0.525 0.583 0.117 0 0.292-0.059 0.467-0.117l-0.117 0.583c-0.175 0.059-0.292 0.059-0.467 0.059 -0.583 0-0.933-0.409-0.933-1.108 0-0.875 0.525-1.517 1.225-1.517 0.117 0 0.175 0 0.233 0l0.233 0.058C339.358 13.825 339.358 13.825 339.417 13.883"/><path fill="#FFFFFF" d="M337.725 14.233C337.667 14.233 337.667 14.233 337.725 14.233c-0.233 0-0.35 0.058-0.467 0.35l0.059-0.292h-0.467l-0.35 2.042h0.525c0.175-1.225 0.233-1.458 0.525-1.458 0 0 0 0 0.059 0C337.55 14.583 337.608 14.408 337.725 14.233L337.725 14.233"/><path fill="#FFFFFF" d="M334.633 16.275c-0.175 0.059-0.292 0.059-0.408 0.059 -0.292 0-0.408-0.175-0.408-0.467 0-0.058 0-0.117 0-0.175l0.058-0.175v-0.175l0.233-1.4h0.525l-0.058 0.292h0.292l-0.058 0.525h-0.292l-0.117 0.875c0 0.058 0 0.058 0 0.058 0 0.117 0.059 0.175 0.175 0.175 0.058 0 0.117 0 0.117 0L334.633 16.275"/><path fill="#FFFFFF" d="M332.533 14.875c0 0.233 0.117 0.408 0.409 0.583 0.233 0.117 0.233 0.117 0.233 0.233 0 0.117-0.116 0.175-0.292 0.175 -0.175 0-0.292 0-0.467-0.058l-0.058 0.466 0 0h0.117c0.058 0 0.058 0 0.117 0 0.117 0 0.233 0 0.292 0 0.583 0 0.817-0.233 0.817-0.7 0-0.292-0.117-0.467-0.35-0.583s-0.233-0.117-0.233-0.233 0.117-0.175 0.233-0.175 0.233 0 0.408 0.058l0.059-0.467c-0.117 0-0.35-0.058-0.467-0.058C332.767 14.233 332.533 14.525 332.533 14.875"/><path fill="#FFFFFF" d="M343.5 16.275h-0.525V16.1c-0.175 0.175-0.292 0.233-0.467 0.233 -0.408 0-0.642-0.35-0.642-0.875 0-0.7 0.408-1.225 0.875-1.225 0.233 0 0.35 0.058 0.525 0.292l0.117-0.7h0.525L343.5 16.275M342.742 15.809c0.233 0 0.408-0.292 0.408-0.7 0-0.233-0.117-0.408-0.292-0.408 -0.233 0-0.408 0.292-0.408 0.7C342.45 15.691 342.567 15.809 342.742 15.809"/><path fill="#FFFFFF" d="M336.267 16.275c-0.175 0.059-0.35 0.059-0.583 0.059 -0.583 0-0.934-0.292-0.934-0.934 0-0.7 0.408-1.225 0.934-1.225 0.466 0 0.7 0.292 0.7 0.759 0 0.175 0 0.292-0.058 0.525h-0.992c0 0.058 0 0.058 0 0.058 0 0.233 0.175 0.35 0.466 0.35 0.175 0 0.35-0.058 0.583-0.117L336.267 16.275M335.975 15.05c0-0.058 0-0.058 0-0.116 0-0.175-0.117-0.292-0.233-0.292 -0.175 0-0.292 0.117-0.35 0.35L335.975 15.05z"/><polygon fill="#FFFFFF" points="330.55,16.275 329.967,16.275 330.317,14.35 329.617,16.275 329.267,16.275 329.208,14.35      328.858,16.275 328.392,16.275 328.8,13.767 329.559,13.767 329.617,15.342 330.142,13.767 330.958,13.767    "/><path fill="#FFFFFF" d="M331.833 15.4c-0.059 0-0.059 0-0.117 0 -0.292 0-0.467 0.117-0.467 0.292 0 0.117 0.059 0.233 0.175 0.233C331.658 15.925 331.833 15.691 331.833 15.4M332.242 16.275h-0.467v-0.233c-0.117 0.175-0.292 0.233-0.583 0.233 -0.292 0-0.467-0.233-0.467-0.583 0-0.525 0.35-0.758 0.933-0.758 0.059 0 0.117 0 0.233 0 0-0.059 0-0.117 0-0.117 0-0.116-0.117-0.175-0.35-0.175 -0.175 0-0.35 0-0.466 0.059h-0.059 -0.058l0.058-0.467c0.292-0.059 0.467-0.117 0.642-0.117 0.467 0 0.7 0.233 0.7 0.583 0 0.116 0 0.175-0.059 0.408l-0.116 0.7v0.116 0.117L332.242 16.275 332.242 16.275z"/><path fill="#FFFFFF" d="M340.292 15.4c-0.058 0-0.058 0-0.117 0 -0.292 0-0.466 0.117-0.466 0.292 0 0.117 0.058 0.233 0.175 0.233C340.117 15.925 340.292 15.691 340.292 15.4M340.7 16.275h-0.467v-0.233c-0.117 0.175-0.292 0.233-0.583 0.233 -0.292 0-0.466-0.233-0.466-0.583 0-0.525 0.35-0.758 0.933-0.758 0.058 0 0.117 0 0.233 0 0-0.059 0-0.117 0-0.117 0-0.116-0.117-0.175-0.35-0.175 -0.175 0-0.35 0-0.467 0.059h-0.058 -0.059l0.059-0.467c0.292-0.059 0.467-0.117 0.642-0.117 0.467 0 0.7 0.233 0.7 0.583 0 0.116 0 0.175-0.059 0.408l-0.117 0.7v0.116 0.117L340.7 16.275 340.7 16.275z"/><path fill="#FFFFFF" d="M342.1 14.233L342.1 14.233c-0.233 0-0.35 0.058-0.467 0.35l0.059-0.292h-0.525l-0.35 2.042h0.525c0.175-1.225 0.233-1.458 0.525-1.458 0 0 0 0 0.058 0C341.983 14.583 342.042 14.408 342.1 14.233L342.1 14.233"/></g></g></g></svg>