<svg xmlns="http://www.w3.org/2000/svg" xmlns:xlink="http://www.w3.org/1999/xlink" version="1.1" id="Layer_1" x="0px" y="0px" width="37.917px" height="23.333px" viewBox="316.667 0 37.917 23.333" enable-background="new 316.667 0 37.917 23.333" xml:space="preserve"><g><path fill="#76004E" d="M354.583 19.191c0 2.275-1.633 4.142-3.792 4.142h-29.925c-2.158 0-4.2-1.867-4.2-4.142V4.142c0-2.275 2.042-4.142 4.2-4.142h29.925c2.159 0 3.792 1.867 3.792 4.142V19.191z"/><rect x="320.75" y="11.083" fill="#FF00A6" width="29.75" height="1.167"/><g><path fill="#FFFFFF" d="M322.675 4.842c0 0.058 0 2.333 0 2.392h-0.292c0-0.059 0-1.05 0-1.05h-1.225v1.05h-0.292c0-0.059 0-2.333 0-2.392h0.292c0 0.058 0 1.05 0 1.05h1.225c0 0 0-0.992 0-1.05H322.675"/><path fill="#FFFFFF" d="M324.367 7c-0.467 0-0.933-0.35-0.933-0.934 0-0.583 0.466-0.933 0.933-0.933s0.933 0.292 0.933 0.933C325.3 6.65 324.833 7 324.367 7M324.367 4.783c-0.817 0-1.225 0.642-1.225 1.225s0.467 1.225 1.225 1.225c0.817 0 1.283-0.642 1.283-1.225S325.184 4.783 324.367 4.783"/><path fill="#FFFFFF" d="M327.925 4.842c0 0.058 0 1.4 0 1.4 0 0.525-0.233 0.992-0.933 0.992s-0.933-0.525-0.933-0.992c0 0 0-1.342 0-1.4h0.292c0 0.058 0 1.4 0 1.4 0 0.467 0.233 0.7 0.642 0.7 0.175 0 0.583-0.058 0.583-0.7 0 0 0-1.342 0-1.4C327.633 4.842 327.925 4.842 327.925 4.842"/><path fill="#FFFFFF" d="M331.775 4.842c0 0.058 0 0.233 0 0.292 -0.058 0-0.933 0-0.933 0v0.758h0.7c0 0 0 0.233 0 0.292 -0.058 0-0.7 0-0.7 0v0.758c0 0 0.875 0 0.933 0 0 0.059 0 0.233 0 0.292 -0.058 0-1.225 0-1.225 0 0-0.059 0-2.333 0-2.392C330.55 4.842 331.717 4.842 331.775 4.842"/><path fill="#FFFFFF" d="M337.55 4.842c0 0.058 0 0.233 0 0.292h-0.991v0.758c0 0 0.758 0 0.816 0 0 0 0 0.233 0 0.292h-0.816v1.05c-0.059 0-0.292 0-0.292 0 0-0.059 0-2.333 0-2.392H337.55"/><path fill="#FFFFFF" d="M341.575 6.008h-0.35V5.133h0.35c0.35 0 0.525 0.175 0.525 0.467C342.158 5.833 341.925 6.008 341.575 6.008M341.983 6.242L341.983 6.242c0.292-0.117 0.467-0.35 0.467-0.642 0-0.525-0.292-0.758-0.934-0.758h-0.583c0 0.058 0 2.333 0 2.392 0.058 0 0.292 0 0.292 0 0-0.059 0-0.934 0-0.934h0.467c0 0 0.408 0.934 0.466 0.934 0 0 0.35 0 0.409 0C342.508 7.175 341.983 6.242 341.983 6.242"/><path fill="#FFFFFF" d="M343.559 6.417l0.408-1.167V5.191l0.408 1.225H343.559M344.142 4.842h-0.35c0 0-0.875 2.333-0.933 2.392 0.058 0 0.35 0 0.35 0l0.233-0.525h1.05c0 0 0.175 0.525 0.233 0.525 0 0 0.292 0 0.35 0C345.017 7.175 344.2 4.9 344.142 4.842"/><path fill="#FFFFFF" d="M340.408 4.842c0 0.058 0 0.233 0 0.292 -0.058 0-1.05 0-1.05 0v0.758c0 0 0.758 0 0.816 0 0 0 0 0.233 0 0.292h-0.816v1.05h-0.292c0-0.059 0-2.333 0-2.392C339.125 4.842 340.408 4.842 340.408 4.842"/><path fill="#FFFFFF" d="M334.458 7c-0.467 0-0.934-0.35-0.934-0.934 0-0.583 0.467-0.933 0.934-0.933 0.466 0 0.933 0.35 0.933 0.933C335.392 6.65 334.925 7 334.458 7M334.458 4.783c-0.817 0-1.284 0.642-1.284 1.225s0.467 1.225 1.284 1.225c0.816 0 1.283-0.642 1.283-1.225S335.275 4.783 334.458 4.783"/><path fill="#FFFFFF" d="M348.633 4.842c0 0.058 0 0.292 0 0.292H347.7v0.758h0.7c0 0 0 0.233 0 0.292h-0.7v0.758c0 0 0.875 0 0.933 0 0 0 0 0.233 0 0.292h-1.225c0-0.059 0-2.333 0-2.392C347.408 4.842 348.575 4.842 348.633 4.842"/><path fill="#FFFFFF" d="M349.8 6.008h-0.292l0 0V5.133h0.35c0.35 0 0.525 0.175 0.525 0.467C350.325 5.775 350.267 6.008 349.8 6.008M350.208 6.242L350.208 6.242c0.292-0.117 0.466-0.35 0.466-0.642 0-0.525-0.292-0.758-0.933-0.758h-0.583c0 0.058 0 2.333 0 2.392 0.059 0 0.292 0 0.292 0 0-0.059 0-0.934 0-0.934h0.466c0 0 0.409 0.934 0.467 0.934 0 0 0.35 0 0.408 0C350.733 7.175 350.208 6.242 350.208 6.242"/><path fill="#FFFFFF" d="M329.675 6.592c0-0.233-0.292-0.35-0.583-0.467 -0.35-0.117-0.7-0.233-0.7-0.642 0-0.7 0.642-0.7 0.817-0.7 0.35 0 0.642 0.117 0.7 0.175 0 0-0.058 0.233-0.058 0.292 -0.059-0.059-0.292-0.175-0.583-0.175 -0.35 0-0.467 0.175-0.467 0.408s0.233 0.35 0.525 0.408c0.35 0.117 0.7 0.233 0.7 0.7 0 0.408-0.35 0.7-0.816 0.7 -0.409 0-0.758-0.175-0.817-0.233 0 0 0.059-0.233 0.117-0.292C328.567 6.825 328.917 7 329.267 7 329.559 7 329.675 6.767 329.675 6.592"/><path fill="#FFFFFF" d="M346.533 6.592c0-0.233-0.292-0.35-0.583-0.467 -0.35-0.117-0.7-0.233-0.7-0.642 0-0.7 0.642-0.7 0.817-0.7 0.35 0 0.642 0.117 0.7 0.175 0 0-0.058 0.233-0.058 0.292 -0.059-0.059-0.292-0.175-0.583-0.175 -0.35 0-0.467 0.175-0.467 0.408s0.233 0.35 0.525 0.408c0.35 0.117 0.7 0.233 0.7 0.7 0 0.408-0.35 0.7-0.816 0.7 -0.409 0-0.758-0.175-0.817-0.233 0 0 0.117-0.233 0.117-0.292C345.425 6.825 345.775 7 346.125 7 346.417 7 346.533 6.767 346.533 6.592"/></g><g><path fill="#FFFFFF" d="M322.617 15.342h0.408l1.867 4.142h-0.583l-0.525-1.225h-1.75l-0.525 1.225h-0.583L322.617 15.342zM323.492 17.733l-0.642-1.517 -0.642 1.517H323.492z"/><path fill="#FFFFFF" d="M328.625 18.55v0.642c-0.408 0.233-0.933 0.35-1.517 0.35 -0.467 0-0.875-0.117-1.167-0.292 -0.35-0.175-0.583-0.467-0.758-0.758 -0.175-0.35-0.292-0.7-0.292-1.05 0-0.583 0.233-1.108 0.642-1.517 0.409-0.408 0.934-0.642 1.575-0.642 0.408 0 0.933 0.117 1.458 0.35v0.642c-0.467-0.292-0.934-0.408-1.4-0.408 -0.466 0-0.875 0.175-1.167 0.467 -0.292 0.292-0.467 0.7-0.467 1.108 0 0.467 0.175 0.817 0.467 1.108 0.292 0.292 0.7 0.409 1.167 0.409C327.692 19.017 328.158 18.842 328.625 18.55z"/><path fill="#FFFFFF" d="M332.942 18.55v0.642c-0.409 0.233-0.934 0.35-1.517 0.35 -0.466 0-0.875-0.117-1.167-0.292s-0.583-0.467-0.758-0.758c-0.175-0.35-0.292-0.7-0.292-1.05 0-0.583 0.233-1.108 0.642-1.517 0.408-0.408 0.933-0.642 1.575-0.642 0.409 0 0.934 0.117 1.458 0.35v0.642c-0.467-0.292-0.933-0.408-1.4-0.408s-0.875 0.175-1.167 0.467c-0.292 0.292-0.467 0.7-0.467 1.108 0 0.467 0.175 0.817 0.467 1.108 0.292 0.292 0.7 0.409 1.167 0.409C331.95 19.017 332.417 18.842 332.942 18.55z"/><path fill="#FFFFFF" d="M335.684 15.283c0.642 0 1.167 0.175 1.575 0.583s0.642 0.933 0.642 1.517 -0.233 1.108-0.642 1.517c-0.408 0.409-0.992 0.583-1.633 0.583s-1.167-0.175-1.575-0.583c-0.408-0.408-0.642-0.875-0.642-1.517s0.233-1.108 0.642-1.517C334.517 15.517 335.042 15.283 335.684 15.283zM335.684 15.867c-0.467 0-0.875 0.175-1.167 0.467 -0.292 0.292-0.467 0.7-0.467 1.108 0 0.467 0.175 0.817 0.467 1.108 0.292 0.292 0.7 0.467 1.167 0.467 0.466 0 0.816-0.175 1.167-0.467 0.292-0.292 0.467-0.7 0.467-1.108 0-0.408-0.175-0.816-0.467-1.108C336.5 15.983 336.15 15.867 335.684 15.867z"/><path fill="#FFFFFF" d="M341.517 15.342h0.583v2.333c0 0.292 0 0.583-0.059 0.7 -0.058 0.175-0.117 0.292-0.175 0.408s-0.175 0.175-0.233 0.292c-0.35 0.292-0.758 0.408-1.283 0.408s-0.992-0.117-1.283-0.408c-0.117-0.059-0.175-0.175-0.233-0.292 -0.059-0.117-0.117-0.233-0.175-0.408 -0.058-0.175-0.058-0.408-0.058-0.758v-2.333h0.583v2.333c0 0.408 0.058 0.642 0.116 0.817 0.117 0.175 0.233 0.292 0.409 0.35 0.175 0.059 0.408 0.117 0.642 0.117 0.35 0 0.642-0.117 0.875-0.292 0.117-0.117 0.175-0.233 0.233-0.35 0.058-0.117 0.058-0.35 0.058-0.7V15.342z"/><path fill="#FFFFFF" d="M346.184 15.342h0.583v4.142h-0.525l-2.742-3.15v3.208h-0.583V15.4h0.467l2.8 3.208V15.342z"/><path fill="#FFFFFF" d="M347.292 15.342h3.442v0.525h-1.458v3.617h-0.583v-3.617h-1.4V15.342z"/></g></g></svg>