<svg xmlns="http://www.w3.org/2000/svg" xmlns:xlink="http://www.w3.org/1999/xlink" version="1.1" id="Layer_1" x="0px" y="0px" width="37.917px" height="23.333px" viewBox="316.667 0 37.917 23.333" enable-background="new 316.667 0 37.917 23.333" xml:space="preserve"><g><path fill="#F6F6F6" d="M354.583 19.191c0 2.275-1.809 4.142-3.967 4.142h-29.983c-2.217 0-3.967-1.867-3.967-4.142V4.025c0-2.275 1.75-4.025 3.967-4.025h29.983c2.158 0 3.967 1.75 3.967 4.025V19.191z"/><g><g><polygon fill="#00589F" points="331.309,16.1 332.825,7.175 335.275,7.175 333.758,16.1    "/><g><path fill="#00589F" d="M342.567 7.408c-0.467-0.175-1.225-0.35-2.159-0.35 -2.392 0-4.083 1.225-4.083 2.975 0 1.283 1.225 1.983 2.1 2.45 0.934 0.408 1.284 0.7 1.284 1.108 0 0.583-0.758 0.875-1.458 0.875 -0.992 0-1.517-0.117-2.275-0.467l-0.292-0.117 -0.409 1.867c0.583 0.233 1.633 0.467 2.684 0.467 2.566 0 4.2-1.225 4.2-3.033 0-0.992-0.642-1.809-2.042-2.45 -0.875-0.408-1.342-0.7-1.342-1.108 0-0.35 0.467-0.758 1.4-0.758 0.817 0 1.342 0.175 1.809 0.35l0.233 0.117L342.567 7.408z"/><path fill="#00589F" d="M348.809 7.175h-1.867c-0.583 0-0.992 0.175-1.284 0.759l-3.617 8.167h2.567c0 0 0.408-1.108 0.525-1.342 0.292 0 2.742 0 3.092 0 0.058 0.292 0.292 1.342 0.292 1.342h2.275L348.809 7.175zM345.775 12.95c0.175-0.525 0.992-2.509 0.992-2.509s0.175-0.525 0.35-0.875l0.175 0.759c0 0 0.467 2.158 0.583 2.566h-2.1V12.95z"/><path fill="#00589F" d="M329.325 7.175l-2.392 6.067 -0.233-1.225c-0.467-1.4-1.809-2.975-3.383-3.733l2.158 7.817h2.566l3.85-8.925H329.325z"/><path fill="#F9A51A" d="M324.717 7.175h-3.908L320.75 7.35c3.033 0.758 5.075 2.508 5.892 4.667l-0.875-4.083C325.65 7.35 325.242 7.175 324.717 7.175"/></g></g></g></g></svg>