<svg xmlns="http://www.w3.org/2000/svg" xmlns:xlink="http://www.w3.org/1999/xlink" version="1.1" id="Layer_1" x="0px" y="0px" width="37.917px" height="23.333px" viewBox="316.667 0 37.917 23.333" enable-background="new 316.667 0 37.917 23.333" xml:space="preserve"><g><path fill="#1D1D1B" d="M354.583 19.133c0 2.275-1.925 4.2-4.083 4.2h-30.042c-2.159 0-3.792-1.925-3.792-4.2V3.967c0-2.275 1.633-3.967 3.792-3.967H350.5c2.158 0 4.083 1.691 4.083 3.967V19.133z"/><rect x="320.75" y="11.083" fill="#FF00A6" width="29.75" height="1.167"/><g><path fill="#FFFFFF" d="M322.325 4.725c0 0.058 0 2.333 0 2.392h-0.292c0-0.058 0-1.05 0-1.05h-1.225v1.05h-0.292c0-0.058 0-2.333 0-2.392h0.292c0 0.058 0 1.05 0 1.05h1.225c0 0 0-0.992 0-1.05H322.325"/><path fill="#FFFFFF" d="M324.017 6.825c-0.467 0-0.933-0.35-0.933-0.934 0-0.642 0.466-0.933 0.933-0.933s0.934 0.292 0.934 0.933C324.95 6.475 324.483 6.825 324.017 6.825M324.017 4.667c-0.816 0-1.225 0.642-1.225 1.225 0 0.642 0.467 1.225 1.225 1.225 0.817 0 1.283-0.642 1.283-1.225C325.3 5.309 324.833 4.667 324.017 4.667"/><path fill="#FFFFFF" d="M327.633 4.725c0 0.058 0 1.4 0 1.4 0 0.525-0.233 0.992-0.933 0.992 -0.7 0-0.934-0.525-0.934-0.992 0 0 0-1.342 0-1.4h0.292c0 0.058 0 1.4 0 1.4 0 0.467 0.233 0.7 0.642 0.7 0.175 0 0.642-0.059 0.642-0.7 0 0 0-1.342 0-1.4C327.342 4.725 327.575 4.725 327.633 4.725"/><path fill="#FFFFFF" d="M331.483 4.725c0 0.058 0 0.292 0 0.292 -0.059 0-0.934 0-0.934 0v0.758h0.7v0.292c-0.058 0-0.7 0-0.7 0v0.759c0 0 0.875 0 0.934 0 0 0.058 0 0.233 0 0.292 -0.059 0-1.225 0-1.225 0 0-0.058 0-2.333 0-2.392C330.258 4.725 331.425 4.725 331.483 4.725"/><path fill="#FFFFFF" d="M337.258 4.725c0 0.058 0 0.292 0 0.292h-0.992v0.758c0 0 0.758 0 0.817 0v0.292h-0.817v1.05c-0.058 0-0.292 0-0.292 0 0-0.058 0-2.333 0-2.392C335.975 4.725 337.2 4.725 337.258 4.725"/><path fill="#FFFFFF" d="M341.283 5.892h-0.35V4.958h0.35c0.35 0 0.525 0.175 0.525 0.466C341.867 5.717 341.633 5.892 341.283 5.892M341.692 6.066L341.692 6.066c0.292-0.116 0.466-0.35 0.466-0.642 0-0.525-0.292-0.758-0.933-0.758h-0.583c0 0.059 0 2.333 0 2.392 0.059 0 0.292 0 0.292 0 0-0.059 0-0.934 0-0.934h0.466l0.467 0.934c0 0 0.35 0 0.408 0C342.217 7.059 341.692 6.066 341.692 6.066"/><path fill="#FFFFFF" d="M343.267 6.242l0.408-1.167V5.017l0.409 1.225H343.267M343.908 4.725h-0.35c0 0-0.875 2.333-0.934 2.392 0.059 0 0.35 0 0.35 0l0.233-0.525h1.05c0 0 0.175 0.525 0.233 0.525 0 0 0.292 0 0.35 0C344.725 7.059 343.908 4.725 343.908 4.725"/><path fill="#FFFFFF" d="M340.117 4.725c0 0.058 0 0.292 0 0.292 -0.058 0-1.05 0-1.05 0v0.758c0 0 0.758 0 0.816 0v0.292h-0.816v1.05h-0.292c0-0.058 0-2.333 0-2.392C338.833 4.725 340.117 4.725 340.117 4.725"/><path fill="#FFFFFF" d="M334.167 6.825c-0.466 0-0.933-0.35-0.933-0.934 0-0.642 0.467-0.933 0.933-0.933 0.467 0 0.934 0.35 0.934 0.933C335.1 6.533 334.575 6.825 334.167 6.825M334.167 4.667c-0.816 0-1.283 0.642-1.283 1.225 0 0.642 0.467 1.225 1.283 1.225 0.817 0 1.284-0.642 1.284-1.225C335.392 5.309 334.983 4.667 334.167 4.667"/><path fill="#FFFFFF" d="M348.342 4.725c0 0.058 0 0.292 0 0.292h-0.934v0.758h0.7v0.292h-0.7v0.759c0 0 0.875 0 0.934 0 0 0 0 0.233 0 0.292h-1.225c0-0.058 0-2.333 0-2.392H348.342"/><path fill="#FFFFFF" d="M349.508 5.892h-0.292l0 0V5.017h0.35c0.35 0 0.525 0.175 0.525 0.467C350.092 5.6 349.975 5.892 349.508 5.892M349.917 6.066L349.917 6.066c0.292-0.116 0.467-0.35 0.467-0.642 0-0.525-0.292-0.758-0.933-0.758h-0.583c0 0.059 0 2.333 0 2.392 0.058 0 0.292 0 0.292 0 0-0.059 0-0.934 0-0.934h0.467l0.467 0.934c0 0 0.35 0 0.408 0C350.442 7.059 349.917 6.066 349.917 6.066"/><path fill="#FFFFFF" d="M329.383 6.475c0-0.292-0.292-0.35-0.583-0.467 -0.35-0.117-0.7-0.233-0.7-0.642 0.058-0.7 0.7-0.7 0.816-0.7 0.35 0 0.642 0.117 0.7 0.175l-0.058 0.292c-0.059-0.058-0.292-0.175-0.583-0.175 -0.35 0-0.467 0.175-0.467 0.408s0.233 0.35 0.525 0.408c0.35 0.117 0.7 0.233 0.7 0.7 0 0.408-0.35 0.7-0.817 0.7 -0.408 0-0.758-0.175-0.816-0.233 0 0 0.058-0.233 0.117-0.292 0.058 0.059 0.408 0.233 0.758 0.233C329.267 6.825 329.383 6.65 329.383 6.475"/><path fill="#FFFFFF" d="M346.3 6.475c0-0.292-0.292-0.35-0.583-0.467 -0.35-0.117-0.7-0.233-0.7-0.642 0.059-0.7 0.7-0.7 0.817-0.7 0.35 0 0.642 0.117 0.7 0.175l-0.058 0.292c-0.059-0.058-0.292-0.175-0.583-0.175 -0.35 0-0.467 0.175-0.467 0.408s0.233 0.35 0.525 0.408c0.35 0.117 0.7 0.233 0.7 0.7 0 0.408-0.35 0.7-0.816 0.7 -0.409 0-0.758-0.175-0.817-0.233 0 0 0.117-0.233 0.117-0.292 0.059 0.059 0.408 0.233 0.758 0.233C346.184 6.825 346.3 6.65 346.3 6.475"/></g><g><path fill="#FFFFFF" d="M320.458 18.608v-3.033h0.758c0.292 0 0.525 0.058 0.758 0.233 0.233 0.175 0.292 0.35 0.292 0.642 0 0.175-0.058 0.35-0.117 0.466 -0.117 0.117-0.233 0.233-0.408 0.292 0.117 0.058 0.175 0.175 0.292 0.233 0.117 0.059 0.233 0.292 0.409 0.583 0.117 0.175 0.175 0.292 0.233 0.409l0.175 0.233h-0.525l-0.117-0.175c0 0 0 0 0-0.058l-0.059-0.117 -0.233-0.292 -0.175-0.233c-0.117-0.117-0.175-0.233-0.233-0.292 -0.058-0.059-0.117-0.117-0.175-0.175 -0.059-0.059-0.175-0.059-0.292-0.059h-0.117v1.342H320.458zM321.042 15.925h-0.117v0.934h0.175c0.233 0 0.35 0 0.467-0.059 0.058-0.058 0.175-0.116 0.175-0.175 0.058-0.059 0.058-0.175 0.058-0.233 0-0.117 0-0.175-0.058-0.233 -0.058-0.058-0.117-0.117-0.233-0.175C321.392 15.925 321.275 15.925 321.042 15.925z"/><path fill="#FFFFFF" d="M323.142 15.517h1.75v0.408h-1.283v0.934h1.225v0.408h-1.225V18.2h1.342v0.408h-1.75v-3.092H323.142z"/><path fill="#FFFFFF" d="M328.042 17.85v0.466c-0.292 0.175-0.7 0.233-1.108 0.233 -0.35 0-0.642-0.058-0.875-0.233 -0.233-0.116-0.409-0.35-0.583-0.583 -0.117-0.233-0.233-0.525-0.233-0.758 0-0.467 0.175-0.817 0.467-1.108 0.292-0.292 0.7-0.467 1.167-0.467 0.292 0 0.7 0.059 1.05 0.233V16.1c-0.35-0.175-0.7-0.292-1.05-0.292s-0.642 0.116-0.875 0.35 -0.35 0.525-0.35 0.817c0 0.35 0.117 0.583 0.35 0.816 0.233 0.233 0.525 0.35 0.875 0.35C327.342 18.2 327.692 18.083 328.042 17.85z"/><path fill="#FFFFFF" d="M330.083 15.517c0.466 0 0.875 0.175 1.167 0.467 0.292 0.292 0.467 0.7 0.467 1.108s-0.175 0.816-0.467 1.108c-0.292 0.292-0.7 0.466-1.167 0.466 -0.467 0-0.817-0.175-1.167-0.466 -0.292-0.292-0.466-0.642-0.466-1.108s0.175-0.817 0.466-1.108C329.208 15.633 329.559 15.517 330.083 15.517zM330.083 15.925c-0.35 0-0.642 0.117-0.875 0.35s-0.35 0.525-0.35 0.817c0 0.35 0.117 0.583 0.35 0.816s0.525 0.35 0.816 0.35c0.35 0 0.642-0.117 0.875-0.35s0.35-0.525 0.35-0.816c0-0.35-0.117-0.583-0.35-0.817S330.434 15.925 330.083 15.925z"/><path fill="#FFFFFF" d="M333.875 17.092h1.05v1.283c-0.35 0.175-0.758 0.233-1.108 0.233 -0.525 0-0.934-0.175-1.225-0.467 -0.292-0.292-0.467-0.642-0.467-1.108s0.175-0.816 0.467-1.108c0.292-0.292 0.7-0.466 1.167-0.466 0.175 0 0.35 0 0.467 0.058 0.117 0.059 0.35 0.117 0.583 0.175v0.467c-0.35-0.233-0.7-0.292-1.108-0.292 -0.35 0-0.642 0.117-0.817 0.35 -0.233 0.233-0.35 0.525-0.35 0.816 0 0.35 0.117 0.642 0.35 0.875s0.525 0.35 0.875 0.35c0.175 0 0.408-0.058 0.642-0.117h0.059V17.5h-0.583V17.092z"/><path fill="#FFFFFF" d="M337.958 15.517h0.408v3.033h-0.35l-2.042-2.333v2.333h-0.408v-3.033h0.35l2.042 2.392V15.517z"/><path fill="#FFFFFF" d="M339.067 15.517h0.408v3.033h-0.408V15.517z"/><path fill="#FFFFFF" d="M339.883 15.517h2.567v0.408h-1.05v2.684h-0.466v-2.684h-1.05V15.517z"/><path fill="#FFFFFF" d="M342.858 15.517h0.408v3.033h-0.408V15.517z"/><path fill="#FFFFFF" d="M345.483 15.517c0.467 0 0.875 0.175 1.167 0.467 0.292 0.292 0.467 0.7 0.467 1.108s-0.175 0.816-0.467 1.108c-0.292 0.292-0.7 0.466-1.167 0.466s-0.817-0.175-1.167-0.466c-0.292-0.292-0.467-0.642-0.467-1.108s0.175-0.817 0.467-1.108C344.608 15.633 345.017 15.517 345.483 15.517zM345.483 15.925c-0.35 0-0.642 0.117-0.875 0.35s-0.35 0.525-0.35 0.817c0 0.35 0.117 0.583 0.35 0.816s0.525 0.35 0.816 0.35c0.35 0 0.642-0.117 0.875-0.35 0.233-0.233 0.35-0.525 0.35-0.816 0-0.35-0.117-0.583-0.35-0.817C346.067 16.042 345.833 15.925 345.483 15.925z"/><path fill="#FFFFFF" d="M350.092 15.517h0.408v3.033h-0.35l-2.042-2.333v2.333H347.7v-3.033h0.35l2.042 2.392V15.517z"/></g></g></svg>