<?xml version="1.0" encoding="UTF-8" standalone="no"?>
<!-- Generator: Adobe Illustrator 18.0.0, SVG Export Plug-In . SVG Version: 6.00 Build 0)  -->

<svg
   xmlns:dc="http://purl.org/dc/elements/1.1/"
   xmlns:cc="http://creativecommons.org/ns#"
   xmlns:rdf="http://www.w3.org/1999/02/22-rdf-syntax-ns#"
   xmlns:svg="http://www.w3.org/2000/svg"
   xmlns="http://www.w3.org/2000/svg"
   xmlns:sodipodi="http://sodipodi.sourceforge.net/DTD/sodipodi-0.dtd"
   xmlns:inkscape="http://www.inkscape.org/namespaces/inkscape"
   version="1.1"
   id="Layer_1"
   x="0px"
   y="0px"
   viewBox="0 0 24.2 200"
   enable-background="new 0 0 24.2 200"
   xml:space="preserve"
   inkscape:version="0.48.5 r10040"
   width="24"
   height="200"
   sodipodi:docname="chevron-left.svg"
   inkscape:export-filename="Y:\Work\HOF\repo\src\assets\images\icons\chevron.png"
   inkscape:export-xdpi="90"
   inkscape:export-ydpi="90"><metadata
   id="metadata3017"><rdf:RDF><cc:Work
       rdf:about=""><dc:format>image/svg+xml</dc:format><dc:type
         rdf:resource="http://purl.org/dc/dcmitype/StillImage" /><dc:title /></cc:Work></rdf:RDF></metadata><defs
   id="defs3015" /><sodipodi:namedview
   pagecolor="#ffffff"
   bordercolor="#666666"
   borderopacity="1"
   objecttolerance="10"
   gridtolerance="10"
   guidetolerance="10"
   inkscape:pageopacity="0"
   inkscape:pageshadow="2"
   inkscape:window-width="1920"
   inkscape:window-height="1018"
   id="namedview3013"
   showgrid="false"
   inkscape:zoom="4.005"
   inkscape:cx="12.1"
   inkscape:cy="99.999998"
   inkscape:window-x="-8"
   inkscape:window-y="-8"
   inkscape:window-maximized="1"
   inkscape:current-layer="Layer_1" />
<polygon
   points="24.2,20 4.2,0 0,4.2 15.8,20 0,35.8 4.2,40 "
   id="polygon3003"
   transform="matrix(-1,0,0,1,24.2,0)"
   style="fill:#ffffff" />
<polygon
   points="24.2,60 4.2,40 0,44.2 15.8,60 0,75.8 4.2,80 "
   id="polygon3005"
   transform="matrix(-1,0,0,1,24.2,0)"
   style="fill:#b3b3b3" />
<polygon
   points="24.2,100 4.2,80 0,84.2 15.8,100 0,115.8 4.2,120 "
   id="polygon3007"
   transform="matrix(-1,0,0,1,24.2,0)"
   style="fill:#ff00a6" />
<polygon
   points="24.2,140 4.2,120 0,124.2 15.8,140 0,155.8 4.2,160 "
   id="polygon3009"
   transform="matrix(-1,0,0,1,24.2,0)" />
<polygon
   points="24.2,180 4.2,160 0,164.2 15.8,180 0,195.8 4.2,200 "
   id="polygon3011"
   transform="matrix(-1,0,0,1,24.2,0)"
   style="fill:#f6f6f6" />
</svg>