<?xml version="1.0" encoding="UTF-8" standalone="no"?>
<!-- Generator: Adobe Illustrator 18.0.0, SVG Export Plug-In . SVG Version: 6.00 Build 0)  -->

<svg
   xmlns:dc="http://purl.org/dc/elements/1.1/"
   xmlns:cc="http://creativecommons.org/ns#"
   xmlns:rdf="http://www.w3.org/1999/02/22-rdf-syntax-ns#"
   xmlns:svg="http://www.w3.org/2000/svg"
   xmlns="http://www.w3.org/2000/svg"
   xmlns:sodipodi="http://sodipodi.sourceforge.net/DTD/sodipodi-0.dtd"
   xmlns:inkscape="http://www.inkscape.org/namespaces/inkscape"
   version="1.1"
   id="Layer_1"
   x="0px"
   y="0px"
   viewBox="0 0 30 60"
   enable-background="new 0 0 193 383"
   xml:space="preserve"
   inkscape:version="0.48.5 r10040"
   width="30"
   height="60"
   sodipodi:docname="delivery-express.svg"><metadata
   id="metadata3119"><rdf:RDF><cc:Work
       rdf:about=""><dc:format>image/svg+xml</dc:format><dc:type
         rdf:resource="http://purl.org/dc/dcmitype/StillImage" /></cc:Work></rdf:RDF></metadata><defs
   id="defs3117" /><sodipodi:namedview
   pagecolor="#ffffff"
   bordercolor="#666666"
   borderopacity="1"
   objecttolerance="10"
   gridtolerance="10"
   guidetolerance="10"
   inkscape:pageopacity="0"
   inkscape:pageshadow="2"
   inkscape:window-width="1920"
   inkscape:window-height="1018"
   id="namedview3115"
   showgrid="false"
   inkscape:zoom="6.9713713"
   inkscape:cx="19.699753"
   inkscape:cy="34.751279"
   inkscape:window-x="-8"
   inkscape:window-y="-8"
   inkscape:window-maximized="1"
   inkscape:current-layer="Layer_1" />
<g
   id="g3073"
   transform="matrix(0.15836207,0,0,0.15836207,-0.28194015,-0.10774132)">
	<circle
   stroke-miterlimit="10"
   cx="96.5"
   cy="95.400002"
   r="93.099998"
   id="circle3075"
   d="M 189.6,95.400002 C 189.6,146.81771 147.91771,188.5 96.5,188.5 45.082291,188.5 3.4000015,146.81771 3.4000015,95.400002 3.4000015,43.982292 45.082291,2.3000031 96.5,2.3000031 c 51.41771,0 93.1,41.6822889 93.1,93.0999989 z"
   sodipodi:cx="96.5"
   sodipodi:cy="95.400002"
   sodipodi:rx="93.099998"
   sodipodi:ry="93.099998"
   style="fill:none;stroke:#009245;stroke-width:3.23930001;stroke-miterlimit:10" />
	<g
   id="g3077">
		<g
   id="g3079">
			<path
   d="m 72.9,68.5 c 0,3.1 -3.5,5.7 -7.8,5.7 H 35.4 c -4.3,0 -7.8,-2.6 -7.8,-5.7 0,-3.1 3.5,-5.7 7.8,-5.7 h 29.7 c 4.3,0 7.8,2.6 7.8,5.7 z"
   id="path3081"
   inkscape:connector-curvature="0"
   style="fill:#009245" />
		</g>
		<g
   id="g3083">
			<path
   d="m 72.9,91.2 c 0,3.1 -3.5,5.7 -7.8,5.7 h -7 c -4.3,0 -7.8,-2.6 -7.8,-5.7 0,-3.1 3.5,-5.7 7.8,-5.7 h 7 c 4.3,0 7.8,2.6 7.8,5.7 z"
   id="path3085"
   inkscape:connector-curvature="0"
   style="fill:#009245" />
		</g>
		<g
   id="g3087">
			<path
   d="m 72.9,113.9 c 0,3.1 -2.6,5.7 -5.7,5.7 -3.1,0 -5.7,-2.6 -5.7,-5.7 0,-3.1 2.6,-5.7 5.7,-5.7 3.1,0 5.7,2.5 5.7,5.7 z"
   id="path3089"
   inkscape:connector-curvature="0"
   style="fill:#009245" />
		</g>
		<g
   id="g3091">
			<path
   d="m 162.4,128.8 c 0,4.3 -3.5,7.8 -7.8,7.8 H 96.5 c -4.3,0 -7.8,-3.5 -7.8,-7.8 V 70.7 c 0,-4.3 3.5,-7.8 7.8,-7.8 h 58.1 c 4.3,0 7.8,3.5 7.8,7.8 v 58.1 z M 100,117.4 c 0,4.3 3.5,7.8 7.8,7.8 h 35.4 c 4.3,0 7.8,-3.5 7.8,-7.8 V 82 c 0,-4.3 -3.5,-7.8 -7.8,-7.8 h -35.4 c -4.3,0 -7.8,3.5 -7.8,7.8 v 35.4 z"
   id="path3093"
   inkscape:connector-curvature="0"
   style="fill:#009245" />
		</g>
	</g>
</g>

<g
   id="g3121"
   transform="matrix(0.15836207,0,0,0.15836207,-0.28194015,-0.22820776)"><circle
     id="circle3095"
     r="93.099998"
     cy="285.60001"
     cx="96.5"
     stroke-miterlimit="10"
     sodipodi:cx="96.5"
     sodipodi:cy="285.60001"
     sodipodi:rx="93.099998"
     sodipodi:ry="93.099998"
     style="fill:none;stroke:#aaaaaa;stroke-width:3.23930001;stroke-miterlimit:10"
     d="M 189.6,285.60001 C 189.6,337.01772 147.91771,378.7 96.5,378.7 45.082291,378.7 3.4000015,337.01772 3.4000015,285.60001 c 0,-51.41771 41.6822895,-93.1 93.0999985,-93.1 51.41771,0 93.1,41.68229 93.1,93.1 z" /><g
     id="g3097">
	<g
   id="g3099">
		<path
   id="path3101"
   d="m 72.9,258.8 c 0,3.1 -3.5,5.7 -7.8,5.7 H 35.4 c -4.3,0 -7.8,-2.6 -7.8,-5.7 0,-3.1 3.5,-5.7 7.8,-5.7 h 29.7 c 4.3,0 7.8,2.6 7.8,5.7 z"
   inkscape:connector-curvature="0"
   style="fill:#aaaaaa" />
	</g>
	<g
   id="g3103">
		<path
   id="path3105"
   d="m 72.9,281.5 c 0,3.1 -3.5,5.7 -7.8,5.7 h -7 c -4.3,0 -7.8,-2.6 -7.8,-5.7 0,-3.1 3.5,-5.7 7.8,-5.7 h 7 c 4.3,0 7.8,2.5 7.8,5.7 z"
   inkscape:connector-curvature="0"
   style="fill:#aaaaaa" />
	</g>
	<g
   id="g3107">
		<path
   id="path3109"
   d="m 72.9,304.1 c 0,3.1 -2.6,5.7 -5.7,5.7 -3.1,0 -5.7,-2.6 -5.7,-5.7 0,-3.1 2.6,-5.7 5.7,-5.7 3.1,0.1 5.7,2.6 5.7,5.7 z"
   inkscape:connector-curvature="0"
   style="fill:#aaaaaa" />
	</g>
	<g
   id="g3111">
		<path
   id="path3113"
   d="m 162.4,319 c 0,4.3 -3.5,7.8 -7.8,7.8 H 96.5 c -4.3,0 -7.8,-3.5 -7.8,-7.8 v -58.1 c 0,-4.3 3.5,-7.8 7.8,-7.8 h 58.1 c 4.3,0 7.8,3.5 7.8,7.8 V 319 z M 100,307.7 c 0,4.3 3.5,7.8 7.8,7.8 h 35.4 c 4.3,0 7.8,-3.5 7.8,-7.8 v -35.4 c 0,-4.3 -3.5,-7.8 -7.8,-7.8 h -35.4 c -4.3,0 -7.8,3.5 -7.8,7.8 v 35.4 z"
   inkscape:connector-curvature="0"
   style="fill:#aaaaaa" />
	</g>
</g></g>
</svg>