<?xml version="1.0" encoding="UTF-8" standalone="no"?>
<!-- Generator: Adobe Illustrator 18.0.0, SVG Export Plug-In . SVG Version: 6.00 Build 0)  -->

<svg
   xmlns:dc="http://purl.org/dc/elements/1.1/"
   xmlns:cc="http://creativecommons.org/ns#"
   xmlns:rdf="http://www.w3.org/1999/02/22-rdf-syntax-ns#"
   xmlns:svg="http://www.w3.org/2000/svg"
   xmlns="http://www.w3.org/2000/svg"
   xmlns:sodipodi="http://sodipodi.sourceforge.net/DTD/sodipodi-0.dtd"
   xmlns:inkscape="http://www.inkscape.org/namespaces/inkscape"
   version="1.1"
   id="Layer_1"
   x="0px"
   y="0px"
   viewBox="0 0 30 60"
   enable-background="new 0 0 193 383"
   xml:space="preserve"
   inkscape:version="0.48.5 r10040"
   width="30"
   height="60"
   sodipodi:docname="delivery-international.svg"><metadata
   id="metadata3017"><rdf:RDF><cc:Work
       rdf:about=""><dc:format>image/svg+xml</dc:format><dc:type
         rdf:resource="http://purl.org/dc/dcmitype/StillImage" /></cc:Work></rdf:RDF></metadata><defs
   id="defs3015" /><sodipodi:namedview
   pagecolor="#ffffff"
   bordercolor="#666666"
   borderopacity="1"
   objecttolerance="10"
   gridtolerance="10"
   guidetolerance="10"
   inkscape:pageopacity="0"
   inkscape:pageshadow="2"
   inkscape:window-width="1920"
   inkscape:window-height="1018"
   id="namedview3013"
   showgrid="false"
   inkscape:zoom="2.0913838"
   inkscape:cx="96.5"
   inkscape:cy="191.5"
   inkscape:window-x="-8"
   inkscape:window-y="-8"
   inkscape:window-maximized="1"
   inkscape:current-layer="Layer_1" />
<g
   id="g3003"
   transform="matrix(0.15836207,0,0,0.15836207,-0.28194015,-0.21859429)">
	<circle
   stroke-miterlimit="10"
   cx="96.5"
   cy="96.099998"
   r="93.099998"
   id="circle3005"
   sodipodi:cx="96.5"
   sodipodi:cy="96.099998"
   sodipodi:rx="93.099998"
   sodipodi:ry="93.099998"
   style="fill:none;stroke:#009245;stroke-width:3.23930001;stroke-miterlimit:10"
   d="M 189.6,96.099998 C 189.6,147.51771 147.91771,189.2 96.5,189.2 45.082291,189.2 3.4000015,147.51771 3.4000015,96.099998 3.4000015,44.682289 45.082291,3 96.5,3 c 51.41771,0 93.1,41.682289 93.1,93.099998 z" />
	<path
   d="m 149.8,42.3 c -6.7,0 -15.2,4.4 -23.3,10.2 L 109.8,69.2 89,67.1 91.2,64.9 c 0.3,-0.3 0.3,-0.8 0,-1.1 l -2,-2.1 c -0.3,-0.3 -0.8,-0.3 -1.1,0 l -4.9,4.9 -10.6,-1 2.4,-2.4 c 0.3,-0.3 0.3,-0.8 0,-1.1 l -2,-2 c -0.3,-0.3 -0.8,-0.3 -1.1,0 l -5,5 -17.5,-1.6 -5.5,5.9 18.9,5.9 16.5,6.1 11.2,7 -15.8,15.6 c -5.3,7 -9.6,13.8 -12.9,19.3 l -20.1,-1.6 -2.5,2.5 16.8,9.6 c -1,2 -1.6,3.1 -1.6,3.1 0,0 1.2,-0.5 3.1,-1.5 l 9.2,17.4 2.3,-2.3 -0.9,-20.9 c 5.6,-3.3 12.4,-7.5 19.4,-12.8 l 15.6,-15.7 6.6,10.3 6.3,16.1 6.3,20.2 5.7,-5.7 -1.8,-19.9 3.9,-3.9 c 0.3,-0.3 0.3,-0.8 0,-1.1 l -2.1,-2 c -0.3,-0.3 -0.8,-0.3 -1.1,0 l -1.3,1.3 -0.7,-7.5 5.1,-5.2 c 0.3,-0.3 0.3,-0.8 0,-1.1 l -2.1,-2 c -0.3,-0.3 -0.8,-0.3 -1.1,0 l -2.6,2.6 -2,-21.4 17.2,-17.2 c 6,-7.8 10.4,-16 10.4,-22.3"
   id="path3007"
   inkscape:connector-curvature="0"
   style="fill:#009245" />
</g>

<g
   id="g3019"
   transform="matrix(0.15836207,0,0,0.15836207,-0.28194015,-0.35489548)"><circle
     id="circle3009"
     r="93.099998"
     cy="286.39999"
     cx="96.5"
     stroke-miterlimit="10"
     sodipodi:cx="96.5"
     sodipodi:cy="286.39999"
     sodipodi:rx="93.099998"
     sodipodi:ry="93.099998"
     style="fill:none;stroke:#aaaaaa;stroke-width:3.23930001;stroke-miterlimit:10"
     d="m 189.6,286.39999 c 0,51.41771 -41.68229,93.1 -93.1,93.1 -51.417709,0 -93.0999985,-41.68229 -93.0999985,-93.1 C 3.4000015,234.98228 45.082291,193.3 96.5,193.3 c 51.41771,0 93.1,41.68228 93.1,93.09999 z" /><path
     id="path3011"
     d="m 149.8,232.5 c -6.7,0 -15.2,4.4 -23.3,10.2 l -16.7,16.7 -20.8,-2 2.2,-2.2 c 0.3,-0.3 0.3,-0.8 0,-1.1 l -2,-2.1 c -0.3,-0.3 -0.8,-0.3 -1.1,0 l -4.9,4.9 -10.6,-1 2.4,-2.4 c 0.3,-0.3 0.3,-0.8 0,-1.1 l -2,-2 c -0.3,-0.3 -0.8,-0.3 -1.1,0 l -5,5 -17.5,-1.6 -5.5,5.9 18.9,5.9 16.5,6.1 11.2,7 -15.7,15.6 c -5.3,7 -9.6,13.8 -12.9,19.3 l -20.3,-1.6 -2.5,2.5 16.8,9.6 c -1,2 -1.6,3.1 -1.6,3.1 0,0 1.2,-0.5 3.1,-1.5 l 9.2,17.4 2.3,-2.3 -0.8,-20.8 c 5.6,-3.3 12.4,-7.5 19.4,-12.8 l 15.6,-15.7 6.6,10.3 6.3,16.1 6.3,20.2 5.7,-5.7 -1.8,-19.9 3.9,-3.9 c 0.3,-0.3 0.3,-0.8 0,-1.1 l -2.1,-2 c -0.3,-0.3 -0.8,-0.3 -1.1,0 l -1.3,1.3 -0.7,-7.5 5.1,-5.2 c 0.3,-0.3 0.3,-0.8 0,-1.1 l -2.1,-2 c -0.3,-0.3 -0.8,-0.3 -1.1,0 l -2.6,2.6 -2,-21.4 17.2,-17.2 c 6,-7.9 10.4,-16.1 10.4,-22.5"
     inkscape:connector-curvature="0"
     style="fill:#aaaaaa" /></g>
</svg>