<svg xmlns="http://www.w3.org/2000/svg" xmlns:xlink="http://www.w3.org/1999/xlink" version="1.1" id="Layer_1" x="0px" y="0px" width="32.025px" height="5.6px" viewBox="320.108 2.742 32.025 5.6" enable-background="new 320.108 2.742 32.025 5.6" xml:space="preserve"><g><path fill="#666666" d="M322.617 4.025c0.525-0.35 1.108-0.525 1.633-0.466V2.742h-4.142v4.142h1.4c0 0-0.058-0.058-0.058-0.117C321.042 5.95 321.567 4.725 322.617 4.025L322.617 4.025z"/><path fill="#EB6619" d="M324.192 4.083c-1.108 0-1.983 0.875-1.983 1.983 0 0.117 0 0.233 0.058 0.35 0.059 0.233 0.175 0.292 0.292 0.35 0.058 0 0.116 0.059 0.116 0.059 0.233 0 0.409-0.059 0.642-0.175 0.292-0.175 0.466-0.466 0.583-0.758 -0.35 0.059-0.7 0.117-0.992 0.175V5.425l2.217-0.175v2.1l-0.642 0.058 0 0V7.35c0-0.175 0.058-0.35 0.058-0.525 0-0.117 0-0.233 0-0.292 -0.058 0.117-0.175 0.233-0.292 0.292 -0.117 0.116-0.233 0.175-0.35 0.233 -0.058 0.058-0.117 0.058-0.233 0.116 -0.175 0.059-0.292 0.117-0.466 0.175 -0.117 0.058-0.35 0.058-0.525 0.058 0.35 0.408 0.875 0.7 1.517 0.7 1.108 0 1.983-0.875 1.983-1.983C326.117 4.958 325.242 4.083 324.192 4.083L324.192 4.083z"/><path fill="#666666" d="M330.434 3.85c-0.117-0.467-0.525-0.583-0.934-0.583 -0.992 0-1.342 0.875-1.283 1.575 0.058 1.05 0.35 1.575 1.517 1.575 0.292 0 0.525-0.058 0.816-0.117V5.191h-0.933V4.725h1.458v1.983c-0.467 0.117-0.934 0.233-1.342 0.233 -0.583 0-1.05-0.058-1.458-0.466 -0.466-0.409-0.583-1.05-0.583-1.633 0-0.408 0.117-0.875 0.35-1.225 0.35-0.583 0.934-0.875 1.633-0.875 0.7 0 1.4 0.292 1.458 1.05h-0.7V3.85z"/><path fill="#666666" d="M332.184 5.542c-0.059 0.467 0.175 0.992 0.7 0.992 0.408 0 0.642-0.175 0.7-0.583h0.525c-0.059 0.642-0.583 0.933-1.225 0.933 -0.875 0-1.225-0.642-1.225-1.458 0-0.816 0.409-1.517 1.284-1.517 0.816 0 1.225 0.525 1.225 1.283v0.233h-1.983V5.542zM333.583 5.191c0-0.466-0.175-0.816-0.7-0.816 -0.408 0-0.7 0.35-0.7 0.816H333.583L333.583 5.191z"/><path fill="#666666" d="M337.258 5.483c0 0.875-0.467 1.458-1.4 1.458 -0.934 0-1.4-0.583-1.4-1.458s0.466-1.458 1.4-1.458C336.792 4.025 337.258 4.608 337.258 5.483L337.258 5.483zM335.858 6.533c0.642 0 0.816-0.525 0.816-1.108 0-0.583-0.233-1.108-0.816-1.108 -0.642 0-0.817 0.525-0.817 1.108C335.042 6.066 335.217 6.533 335.858 6.533L335.858 6.533z"/><polygon fill="#666666" points="337.842,3.617 336.617,3.617 336.617,2.858 340.175,2.858 340.175,3.617 338.95,3.617    338.95,6.883 337.842,6.883  "/><path fill="#666666" d="M340.758 4.608L340.758 4.608c0.117-0.467 0.467-0.642 0.934-0.583V4.9c-0.059 0-0.175 0-0.233 0 -0.525 0-0.758 0.35-0.7 0.875v1.108h-1.05v-2.1c0-0.233 0-0.408-0.059-0.7h1.05L340.758 4.608 340.758 4.608z"/><path fill="#666666" d="M344.083 6.533c-0.233 0.292-0.525 0.408-0.875 0.408 -0.583 0-1.05-0.408-1.05-0.991V4.083h1.05v1.633c0 0.292 0.058 0.583 0.408 0.583 0.525 0 0.467-0.583 0.467-0.583V4.083h1.05v2.042c0 0.233 0 0.408 0.059 0.7h-1.108V6.533L344.083 6.533z"/><path fill="#666666" d="M347.35 4.958c0-0.117 0-0.175-0.059-0.233 -0.058-0.059-0.175-0.117-0.292-0.117 -0.175 0-0.233 0.117-0.233 0.233 0 0.175 0.408 0.175 1.108 0.408 0.35 0.117 0.583 0.292 0.583 0.758 0 0.758-0.7 0.933-1.342 0.933 -0.7 0-1.342-0.116-1.342-0.991h0.992c0 0.058 0 0.175 0.059 0.233C346.883 6.242 347 6.3 347.059 6.3c0.233 0 0.35-0.058 0.35-0.233 0-0.466-1.633-0.175-1.633-1.225 0-0.7 0.758-0.875 1.284-0.875 0.642 0 1.283 0.175 1.283 0.933h-0.992V4.958z"/><path fill="#666666" d="M349.158 4.083V3.675l1.05-0.408v0.817h0.583v0.642h-0.583v1.108c0 0.058-0.059 0.408 0.175 0.408 0.117 0 0.292 0 0.408 0v0.642c-0.233 0.058-0.408 0.058-0.583 0.058 -0.7 0-1.167-0.116-1.108-0.933V4.725h-0.525V4.083H349.158L349.158 4.083z"/><path fill="#666666" d="M352.133 4.375c0 0.117-0.058 0.175-0.117 0.292 -0.058 0.059-0.175 0.117-0.292 0.117s-0.175-0.058-0.292-0.117c-0.059-0.058-0.117-0.175-0.117-0.292s0.058-0.175 0.117-0.292c0.058-0.059 0.175-0.117 0.292-0.117s0.175 0.058 0.292 0.117C352.075 4.142 352.133 4.258 352.133 4.375L352.133 4.375zM352.017 4.375c0-0.059 0-0.175-0.058-0.233 -0.059-0.058-0.117-0.058-0.233-0.058 -0.059 0-0.117 0-0.175 0.058 -0.058 0.059-0.058 0.117-0.058 0.233 0 0.059 0 0.175 0.058 0.233 0.059 0 0.117 0.058 0.175 0.058 0.058 0 0.175-0.058 0.233-0.117C352.017 4.492 352.017 4.434 352.017 4.375L352.017 4.375zM351.783 4.55V4.492 4.434c0 0 0-0.059-0.058-0.059l0 0c0 0.059 0 0.117 0 0.175h-0.059 -0.058V4.142c0.058 0 0.117 0 0.175 0 0.059 0 0.059 0 0.117 0l0.059 0.059 0 0 0 0v0.058c0 0 0 0-0.059 0l0.059 0.058v0.059c0 0 0 0 0 0.059h-0.175V4.55zM351.783 4.258L351.783 4.258 351.783 4.258 351.783 4.258c0-0.058 0-0.058-0.058-0.058l0 0c0 0 0 0-0.059 0v0.116C351.725 4.316 351.725 4.316 351.783 4.258 351.783 4.316 351.783 4.316 351.783 4.258 351.783 4.316 351.783 4.316 351.783 4.258L351.783 4.258z"/><path fill="#FFFFFF" d="M326.875 6.125c0 1.225-1.167 2.217-2.566 2.217 -1.4 0-2.567-0.992-2.567-2.217s1.167-2.217 2.567-2.217C325.708 3.908 326.875 4.9 326.875 6.125L326.875 6.125z"/><path fill="#666666" d="M324.192 4.083c-1.108 0-1.983 0.875-1.983 1.983 0 0.117 0 0.233 0.058 0.35 0.059 0.233 0.175 0.292 0.292 0.35 0.058 0 0.116 0.059 0.116 0.059 0.233 0 0.409-0.059 0.642-0.175 0.292-0.175 0.466-0.466 0.583-0.758 -0.35 0.059-0.7 0.117-0.992 0.175V5.425l2.217-0.175v2.1l-0.642 0.058 0 0V7.35c0-0.175 0.058-0.35 0.058-0.525 0-0.117 0-0.233 0-0.292 -0.058 0.117-0.175 0.233-0.292 0.292 -0.117 0.116-0.233 0.175-0.35 0.233 -0.058 0.058-0.117 0.058-0.233 0.116 -0.175 0.059-0.292 0.117-0.466 0.175 -0.117 0.058-0.35 0.058-0.525 0.058 0.35 0.408 0.875 0.7 1.517 0.7 1.108 0 1.983-0.875 1.983-1.983C326.175 4.958 325.3 4.083 324.192 4.083L324.192 4.083z"/></g></svg>