<?xml version="1.0" encoding="utf-8"?>
<!-- Generator: Adobe Illustrator 16.0.0, SVG Export Plug-In . SVG Version: 6.00 Build 0)  -->
<!DOCTYPE svg PUBLIC "-//W3C//DTD SVG 1.1//EN" "http://www.w3.org/Graphics/SVG/1.1/DTD/svg11.dtd">
<svg version="1.1" id="Layer_1" xmlns="http://www.w3.org/2000/svg" xmlns:xlink="http://www.w3.org/1999/xlink" x="0px" y="0px"
	 width="133.933px" height="536.783px" viewBox="316.667 0 133.933 536.783" enable-background="new 316.667 0 133.933 536.783"
	 xml:space="preserve">
<circle fill="#F6F6F6" cx="383.633" cy="201.133" r="66.967"/>
<circle fill="#FF00A6" cx="383.633" cy="335.3" r="66.967"/>
<circle fill="#F6F6F6" cx="383.633" cy="469.816" r="66.967"/>
<circle fill="#F6F6F6" cx="383.633" cy="66.967" r="66.967"/>
<g>
	<path d="M388.767,31.617c-2.45,3.325-5.775,4.375-9.858,3.792c3.5,2.684,5.075,6.184,5.483,10.325
		c0.467,4.258-0.816,7.933-3.792,11.025c-0.642,0.642-1.342,1.283-2.042,1.808c-5.659,4.667-5.6,7.117,0.116,11.784
		c0.992,0.816,2.042,1.575,3.092,2.333c7.875,5.892,8.458,19.892-2.858,25.258c-9.216,4.434-18.667,3.85-27.708-0.466
		c-8.225-3.909-9.1-12.659-2.275-18.784c4.55-4.083,10.034-5.833,16.042-6.066c1.108-0.058,2.275,0,3.85,0
		c-2.508-2.975-3.383-6.008-1.809-9.45c-2.158-0.292-4.142-0.292-6.066-0.758c-6.184-1.575-10.267-5.425-11.608-11.783
		c-1.342-6.183,0.992-11.142,5.892-14.7c2.625-1.867,5.892-2.917,8.867-4.317C372.317,31.617,380.542,31.617,388.767,31.617z
		 M366.892,97.358c0.059,0.175,0.117,0.408,0.175,0.583c3.383-0.991,7-1.575,10.091-3.15c4.784-2.45,6.3-9.333,3.208-13.183
		c-7.117-8.925-17.908-8.692-25.258-1.983c-3.675,3.383-3.908,8.167-0.875,12.133C357.383,96.017,361.875,97.242,366.892,97.358z
		 M356.684,44.975c-0.059,5.075,2.333,10.267,6.008,13.3c5.6,4.55,12.25,2.275,13.767-4.783c1.108-5.25-0.175-9.975-3.383-14.117
		c-2.917-3.85-7.059-5.425-10.5-4.258C358.9,36.283,356.684,39.958,356.684,44.975z"/>
	<path d="M412.042,31.617c0,4.492,0,8.925,0,13.65c4.958,0,9.625,0,14.409,0c0,1.342,0,2.45,0,3.85c-4.667,0-9.333,0-14.233,0
		c0,4.667,0,9.042,0,13.592c-1.167,0-2.1,0-3.267,0c0-4.492,0-8.867,0-13.475c-4.667,0-9.1,0-13.65,0c0-1.4,0-2.508,0-3.85
		c4.434,0,8.867,0,13.592,0c0-4.725,0-9.275,0-13.767C409.883,31.617,410.992,31.617,412.042,31.617z"/>
</g>
<g>
	<path fill="#FF00A6" d="M388.767,165.783c-2.45,3.325-5.775,4.375-9.858,3.792c3.5,2.683,5.075,6.183,5.483,10.325
		c0.467,4.258-0.816,7.934-3.792,11.025c-0.642,0.642-1.342,1.284-2.042,1.809c-5.659,4.667-5.6,7.117,0.116,11.783
		c0.992,0.817,2.042,1.575,3.092,2.333c7.875,5.892,8.458,19.892-2.858,25.258c-9.216,4.433-18.667,3.85-27.708-0.467
		c-8.225-3.908-9.1-12.658-2.275-18.783c4.55-4.083,10.034-5.833,16.042-6.067c1.108-0.058,2.275,0,3.85,0
		c-2.508-2.975-3.383-6.008-1.809-9.45c-2.158-0.292-4.142-0.292-6.066-0.758c-6.184-1.575-10.267-5.425-11.608-11.784
		c-1.342-6.183,0.992-11.142,5.892-14.7c2.625-1.867,5.892-2.917,8.867-4.317C372.317,165.783,380.542,165.783,388.767,165.783z
		 M366.892,231.525c0.059,0.175,0.117,0.409,0.175,0.583c3.383-0.992,7-1.575,10.091-3.15c4.784-2.45,6.3-9.333,3.208-13.184
		c-7.117-8.925-17.908-8.691-25.258-1.983c-3.675,3.383-3.908,8.167-0.875,12.133C357.383,230.184,361.875,231.408,366.892,231.525z
		 M356.684,179.142c-0.059,5.075,2.333,10.267,6.008,13.3c5.6,4.55,12.25,2.275,13.767-4.783c1.108-5.25-0.175-9.975-3.383-14.117
		c-2.917-3.85-7.059-5.425-10.5-4.258C358.9,170.45,356.684,174.125,356.684,179.142z"/>
	<path fill="#FF00A6" d="M412.042,165.783c0,4.492,0,8.925,0,13.65c4.958,0,9.625,0,14.409,0c0,1.341,0,2.45,0,3.85
		c-4.667,0-9.333,0-14.233,0c0,4.667,0,9.042,0,13.592c-1.167,0-2.1,0-3.267,0c0-4.492,0-8.867,0-13.475c-4.667,0-9.1,0-13.65,0
		c0-1.4,0-2.508,0-3.85c4.434,0,8.867,0,13.592,0c0-4.725,0-9.275,0-13.767C409.883,165.783,410.992,165.783,412.042,165.783z"/>
</g>
<g>
	<path fill="#FFFFFF" d="M388.767,299.95c-2.45,3.325-5.775,4.375-9.858,3.791c3.5,2.684,5.075,6.184,5.483,10.325
		c0.467,4.259-0.816,7.934-3.792,11.025c-0.642,0.642-1.342,1.283-2.042,1.809c-5.659,4.666-5.6,7.116,0.116,11.783
		c0.992,0.816,2.042,1.575,3.092,2.333c7.875,5.892,8.458,19.892-2.858,25.259c-9.216,4.433-18.667,3.85-27.708-0.467
		c-8.225-3.908-9.1-12.658-2.275-18.783c4.55-4.084,10.034-5.834,16.042-6.067c1.108-0.058,2.275,0,3.85,0
		c-2.508-2.975-3.383-6.008-1.809-9.45c-2.158-0.291-4.142-0.291-6.066-0.758c-6.184-1.575-10.267-5.425-11.608-11.783
		c-1.342-6.184,0.992-11.142,5.892-14.7c2.625-1.866,5.892-2.917,8.867-4.316C372.317,299.95,380.542,299.95,388.767,299.95z
		 M366.892,365.691c0.059,0.175,0.117,0.408,0.175,0.584c3.383-0.992,7-1.575,10.091-3.15c4.784-2.45,6.3-9.333,3.208-13.184
		c-7.117-8.925-17.908-8.691-25.258-1.983c-3.675,3.384-3.908,8.167-0.875,12.134C357.383,364.35,361.875,365.575,366.892,365.691z
		 M356.684,313.309c-0.059,5.074,2.333,10.267,6.008,13.3c5.6,4.55,12.25,2.274,13.767-4.783c1.108-5.25-0.175-9.976-3.383-14.117
		c-2.917-3.85-7.059-5.425-10.5-4.258C358.9,304.616,356.684,308.292,356.684,313.309z"/>
	<path fill="#FFFFFF" d="M412.042,299.95c0,4.491,0,8.925,0,13.649c4.958,0,9.625,0,14.409,0c0,1.342,0,2.45,0,3.851
		c-4.667,0-9.333,0-14.233,0c0,4.666,0,9.041,0,13.592c-1.167,0-2.1,0-3.267,0c0-4.492,0-8.867,0-13.476c-4.667,0-9.1,0-13.65,0
		c0-1.399,0-2.508,0-3.85c4.434,0,8.867,0,13.592,0c0-4.725,0-9.275,0-13.767C409.883,299.95,410.992,299.95,412.042,299.95z"/>
</g>
<g>
	<path fill="#AAAAAA" d="M388.767,434.467c-2.45,3.325-5.775,4.375-9.858,3.791c3.5,2.684,5.075,6.184,5.483,10.325
		c0.467,4.259-0.816,7.934-3.792,11.025c-0.642,0.642-1.342,1.283-2.042,1.809c-5.659,4.666-5.6,7.116,0.116,11.783
		c0.992,0.816,2.042,1.575,3.092,2.333c7.875,5.892,8.458,19.892-2.858,25.259c-9.216,4.433-18.667,3.85-27.708-0.467
		c-8.225-3.908-9.1-12.658-2.275-18.783c4.55-4.084,10.034-5.834,16.042-6.067c1.108-0.058,2.275,0,3.85,0
		c-2.508-2.975-3.383-6.008-1.809-9.449c-2.158-0.292-4.142-0.292-6.066-0.759c-6.184-1.575-10.267-5.425-11.608-11.783
		c-1.342-6.184,0.992-11.142,5.892-14.7c2.625-1.866,5.892-2.917,8.867-4.316C372.317,434.467,380.542,434.467,388.767,434.467z
		 M366.892,500.208c0.059,0.175,0.117,0.408,0.175,0.584c3.383-0.992,7-1.575,10.091-3.15c4.784-2.45,6.3-9.333,3.208-13.184
		c-7.117-8.866-17.85-8.691-25.258-1.925c-3.675,3.384-3.908,8.167-0.875,12.134C357.383,498.866,361.875,500.092,366.892,500.208z
		 M356.684,447.825c-0.059,5.075,2.333,10.267,6.008,13.3c5.6,4.55,12.25,2.275,13.767-4.783c1.108-5.25-0.175-9.976-3.383-14.117
		c-2.917-3.85-7.059-5.425-10.5-4.258C358.9,439.133,356.684,442.866,356.684,447.825z"/>
	<path fill="#AAAAAA" d="M412.042,434.467c0,4.491,0,8.925,0,13.649c4.958,0,9.625,0,14.409,0c0,1.342,0,2.45,0,3.851
		c-4.667,0-9.333,0-14.233,0c0,4.666,0,9.041,0,13.592c-1.167,0-2.1,0-3.267,0c0-4.492,0-8.867,0-13.476c-4.667,0-9.1,0-13.65,0
		c0-1.399,0-2.508,0-3.85c4.434,0,8.867,0,13.592,0c0-4.725,0-9.275,0-13.767C409.883,434.467,410.992,434.467,412.042,434.467z"/>
</g>
</svg>
