<?xml version="1.0" encoding="utf-8"?>
<!-- Generator: Adobe Illustrator 16.0.0, SVG Export Plug-In . SVG Version: 6.00 Build 0)  -->
<!DOCTYPE svg PUBLIC "-//W3C//DTD SVG 1.1//EN" "http://www.w3.org/Graphics/SVG/1.1/DTD/svg11.dtd">
<svg version="1.1" xmlns="http://www.w3.org/2000/svg" xmlns:xlink="http://www.w3.org/1999/xlink" x="0px" y="0px" width="45px"
	 height="2608px" viewBox="0 0 45 2608" enable-background="new 0 0 45 2608" xml:space="preserve">
<g id="grid" display="none">
</g>
<g id="tick">
	<polygon fill="#DD1593" points="18.965,960 13.202,965.764 10.64,963.203 10,963.843 12.562,966.404 13.202,967.045 
		13.842,966.404 19.605,960.641 	"/>
</g>
<g id="close">
	<g>
		<rect x="8.604" y="1014.26" transform="matrix(0.7072 -0.707 0.707 0.7072 -713.2153 307.7224)" width="12.572" height="1.257"/>
		<rect x="8.604" y="1014.26" transform="matrix(0.7072 -0.707 0.707 0.7072 -713.2153 307.7224)" width="12.572" height="1.257"/>
		
			<rect x="8.607" y="1014.261" transform="matrix(-0.7073 -0.7069 0.7069 -0.7073 -692.033 1743.2291)" width="12.569" height="1.257"/>
	</g>
	<g>
		<rect x="6.644" y="2164.165" transform="matrix(0.7072 -0.707 0.707 0.7072 -1526.3677 644.5918)" width="16.708" height="1.67"/>
		<rect x="6.644" y="2164.165" transform="matrix(0.7072 -0.707 0.707 0.7072 -1526.3677 644.5918)" width="16.708" height="1.67"/>
		
			<rect x="6.649" y="2164.166" transform="matrix(-0.7073 -0.7069 0.7069 -0.7073 -1504.895 3706.8726)" width="16.705" height="1.67"/>
	</g>
</g>
<g id="back">
	<polygon points="14.999,1070 10,1064.999 14.999,1060 15.659,1060.66 11.32,1064.999 15.659,1069.34 	"/>
	<polygon points="13.66,2070 18.658,2064.999 13.66,2060 13,2060.66 17.338,2064.999 13,2069.34 	"/>
</g>
<g id="down">
	<polygon points="20,910.66 14.999,915.657 10,910.66 10.66,910 14.999,914.339 19.339,910 	"/>
	<polygon fill="#EFEFEF" points="26,1911.286 15.999,1921 6,1911.286 7.32,1910 15.999,1918.437 24.679,1910 	"/>
	<polygon points="26,1861.286 15.999,1871 6,1861.286 7.32,1860 15.999,1868.437 24.679,1860 	"/>
	<polygon fill="#EFEFEF" points="6,1969.714 16.001,1960 26,1969.714 24.68,1971 16.001,1962.563 7.321,1971 	"/>
	<polygon points="6,2019.714 16.002,2010 26,2019.714 24.68,2021 16.002,2012.563 7.321,2021 	"/>
</g>
<g id="forward">
	<polygon fill="#B3B3B3" points="10.66,870 15.658,864.999 10.66,860 10,860.66 14.338,864.999 10,869.34 	"/>
	<polygon fill="#B3B3B3" points="14.998,1120 10,1114.999 14.998,1110 15.658,1110.66 11.32,1114.999 15.658,1119.34 	"/>
	<polygon fill="#B3B3B3" points="11.167,1224 20,1213.999 11.167,1204 10,1205.324 17.667,1213.999 10,1222.676 	"/>
	<polygon fill="#231F20" points="11.167,1275 20,1264.999 11.167,1255 10,1256.324 17.667,1264.999 10,1273.676 	"/>
	<polygon fill="#B3B3B3" points="18.831,1325 10,1314.999 18.831,1305 20,1306.324 12.335,1314.999 20,1323.676 	"/>
	<polygon fill="#231F20" points="18.835,1375 10,1364.999 18.835,1355 20,1356.324 12.335,1364.999 20,1373.676 	"/>
	<g>
		<polygon fill="#231F20" points="15,1416.432 0.725,1430.707 -0.707,1429.275 13.568,1415 -0.707,1400.725 0.725,1399.293 
			15,1413.568 29.275,1399.293 30.707,1400.725 16.432,1415 30.707,1429.275 29.275,1430.707 		"/>
		<path fill="#FFFFFF" d="M29.275,1400l0.725,0.725L15.725,1415L30,1429.275L29.275,1430L15,1415.725L0.725,1430L0,1429.275
			L14.275,1415L0,1400.725L0.725,1400L15,1414.275L29.275,1400 M29.275,1398.586l-0.707,0.707L15,1412.861l-13.568-13.568
			l-0.707-0.707l-0.707,0.707l-0.725,0.725l-0.708,0.707l0.708,0.707L12.861,1415l-13.568,13.568l-0.708,0.707l0.708,0.707
			l0.725,0.725l0.707,0.707l0.707-0.707L15,1417.139l13.568,13.568l0.707,0.707l0.707-0.707l0.725-0.725l0.707-0.707l-0.707-0.707
			L17.139,1415l13.568-13.568l0.707-0.707l-0.707-0.707l-0.725-0.725L29.275,1398.586L29.275,1398.586z"/>
	</g>
	<g>
		<polygon fill="#CCCCCC" points="30,2100.725 29.275,2100 15,2114.275 0.725,2100 0,2100.725 14.275,2115 0,2129.275 0.725,2130 
			15,2115.725 29.275,2130 30,2129.275 15.725,2115 		"/>
	</g>
</g>
<g id="forward_-_white">
	<rect y="800" display="none" fill="#E51D9B" width="30" height="30"/>
	<polygon fill="#FFFFFF" points="10.66,820 15.658,814.999 10.66,810 10,810.66 14.338,814.999 10,819.34 	"/>
</g>
<g id="minimise">
	<g>
		<rect x="10" y="765" width="10" height="1"/>
		<rect x="10" y="765" width="10" height="1"/>
	</g>
</g>
<g id="minimise_-_white">
	<rect y="700" display="none" fill="#E51D9B" width="30" height="30"/>
	<g>
		<rect x="10" y="714.438" fill="#FFFFFF" width="10" height="1"/>
		<rect x="10" y="714.438" fill="#FFFFFF" width="10" height="1"/>
	</g>
</g>
<g id="maximise">
	<g>
		<rect x="10" y="664.498" width="10" height="1"/>
		<rect x="10" y="664.498" width="10" height="1"/>
		<rect x="14.501" y="660" width="1" height="10"/>
	</g>
</g>
<g id="maximise_grey">
	<g>
		<rect x="10" y="614.498" fill="#666666" width="10" height="1"/>
		<rect x="10" y="614.498" fill="#666666" width="10" height="1"/>
		<rect x="14.501" y="610" fill="#666666" width="1" height="10"/>
	</g>
</g>
<g id="maximise_-_white">
	<rect y="550" display="none" fill="#E51D9B" width="30" height="30"/>
	<g>
		<rect x="9.998" y="564.389" fill="#FFFFFF" width="10" height="1"/>
		<rect x="9.998" y="564.389" fill="#FFFFFF" width="10" height="1"/>
		<rect x="14.499" y="559.891" fill="#FFFFFF" width="1" height="10"/>
	</g>
</g>
<g id="my_account_-_default">
	<rect y="500" display="none" fill="#202020" width="30" height="30"/>
	<g>
		<path fill="#FFFFFF" d="M19.093,512.126c0,1.643-0.772,2.94-1.565,4.019c-0.794,1.076-1.556,2.819-2.766,2.819
			c-1.135,0-1.858-1.533-2.635-2.495c-0.881-1.089-1.79-2.6-1.79-4.343c0-1.517,0.419-2.902,1.109-3.953
			c0.801-1.224,1.966-1.996,3.269-1.996c1.376,0,2.604,0.862,3.405,2.214c0.015,0.024,0.029,0.046,0.043,0.069
			C18.744,509.47,19.093,510.742,19.093,512.126z"/>
		<path fill="#FFFFFF" stroke="#FFFFFF" stroke-linecap="round" stroke-linejoin="round" stroke-miterlimit="10" d="M16.096,515.897
			c0,0-0.24,1.002,1.207,2.634c1.598,1.808,3.74,2.359,4.897,2.359c1.159,0,2.234,2.3,2.362,3.286H4.996
			c0.127-0.986,1.205-3.286,2.36-3.286c1.158,0,3.444-0.443,4.898-2.359c1.384-1.816,1.204-2.634,1.204-2.634H16.096z"/>
	</g>
</g>
<g id="my_account_-_menu">
	<rect y="449.986" display="none" fill="#EFEFEF" width="30" height="30"/>
	<g>
		<path d="M19.093,462.112c0,1.643-0.772,2.94-1.565,4.019c-0.794,1.076-1.556,2.819-2.766,2.819c-1.135,0-1.858-1.533-2.635-2.495
			c-0.881-1.089-1.79-2.6-1.79-4.343c0-1.517,0.419-2.902,1.109-3.953c0.801-1.224,1.966-1.996,3.269-1.996
			c1.376,0,2.604,0.862,3.405,2.214c0.015,0.024,0.029,0.046,0.043,0.069C18.744,459.456,19.093,460.729,19.093,462.112z"/>
		<path stroke="#000000" stroke-linecap="round" stroke-linejoin="round" stroke-miterlimit="10" d="M16.096,465.884
			c0,0-0.24,1.002,1.207,2.634c1.598,1.808,3.74,2.359,4.897,2.359c1.159,0,2.234,2.3,2.362,3.286H4.996
			c0.127-0.986,1.205-3.286,2.36-3.286c1.158,0,3.444-0.443,4.898-2.359c1.384-1.816,1.204-2.634,1.204-2.634H16.096z"/>
	</g>
</g>
<g id="my_account_-_logged_in">
	<rect y="400" display="none" fill="#EFEFEF" width="30" height="30"/>
	<g>
		<path fill="#E51D9B" d="M19.093,412.126c0,1.643-0.772,2.94-1.565,4.019c-0.794,1.076-1.556,2.819-2.766,2.819
			c-1.135,0-1.858-1.533-2.635-2.495c-0.881-1.089-1.79-2.6-1.79-4.343c0-1.517,0.419-2.902,1.109-3.953
			c0.801-1.224,1.966-1.996,3.269-1.996c1.376,0,2.604,0.862,3.405,2.214c0.015,0.024,0.029,0.046,0.043,0.069
			C18.744,409.47,19.093,410.742,19.093,412.126z"/>
		<path fill="#E51D9B" stroke="#E51D9B" stroke-linecap="round" stroke-linejoin="round" stroke-miterlimit="10" d="M16.096,415.897
			c0,0-0.24,1.002,1.207,2.634c1.598,1.808,3.74,2.359,4.897,2.359c1.159,0,2.234,2.3,2.362,3.286H4.996
			c0.127-0.986,1.205-3.286,2.36-3.286c1.158,0,3.444-0.442,4.898-2.359c1.384-1.816,1.204-2.634,1.204-2.634H16.096z"/>
	</g>
</g>
<g id="my_account_-_soft_logged_in">
	<rect y="350" display="none" fill="#EFEFEF" width="30" height="30"/>
	<g>
		<path fill="#F5A5D7" d="M19.093,362.126c0,1.643-0.772,2.94-1.565,4.019c-0.794,1.076-1.556,2.819-2.766,2.819
			c-1.135,0-1.858-1.533-2.635-2.495c-0.881-1.089-1.79-2.6-1.79-4.343c0-1.517,0.419-2.902,1.109-3.953
			c0.801-1.224,1.966-1.996,3.269-1.996c1.376,0,2.604,0.862,3.405,2.214c0.015,0.024,0.029,0.046,0.043,0.069
			C18.744,359.47,19.093,360.743,19.093,362.126z"/>
		<path fill="#F5A5D7" stroke="#F5A5D7" stroke-linecap="round" stroke-linejoin="round" stroke-miterlimit="10" d="M16.096,365.897
			c0,0-0.24,1.002,1.207,2.634c1.598,1.808,3.74,2.359,4.897,2.359c1.159,0,2.234,2.3,2.362,3.286H4.996
			c0.127-0.986,1.205-3.286,2.36-3.286c1.158,0,3.444-0.442,4.898-2.359c1.384-1.816,1.204-2.634,1.204-2.634H16.096z"/>
	</g>
</g>
<g id="bag_-_empty">
	<rect y="300" display="none" fill-rule="evenodd" clip-rule="evenodd" fill="#202020" width="30" height="30"/>
	<g>
		<g>
			<path fill-rule="evenodd" clip-rule="evenodd" fill="#FFFFFF" d="M21.665,311.568h-1.63c0,0-0.023-5.583-4.889-5.568
				c-4.834,0.013-4.887,5.568-4.887,5.568H8.629L7,324h16.09L21.665,311.568z M11.889,311.568c0,0-0.023-3.96,3.258-3.978
				c3.261-0.018,3.26,3.978,3.26,3.978H11.889z"/>
		</g>
	</g>
	<g>
		<path d="M12.615,317.39c0-1.08,0.219-1.959,0.656-2.641c0.438-0.68,1.053-1.02,1.846-1.02c0.785,0,1.375,0.283,1.771,0.852
			c0.395,0.567,0.593,1.558,0.593,2.974c0,1.216-0.207,2.174-0.621,2.872c-0.413,0.699-1.019,1.049-1.814,1.049
			s-1.401-0.281-1.813-0.846C12.82,320.066,12.615,318.985,12.615,317.39z M13.641,317.482c0,2.08,0.443,3.121,1.332,3.121
			c0.51,0,0.885-0.231,1.123-0.69c0.239-0.462,0.359-1.271,0.359-2.426c0-0.796-0.047-1.381-0.139-1.754s-0.24-0.654-0.446-0.846
			c-0.205-0.191-0.465-0.286-0.778-0.286C14.124,314.602,13.641,315.562,13.641,317.482z"/>
	</g>
</g>
<g id="bag">
	<rect y="250" display="none" fill-rule="evenodd" clip-rule="evenodd" fill="#202020" width="30" height="30"/>
	<g>
		<g>
			<path fill-rule="evenodd" clip-rule="evenodd" fill="#E51D9B" d="M21.62,261.472h-1.63c0,0-0.023-5.582-4.888-5.568
				c-4.835,0.012-4.887,5.568-4.887,5.568h-1.63l-1.629,12.432h16.091L21.62,261.472z M11.843,261.472c0,0-0.023-3.96,3.259-3.978
				c3.26-0.018,3.259,3.978,3.259,3.978H11.843z"/>
		</g>
	</g>
</g>
<g id="bin">
	<g>
		<g>
			<path fill-rule="evenodd" clip-rule="evenodd" fill="#666666" d="M10.985,222.046h7.72l1.701-12.147H9.192L10.985,222.046z
				 M16.607,210.832h1.184v8.411h-1.184V210.832z M11.871,210.832h1.183v8.411h-1.183V210.832z M17.807,206.845
				c-0.271-0.974-1.041-2.805-3.008-2.799c-1.955,0.006-2.73,1.828-3.005,2.799H9.192v1.868h11.214v-1.868H17.807z M12.813,206.845
				c0.224-0.737,0.771-1.901,2.006-1.909c1.227-0.007,1.815,1.167,2.064,1.909H12.813z"/>
		</g>
	</g>
</g>
<g id="bin_-_selected">
	<g>
		<g>
			<path fill-rule="evenodd" clip-rule="evenodd" fill="#E51D9B" d="M17.807,158.753c-0.271-0.974-1.041-2.805-3.008-2.799
				c-1.955,0.006-2.73,1.828-3.005,2.799H9.192v1.868h11.214v-1.868H17.807z M12.813,158.753c0.224-0.737,0.771-1.901,2.006-1.909
				c1.227-0.007,1.815,1.167,2.064,1.909H12.813z M10.985,173.954h7.72l1.701-12.147H9.192L10.985,173.954z M16.607,162.74h1.184
				v8.411h-1.184V162.74z M11.871,162.74h1.183v8.411h-1.183V162.74z"/>
		</g>
	</g>
</g>
<g id="search">
	<g>
		<path d="M16.651,119.701c-4.053,0-7.35-3.298-7.35-7.351c0-4.054,3.297-7.351,7.35-7.351s7.35,3.297,7.35,7.351
			C24,116.403,20.704,119.701,16.651,119.701z M16.651,107.699c-2.564,0-4.65,2.087-4.65,4.651s2.086,4.65,4.65,4.65
			c2.564,0,4.65-2.086,4.65-4.65S19.215,107.699,16.651,107.699z"/>
		<path d="M7.35,123c-0.346,0-0.691-0.132-0.955-0.396c-0.527-0.527-0.526-1.382,0.001-1.909l3.901-3.899
			c0.527-0.527,1.383-0.526,1.909,0.001c0.527,0.527,0.526,1.382-0.001,1.91l-3.901,3.898C8.041,122.869,7.695,123,7.35,123z"/>
	</g>
	<g>
		<g>
			<path fill-rule="evenodd" clip-rule="evenodd" fill="#202020" d="M21.574,1159.568h-1.629c0,0-0.023-5.583-4.889-5.568
				c-4.836,0.013-4.889,5.568-4.889,5.568H8.539L6.91,1172H23L21.574,1159.568z M11.797,1159.568c0,0-0.021-3.961,3.26-3.978
				c3.26-0.018,3.26,3.978,3.26,3.978H11.797z"/>
		</g>
	</g>
	<g>
		<path fill="#FFFFFF" d="M12.523,1165.39c0-1.08,0.221-1.959,0.658-2.641c0.436-0.68,1.051-1.02,1.844-1.02
			c0.787,0,1.377,0.283,1.771,0.852c0.395,0.566,0.592,1.558,0.592,2.974c0,1.216-0.205,2.173-0.619,2.872s-1.02,1.049-1.816,1.049
			c-0.795,0-1.4-0.281-1.811-0.846C12.729,1168.065,12.523,1166.985,12.523,1165.39z M13.549,1165.482
			c0,2.08,0.443,3.121,1.334,3.121c0.508,0,0.883-0.231,1.121-0.692c0.24-0.46,0.361-1.269,0.361-2.424
			c0-0.796-0.047-1.381-0.141-1.754c-0.09-0.373-0.24-0.654-0.445-0.846s-0.465-0.286-0.779-0.286
			C14.033,1162.602,13.549,1163.562,13.549,1165.482z"/>
	</g>
	<path d="M6,1463.351c0-4.054,3.297-7.351,7.35-7.351s7.35,3.297,7.35,7.351c0,4.053-3.297,7.351-7.35,7.351S6,1467.403,6,1463.351z
		 M8.699,1463.351c0,2.564,2.086,4.65,4.65,4.65c2.563,0,4.649-2.086,4.649-4.65c0-2.565-2.086-4.651-4.649-4.651
		C10.785,1458.699,8.699,1460.785,8.699,1463.351z"/>
	<path d="M22.65,1474c0.346,0,0.691-0.132,0.955-0.396c0.527-0.527,0.526-1.382-0.001-1.909l-3.901-3.899
		c-0.527-0.527-1.383-0.526-1.91,0.001c-0.526,0.527-0.525,1.383,0.002,1.91l3.9,3.898C21.959,1473.869,22.305,1474,22.65,1474z"/>
	<g>
		<path fill="#231F20" d="M6,1762.35c0-4.051,3.296-7.35,7.35-7.35s7.35,3.299,7.35,7.35c0,4.052-3.297,7.351-7.35,7.351
			S6,1766.401,6,1762.35 M8.698,1762.35c0,2.571,2.087,4.651,4.651,4.651c2.565,0,4.651-2.08,4.651-4.651
			c0-2.561-2.086-4.65-4.651-4.65C10.785,1757.699,8.698,1759.789,8.698,1762.35z"/>
		<path fill="#231F20" d="M22.651,1773.001c0.346,0,0.691-0.131,0.955-0.4c0.525-0.52,0.525-1.381-0.002-1.9l-3.901-3.9
			c-0.527-0.529-1.383-0.529-1.91,0c-0.527,0.521-0.525,1.381,0.002,1.91l3.9,3.9C21.959,1772.87,22.305,1773.001,22.651,1773.001"
			/>
	</g>
	<g>
		<path fill="#FFFFFF" d="M8.698,1762.35c0,2.57,2.086,4.65,4.651,4.65s4.65-2.08,4.65-4.65c0-2.561-2.086-4.65-4.65-4.65
			S8.698,1759.789,8.698,1762.35z"/>
	</g>
	<rect x="10.349" y="1762.049" width="6" height="0.6"/>
	<rect x="10.349" y="1762.049" width="6" height="0.6"/>
	<polyline points="13.65,1759.35 13.65,1765.35 13.05,1765.35 13.049,1759.35 13.65,1759.35 	"/>
	<g>
		<path fill="#231F20" d="M6,1812.35c0-4.051,3.296-7.35,7.349-7.35c4.054,0,7.351,3.299,7.351,7.35s-3.297,7.35-7.351,7.35
			C9.296,1819.699,6,1816.4,6,1812.35 M8.698,1812.35c0,2.57,2.087,4.65,4.65,4.65c2.564,0,4.65-2.08,4.65-4.65
			c0-2.561-2.086-4.65-4.65-4.65C10.785,1807.699,8.698,1809.789,8.698,1812.35z"/>
		<path fill="#231F20" d="M22.65,1823c0.345,0,0.69-0.131,0.954-0.4c0.526-0.52,0.526-1.381-0.001-1.9l-3.9-3.9
			c-0.528-0.529-1.383-0.529-1.91,0c-0.527,0.521-0.526,1.381,0.001,1.91l3.901,3.9C21.958,1822.869,22.304,1823,22.65,1823"/>
	</g>
	<g>
		<path fill="#FFFFFF" d="M8.699,1812.35c0,2.57,2.087,4.65,4.65,4.65c2.564,0,4.65-2.08,4.65-4.65c0-2.561-2.086-4.65-4.65-4.65
			C10.786,1807.699,8.699,1809.789,8.699,1812.35z"/>
	</g>
	<rect x="10.35" y="1812" width="6" height="0.6"/>
	<g>
		<rect x="8.222" y="2207" fill="#202020" width="19.555" height="1.798"/>
		<rect x="8.222" y="2214.191" fill="#202020" width="19.555" height="1.796"/>
		<rect x="8.222" y="2221.201" fill="#202020" width="19.555" height="1.799"/>
	</g>
	<g>
		<rect x="5" y="2207" fill="#202020" width="1.556" height="1.798"/>
		<rect x="5" y="2214.191" fill="#202020" width="1.556" height="1.796"/>
		<rect x="5" y="2221.201" fill="#202020" width="1.556" height="1.799"/>
	</g>
</g>
<g id="dept_x2F_brand_icons_-_default">
	<rect y="50" display="none" fill="#202020" width="30" height="30"/>
	<g>
		<rect x="5" y="55" fill="#FFFFFF" width="22" height="1.999"/>
		<rect x="5" y="63.001" fill="#FFFFFF" width="22" height="2"/>
		<rect x="5" y="70.999" fill="#FFFFFF" width="22" height="2.002"/>
	</g>
</g>
<g id="dept_x2F_brand_icons_-selected">
	<rect display="none" fill="#EFEFEF" width="30" height="30"/>
	<g>
		<rect x="5" y="5" fill="#202020" width="22" height="2.022"/>
		<rect x="5" y="13.09" fill="#202020" width="22" height="2.021"/>
		<rect x="5" y="20.977" fill="#202020" width="22" height="2.023"/>
	</g>
	<g>
		<rect y="1500.019" fill="#EEEEEE" width="30" height="30.001"/>
		<path d="M18.165,1526.754v-9.817H15.57v-3.537h2.595c0,0,0-1.443,0-3.017c0-2.374,1.536-4.547,5.064-4.547
			c1.429,0,2.487,0.138,2.487,0.138l-0.083,3.296c0,0-1.074-0.009-2.257-0.009c-1.272,0-1.478,0.586-1.478,1.561
			c0,0.77,0-1.643,0,2.578h3.838l-0.172,3.537h-3.666v9.817H18.165z"/>
	</g>
	<g>
		<rect y="1550" fill="#EEEEEE" width="30" height="30.001"/>
		<path d="M24.708,1559.631c-0.691,0.311-1.438,0.521-2.216,0.607c0.796-0.473,1.407-1.232,1.696-2.136
			c-0.745,0.441-1.573,0.762-2.454,0.938c-0.703-0.75-1.706-1.219-2.816-1.219c-2.135,0-3.864,1.729-3.864,3.859
			c0,0.307,0.033,0.602,0.102,0.883c-3.21-0.16-6.056-1.701-7.962-4.034c-0.331,0.568-0.521,1.235-0.521,1.94
			c0,1.342,0.681,2.52,1.716,3.217c-0.632-0.021-1.229-0.194-1.745-0.487c-0.003,0.019-0.003,0.031-0.003,0.053
			c0,1.869,1.332,3.429,3.101,3.782c-0.327,0.091-0.667,0.14-1.018,0.14c-0.25,0-0.495-0.024-0.731-0.076
			c0.496,1.541,1.918,2.658,3.61,2.687c-1.32,1.033-2.986,1.649-4.797,1.649c-0.311,0-0.618-0.013-0.923-0.053
			c1.711,1.101,3.741,1.739,5.919,1.739c7.104,0,10.989-5.884,10.989-10.989c0-0.164-0.004-0.337-0.008-0.501
			C23.534,1561.091,24.189,1560.408,24.708,1559.631z"/>
	</g>
	<rect x="0.068" y="1600" fill="#EEEEEE" width="29.932" height="29.9"/>
	<polygon id="_x2B__6_" points="19.96,1605.083 22.093,1605.083 22.093,1610.063 27.101,1610.063 27.101,1612.152 22.093,1612.152 
		22.093,1617.185 19.96,1617.185 19.96,1612.152 14.964,1612.152 14.964,1610.063 19.96,1610.063 	"/>
	<path d="M11.328,1622.192l-1.413-1.105c-0.438-0.359-1.023-0.828-1.023-1.697c0-0.863,0.586-1.418,1.102-1.936
		c1.652-1.297,3.194-2.678,3.194-5.599c0-2.667-1.447-4.162-2.411-4.995c0.326,0,2.414,0,2.414,0l2.205-1.777H7.079
		c-2.056,0.034-4.518,0.345-6.766,2.199c-0.101,0.088-0.213,0.196-0.313,0.293v9.609c1.074,0.896,2.538,1.576,4.325,1.576
		c0.399,0,0.827-0.044,1.26-0.084c-0.195,0.477-0.39,0.874-0.39,1.543c0,1.221,0.624,1.973,1.177,2.678
		c-1.498,0.106-4.593-0.148-6.372,1.274v2.271c0.806-1.106,2.106-1.598,2.679-1.81c1.646-0.548,3.779-0.624,4.133-0.624
		c0.387,0,0.586,0,0.901,0.036c2.989,2.132,5.134,3.225,5.155,5.239c0.006,0.392-0.109,0.519-0.168,0.717h2.31
		c0.235-0.554,0.313-1.214,0.313-1.941C15.322,1625.34,13.061,1623.65,11.328,1622.192z M6.313,1617.185
		c-3.386,0-4.775-3.907-4.775-6.55c0-1.028,0.102-2.095,0.772-2.917c0.634-0.789,1.729-1.305,2.752-1.305
		c3.271,0,4.913,4.416,4.913,7.257c0,0.571-0.292,1.683-1.025,2.525C8.304,1616.935,7.293,1617.185,6.313,1617.185z"/>
	<rect y="1650" fill="#EEEEEE" width="30" height="30.001"/>
	<g>
		<path d="M15.243,1655.894c-5.216,0-9.442,4.226-9.442,9.44c0,3.867,2.323,7.188,5.65,8.647c-0.028-0.658-0.003-1.452,0.165-2.168
			c0.184-0.767,1.216-5.146,1.216-5.146s-0.302-0.6-0.302-1.491c0-1.396,0.808-2.445,1.82-2.445c0.858,0,1.273,0.644,1.273,1.417
			c0,0.865-0.549,2.156-0.833,3.354c-0.236,0.996,0.504,1.816,1.493,1.816c1.787,0,2.99-2.297,2.99-5.021
			c0-2.069-1.393-3.618-3.927-3.618c-2.862,0-4.645,2.135-4.645,4.52c0,0.824,0.24,1.404,0.621,1.854
			c0.173,0.204,0.199,0.291,0.135,0.531c-0.043,0.166-0.148,0.59-0.19,0.75c-0.063,0.242-0.257,0.327-0.476,0.236
			c-1.319-0.538-1.934-1.979-1.934-3.606c0-2.678,2.267-5.9,6.751-5.9c3.602,0,5.976,2.612,5.976,5.413
			c0,3.702-2.06,6.472-5.096,6.472c-1.023,0-1.978-0.552-2.305-1.18c0,0-0.551,2.176-0.666,2.596
			c-0.2,0.731-0.592,1.459-0.951,2.025c0.85,0.248,1.749,0.382,2.677,0.382c5.214,0,9.44-4.224,9.44-9.438
			S20.457,1655.894,15.243,1655.894z"/>
	</g>
	<rect y="1699.999" fill="#EEEEEE" width="30" height="30.001"/>
	<g>
		<path fill="#EEEEEE" stroke="#000000" stroke-width="1.5" stroke-miterlimit="10" d="M24.806,1720.92
			c0,0.372-0.301,0.683-0.679,0.683H6.268c-0.374,0-0.679-0.311-0.679-0.683v-11.883c0-0.381,0.305-0.679,0.679-0.679h17.859
			c0.378,0,0.679,0.298,0.679,0.679V1720.92z"/>
	</g>
	
		<line fill="#FFFFFF" stroke="#000000" stroke-width="0.75" stroke-miterlimit="10" x1="17.21" y1="1713.811" x2="24.755" y2="1721.383"/>
	
		<line fill="#FFFFFF" stroke="#000000" stroke-width="0.75" stroke-miterlimit="10" x1="13.301" y1="1714.225" x2="5.754" y2="1721.803"/>
	<path fill="#FFFFFF" stroke="#000000" stroke-width="1.0328" stroke-miterlimit="10" d="M13.381,1713.949"/>
	
		<polyline fill="#EEEEEE" stroke="#000000" stroke-width="0.75" stroke-linecap="round" stroke-linejoin="round" stroke-miterlimit="10" points="
		24.758,1708.912 15.309,1715.217 15.256,1715.217 5.75,1708.912 	"/>
</g>
<g id="search_white">
	<g>
		<path fill="#FFFFFF" d="M16.651,2270.701c-4.053,0-7.35-3.298-7.35-7.351c0-4.054,3.297-7.351,7.35-7.351
			c4.053,0,7.35,3.297,7.35,7.351C24,2267.403,20.704,2270.701,16.651,2270.701z M16.651,2258.699c-2.564,0-4.65,2.087-4.65,4.651
			s2.086,4.65,4.65,4.65c2.564,0,4.65-2.086,4.65-4.65S19.215,2258.699,16.651,2258.699z"/>
		<path fill="#FFFFFF" d="M7.35,2274c-0.346,0-0.691-0.132-0.955-0.396c-0.527-0.527-0.526-1.382,0.001-1.909l3.901-3.899
			c0.527-0.527,1.383-0.526,1.909,0.001c0.527,0.527,0.526,1.382-0.001,1.91l-3.901,3.898C8.041,2273.869,7.695,2274,7.35,2274z"/>
	</g>
	<g>
		<path fill="#000100" d="M7.519,2455.076l-2.368-1.312l-0.131,0.237l15.119,8.372v5.944h0.27v-6.025
			c0-0.049-0.026-0.094-0.069-0.117l-5.276-2.923"/>
		<path fill="#000100" d="M14.648,2459.023l-6.734-3.729"/>
		<path fill="#000100" d="M25.71,2450.933c-0.028,0-0.059,0.002-1.149,0.074l-19.144,1.281c-1.085,0.07-1.106,0.07-1.126,0.07
			c-0.161,0-0.323,0.028-0.476,0.092c-0.486,0.197-0.814,0.66-0.814,1.186v15.884c0,0.479,0.265,0.918,0.69,1.141l15.734,8.26
			c0.188,0.099,0.393,0.147,0.597,0.147c0.232,0,0.463-0.063,0.668-0.186c0.385-0.233,0.621-0.652,0.621-1.104v-7.521
			c0.865-0.164,2.272-0.434,4.643-0.887c0.606-0.115,1.047-0.647,1.047-1.266v-15.884c0-0.356-0.148-0.697-0.411-0.943
			C26.35,2451.057,26.037,2450.933,25.71,2450.933z M25.928,2451.961v16.208h0.001l-5.803,1.11v8.76l-16.056-8.428v-16.209
			l0.019,0.021"/>
	</g>
	<path fill="#000100" d="M27.394,2324.375c-1.129-2.982-3.044-3.678-4.587-3.953c-1.283-0.232-2.887-0.709-3.453-1.021
		c-0.021-0.26-0.03-0.783,0.022-1.639c0.03-0.037,0.062-0.064,0.094-0.104l-0.017-0.014c0.76-1.018,1.124-1.977,1.288-2.625
		c0.492-0.346,1.006-1.02,1.307-2.328c0.177-0.754,0.31-1.709-0.234-2.393c-0.014-0.016-0.025-0.031-0.039-0.049
		c0.487-4.789-2.586-7.211-4.391-7.842l-0.024-0.008l-0.026-0.006c-0.678-0.205-1.332-0.311-1.94-0.311
		c-0.142,0-0.279,0.008-0.407,0.018c-0.134-0.012-0.268-0.018-0.407-0.018c-0.61,0-1.263,0.104-1.941,0.311l-0.025,0.008
		l-0.026,0.006c-1.804,0.631-4.874,3.053-4.388,7.842c-0.017,0.018-0.026,0.033-0.042,0.049c-0.541,0.684-0.409,1.639-0.233,2.393
		c0.304,1.309,0.817,1.982,1.309,2.328c0.164,0.641,0.526,1.586,1.27,2.6l0,0c0.002,0.002,0.01,0.006,0.011,0.01
		c0.041,0.059,0.072,0.113,0.117,0.17c0.049,0.822,0.039,1.336,0.017,1.604c-0.568,0.311-2.169,0.787-3.451,1.02
		c-1.542,0.273-3.457,0.971-4.586,3.951c-0.192,0.508-0.123,1.057,0.188,1.508c1.159,1.682,7.277,2.035,12.205,2.035
		c4.926,0,11.045-0.354,12.205-2.035C27.518,2325.43,27.584,2324.881,27.394,2324.375z M10.294,2314.133
		c-0.152,0-0.793-0.1-1.168-1.719c-0.293-1.258,0.012-1.457,0.238-1.457c0.104,0,0.19,0.041,0.19,0.041
		c-1.115-5.832,3.436-7.42,3.436-7.42c0.63-0.189,1.153-0.256,1.588-0.256c0.145,0,0.282,0.004,0.407,0.02
		c0.125-0.016,0.26-0.02,0.407-0.02c0.433,0,0.961,0.066,1.588,0.256c0,0,4.551,1.588,3.435,7.42c0,0,0.089-0.041,0.191-0.041
		c0.227,0,0.532,0.199,0.239,1.457c-0.376,1.619-1.02,1.719-1.17,1.719c-0.021,0-0.032,0-0.032,0s-0.081,1.518-1.479,3.15
		c0,0.016-0.002,0.029-0.002,0.045c-1.085,1.105-2.197,1.641-3.307,1.6c-1.383-0.059-2.479-1.004-3.019-1.574
		c-0.001-0.008-0.001-0.023-0.001-0.023c-1.428-1.66-1.512-3.197-1.512-3.197S10.313,2314.133,10.294,2314.133z M15.001,2326.68
		c-5.854,0-11.711-0.623-11.24-1.869c0.946-2.486,2.445-2.957,3.649-3.172c1.202-0.213,4.116-0.943,4.375-1.631
		c0.078-0.207,0.104-0.59,0.11-1.021c0.735,0.549,1.721,1.07,2.9,1.123c0.068,0.002,0.132,0.004,0.194,0.004
		c1.071,0,2.109-0.395,3.114-1.16c0.006,0.445,0.032,0.844,0.11,1.055c0.259,0.688,3.174,1.416,4.377,1.631
		c1.202,0.215,2.703,0.686,3.646,3.172C26.71,2326.057,20.854,2326.68,15.001,2326.68z"/>
	<g id="Your_Icon_5_">
		<g>
			<path fill="none" stroke="#000100" stroke-miterlimit="10" d="M28.034,2406.298h-13.84H1.967c-0.967,0-0.967,1.065-0.967,1.065
				v1.42h28v-1.42C29,2407.363,29,2406.298,28.034,2406.298z"/>
			<path fill="none" stroke="#000100" stroke-miterlimit="10" d="M1,2422.636c0,0,0,1.066,0.967,1.066h26.067
				c0.966,0,0.966-1.066,0.966-1.066v-11.011H1V2422.636z"/>
		</g>
		<rect x="1" y="2408.783" fill="#000100" stroke="#000100" stroke-miterlimit="10" width="28" height="2.842"/>
	</g>
	<g>
		<path fill="none" stroke="#000100" stroke-miterlimit="10" d="M21.582,2357.5v12.697h-9.424c-0.168-1.195-1.179-2.111-2.409-2.111
			s-2.241,0.916-2.409,2.111H4.525V2357.5H21.582z"/>
		<path fill="#221E20" d="M9.687,2369.295c0.872,0,1.582,0.717,1.582,1.604c0,0.879-0.71,1.602-1.582,1.602
			c-0.875,0-1.583-0.723-1.583-1.602C8.104,2370.012,8.812,2369.295,9.687,2369.295z"/>
		<path fill="#000100" d="M26.444,2369.295c0.874,0,1.582,0.717,1.582,1.604c0,0.879-0.708,1.602-1.582,1.602
			c-0.873,0-1.584-0.723-1.584-1.602C24.86,2370.012,25.571,2369.295,26.444,2369.295z"/>
		<rect y="2359.621" fill="#000100" width="3.479" height="0.707"/>
		<rect y="2363.143" fill="#000100" width="3.479" height="0.707"/>
		<rect y="2366.678" fill="#000100" width="3.479" height="0.705"/>
		<path fill="none" stroke="#000100" stroke-width="0.3" stroke-miterlimit="10" d="M28.666,2364.23h-4.29v-2.176h2.622
			c1.399,0,1.668,0.758,1.668,1.695V2364.23z"/>
		<path fill="none" stroke="#000100" stroke-miterlimit="10" d="M27.562,2361.031h-4.52v9.166h1.066
			c0.164-1.195,1.186-2.111,2.412-2.111c1.229,0,2.235,0.916,2.411,2.111H30v-6.701C30,2362.135,28.909,2361.031,27.562,2361.031z"
			/>
	</g>
	<g>
		<circle fill="#BCBEC0" cx="15" cy="2515" r="8.5"/>
		<g>
			<path fill="#FFFFFF" stroke="#EFEFEF" stroke-miterlimit="10" d="M10.777,2519.158l-0.3-0.299l3.821-3.82l-3.836-3.834l0.33-0.33
				l3.836,3.832l3.82-3.818l0.299,0.299l-3.821,3.82l3.836,3.836l-0.331,0.33l-3.835-3.836L10.777,2519.158z"/>
		</g>
	</g>
</g>
</svg>
