<?xml version="1.0" encoding="utf-8"?>
<!-- Generator: Adobe Illustrator 16.0.0, SVG Export Plug-In . SVG Version: 6.00 Build 0)  -->
<!DOCTYPE svg PUBLIC "-//W3C//DTD SVG 1.1//EN" "http://www.w3.org/Graphics/SVG/1.1/DTD/svg11.dtd">
<svg version="1.1" id="Layer_1" xmlns="http://www.w3.org/2000/svg" xmlns:xlink="http://www.w3.org/1999/xlink" x="0px" y="0px"
	 width="133.933px" height="536.783px" viewBox="316.667 0 133.933 536.783" enable-background="new 316.667 0 133.933 536.783"
	 xml:space="preserve">
<circle fill="#F6F6F6" cx="383.633" cy="201.133" r="66.967"/>
<circle fill="#FF00A6" cx="383.633" cy="335.3" r="66.967"/>
<circle fill="#F6F6F6" cx="383.633" cy="469.816" r="66.967"/>
<circle fill="#F6F6F6" cx="383.633" cy="66.967" r="66.967"/>
<g>
	<path d="M348.283,87.85c0-9.042,0-18.083,0-27.125c6.767,0,13.534,0,20.417,0c-2.917,8.4-1.342,15.458,5.775,20.767
		c5.425,4.025,13.183,4.142,18.667,0.233c7.408-5.25,9.042-12.425,6.125-20.883c6.533,0,13.008,0,19.483,0
		c0.117,0.292,0.175,0.525,0.175,0.758c0,7.992,0.292,16.042-0.058,24.033c-0.467,10.208-7.992,16.917-18.258,16.917
		c-11.434,0-22.925,0-34.358,0c-5.133,0-9.508-1.808-13.125-5.483C350.559,94.441,349.333,91.175,348.283,87.85z"/>
	<path d="M364.033,31.441c13.008,0,25.958,0,38.967,0c0.233,0.117,0.525,0.292,0.758,0.35c8.633,1.108,17.033,8.983,14.934,22.342
		c-0.35,0.058-0.7,0.117-1.05,0.117c-7.583,0-15.167,0.059-22.75-0.059c-0.875,0-1.808-0.408-2.625-0.875
		c-5.6-2.975-11.142-3.033-16.683,0.059c-0.758,0.408-1.575,0.816-2.392,0.816c-8.284,0.059-16.625,0-24.909-0.058
		c0-2.625,0-5.25,0-7.875c0.175-0.408,0.35-0.817,0.467-1.225c1.867-6.825,6.242-11.142,13.067-13.066
		C362.517,31.85,363.275,31.617,364.033,31.441z M403.35,40.542c-4.842,0-4.842,0-4.842,4.842c0,4.9,0,4.9,4.842,4.9
		c4.9,0,4.9,0,4.9-4.9C408.309,40.542,408.309,40.542,403.35,40.542z"/>
	<path d="M383.867,74.783c-3.908,0-6.883-3.033-6.942-6.941c-0.058-3.908,3.15-7.117,7.059-7.059c3.85,0,6.941,3.092,6.941,6.942
		C390.983,71.75,387.833,74.842,383.867,74.783z"/>
</g>
<g>
	<path fill="#FF00A6" d="M348.575,222.017c0-9.042,0-18.083,0-27.125c6.767,0,13.533,0,20.417,0
		c-2.917,8.4-1.342,15.458,5.775,20.767c5.425,4.025,13.184,4.142,18.667,0.233c7.408-5.25,9.042-12.425,6.125-20.883
		c6.533,0,13.008,0,19.483,0c0.117,0.292,0.175,0.525,0.175,0.758c0,7.992,0.292,16.042-0.059,24.033
		c-0.466,10.208-7.992,16.917-18.258,16.917c-11.433,0-22.925,0-34.358,0c-5.133,0-9.508-1.809-13.125-5.483
		C350.85,228.608,349.625,225.342,348.575,222.017z"/>
	<path fill="#FF00A6" d="M364.325,165.608c13.008,0,25.958,0,38.966,0c0.233,0.117,0.525,0.292,0.758,0.35
		c8.634,1.108,17.033,8.983,14.934,22.341c-0.35,0.059-0.7,0.117-1.05,0.117c-7.583,0-15.167,0.059-22.75-0.058
		c-0.875,0-1.809-0.408-2.625-0.875c-5.6-2.975-11.142-3.033-16.684,0.058c-0.758,0.409-1.575,0.817-2.392,0.817
		c-8.283,0.058-16.625,0-24.908-0.059c0-2.625,0-5.25,0-7.875c0.175-0.408,0.35-0.816,0.466-1.225
		c1.867-6.825,6.242-11.142,13.067-13.067C362.809,166.017,363.567,165.783,364.325,165.608z M403.642,174.708
		c-4.842,0-4.842,0-4.842,4.841c0,4.9,0,4.9,4.842,4.9c4.9,0,4.9,0,4.9-4.9C408.542,174.708,408.542,174.708,403.642,174.708z"/>
	<path fill="#FF00A6" d="M384.158,208.95c-3.908,0-6.883-3.034-6.941-6.942c-0.059-3.908,3.15-7.117,7.058-7.058
		c3.85,0,6.942,3.091,6.942,6.941C391.217,205.917,388.125,209.008,384.158,208.95z"/>
</g>
<g>
	<path fill="#FFFFFF" d="M348.283,356.184c0-9.042,0-18.084,0-27.125c6.767,0,13.534,0,20.417,0
		c-2.917,8.399-1.342,15.458,5.775,20.767c5.425,4.024,13.183,4.142,18.667,0.233c7.408-5.25,9.042-12.426,6.125-20.884
		c6.533,0,13.008,0,19.483,0c0.117,0.292,0.175,0.525,0.175,0.759c0,7.991,0.292,16.041-0.058,24.033
		c-0.467,10.208-7.992,16.916-18.258,16.916c-11.434,0-22.925,0-34.358,0c-5.133,0-9.508-1.808-13.125-5.482
		C350.559,362.775,349.333,359.508,348.283,356.184z"/>
	<path fill="#FFFFFF" d="M364.033,299.775c13.008,0,25.958,0,38.967,0c0.233,0.116,0.525,0.291,0.758,0.35
		c8.633,1.108,17.033,8.983,14.934,22.342c-0.35,0.059-0.7,0.116-1.05,0.116c-7.583,0-15.167,0.059-22.75-0.058
		c-0.875,0-1.808-0.409-2.625-0.875c-5.6-2.976-11.142-3.034-16.683,0.058c-0.758,0.408-1.575,0.817-2.392,0.817
		c-8.284,0.058-16.625,0-24.909-0.059c0-2.625,0-5.25,0-7.875c0.175-0.408,0.35-0.816,0.467-1.225
		c1.867-6.825,6.242-11.143,13.067-13.067C362.517,300.184,363.275,299.95,364.033,299.775z M403.35,308.875
		c-4.842,0-4.842,0-4.842,4.842c0,4.899,0,4.899,4.842,4.899c4.9,0,4.9,0,4.9-4.899C408.25,308.875,408.25,308.875,403.35,308.875z"
		/>
	<path fill="#FFFFFF" d="M383.867,343.116c-3.908,0-6.883-3.033-6.942-6.941c-0.058-3.908,3.15-7.116,7.059-7.059
		c3.85,0,6.941,3.092,6.941,6.942C390.925,340.083,387.833,343.175,383.867,343.116z"/>
</g>
<g>
	<path fill="#AAAAAA" d="M348.867,490.7c0-9.042,0-18.084,0-27.125c6.767,0,13.533,0,20.417,0
		c-2.917,8.399-1.341,15.458,5.775,20.767c5.425,4.024,13.183,4.142,18.667,0.233c7.408-5.25,9.042-12.425,6.125-20.884
		c6.533,0,13.008,0,19.483,0c0.117,0.292,0.175,0.525,0.175,0.759c0,7.991,0.292,16.041-0.058,24.033
		c-0.467,10.208-7.992,16.917-18.258,16.917c-11.434,0-22.925,0-34.358,0c-5.133,0-9.508-1.809-13.125-5.483
		C351.142,497.292,349.917,494.025,348.867,490.7z"/>
	<path fill="#AAAAAA" d="M364.617,434.292c13.008,0,25.958,0,38.967,0c0.233,0.116,0.525,0.291,0.758,0.35
		c8.633,1.108,17.033,8.983,14.933,22.342c-0.35,0.059-0.7,0.116-1.05,0.116c-7.583,0-15.167,0.059-22.75-0.058
		c-0.875,0-1.809-0.409-2.625-0.875c-5.6-2.976-11.142-3.034-16.684,0.058c-0.758,0.408-1.575,0.817-2.392,0.817
		c-8.283,0.058-16.625,0-24.908-0.059c0-2.625,0-5.25,0-7.875c0.175-0.408,0.35-0.816,0.467-1.225
		c1.867-6.825,6.242-11.142,13.066-13.067C363.1,434.7,363.858,434.467,364.617,434.292z M403.934,443.392
		c-4.842,0-4.842,0-4.842,4.842c0,4.899,0,4.899,4.842,4.899c4.9,0,4.9,0,4.9-4.899
		C408.833,443.392,408.833,443.392,403.934,443.392z"/>
	<path fill="#AAAAAA" d="M384.45,477.691c-3.909,0-6.883-3.033-6.942-6.941c-0.058-3.908,3.15-7.117,7.059-7.059
		c3.85,0,6.941,3.092,6.941,6.942C391.508,474.6,388.417,477.691,384.45,477.691z"/>
</g>
</svg>
