<svg xmlns="http://www.w3.org/2000/svg" xmlns:xlink="http://www.w3.org/1999/xlink" version="1.1" id="Layer_1" x="0px" y="0px" width="31.792px" height="11.316px" viewBox="319.467 4.434 31.792 11.316" enable-background="new 319.467 4.434 31.792 11.316" xml:space="preserve"><g><path fill="#666666" d="M350.033 8.867h0.059 0.058l0.059-0.058c0 0 0-0.059-0.059-0.059h-0.058 -0.059V8.867M350.033 9.217h-0.117V8.691h0.233c0.059 0 0.117 0 0.117 0.059 0.059 0.059 0.059 0.059 0.059 0.117s-0.059 0.117-0.117 0.117l0.117 0.233h-0.117l-0.059-0.233h-0.117V9.217zM350.092 9.392c0.233 0 0.467-0.233 0.467-0.467 0-0.292-0.233-0.466-0.467-0.466s-0.467 0.233-0.467 0.466C349.625 9.217 349.858 9.392 350.092 9.392zM349.508 8.925c0-0.35 0.292-0.642 0.583-0.642 0.35 0 0.583 0.292 0.583 0.642 0 0.35-0.292 0.642-0.583 0.642C349.8 9.566 349.508 9.275 349.508 8.925z"/><path fill="#666666" d="M340.934 4.725l-0.117 1.108c-0.35-0.175-0.642-0.292-0.875-0.292 -0.758 0-1.284 0.758-1.284 1.809 0 0.758 0.35 1.167 0.934 1.167 0.233 0 0.525-0.058 0.875-0.233l-0.175 1.108c-0.35 0.117-0.583 0.117-0.875 0.117 -1.05 0-1.75-0.817-1.75-2.1 0-1.75 0.934-2.975 2.275-2.975 0.175 0 0.35 0 0.466 0.058l0.292 0.175C340.817 4.725 340.875 4.725 340.934 4.725"/><path fill="#666666" d="M337.667 5.483c-0.058 0-0.058 0-0.117 0 -0.35 0-0.525 0.175-0.816 0.642l0.117-0.583h-0.934l-0.642 3.967h0.992c0.35-2.45 0.467-2.858 0.934-2.858 0.058 0 0.058 0 0.058 0C337.375 6.184 337.492 5.833 337.667 5.483L337.667 5.483"/><path fill="#666666" d="M331.658 9.45c-0.292 0.116-0.466 0.116-0.7 0.116 -0.525 0-0.817-0.292-0.817-0.875 0-0.116 0-0.233 0-0.35l0.059-0.408 0.058-0.292 0.408-2.742h0.992l-0.117 0.583h0.525l-0.117 0.992h-0.525l-0.233 1.691c0 0.059 0 0.117 0 0.175 0 0.233 0.117 0.292 0.35 0.292 0.117 0 0.175 0 0.292-0.058L331.658 9.45"/><path fill="#666666" d="M327.692 6.767c0 0.525 0.233 0.875 0.758 1.108 0.408 0.175 0.466 0.233 0.466 0.467s-0.175 0.35-0.583 0.35c-0.292 0-0.583-0.058-0.875-0.175l-0.117 0.934h0.058l0.175 0.058c0.058 0 0.175 0 0.233 0.058 0.233 0 0.408 0.059 0.525 0.059 1.05 0 1.517-0.408 1.517-1.342 0-0.525-0.175-0.875-0.7-1.108 -0.408-0.175-0.466-0.233-0.466-0.408 0-0.233 0.175-0.35 0.466-0.35 0.175 0 0.467 0 0.7 0.059l0.233-0.992c-0.233-0.059-0.642-0.059-0.875-0.059C328.1 5.425 327.692 6.066 327.692 6.767"/><path fill="#666666" d="M347.467 8.575c0.467 0 0.816-0.583 0.816-1.342 0-0.525-0.175-0.758-0.525-0.758 -0.467 0-0.758 0.583-0.758 1.341C346.942 8.283 347.117 8.575 347.467 8.575M348.925 9.508h-0.933L348.05 9.1c-0.292 0.292-0.583 0.466-0.933 0.466 -0.758 0-1.225-0.642-1.225-1.633 0-1.342 0.758-2.45 1.633-2.45 0.409 0 0.7 0.175 0.934 0.525l0.233-1.4h0.992L348.925 9.508z"/><path fill="#666666" d="M334.283 7.059c0-0.059 0-0.175 0-0.175 0-0.35-0.175-0.525-0.466-0.525 -0.292 0-0.525 0.233-0.642 0.7H334.283M334.809 9.392c-0.35 0.117-0.7 0.175-1.05 0.175 -1.108 0-1.691-0.642-1.691-1.808 0-1.4 0.758-2.392 1.75-2.392 0.816 0 1.341 0.583 1.341 1.458 0 0.292-0.058 0.583-0.117 0.991h-1.983c0 0.059 0 0.117 0 0.117 0 0.466 0.292 0.7 0.875 0.7 0.35 0 0.7-0.058 1.05-0.233L334.809 9.392z"/><polyline fill="#666666" points="323.725,9.508 322.675,9.508 323.258,5.717 321.975,9.508 321.333,9.508 321.217,5.775    320.633,9.508 319.7,9.508 320.458,4.608 321.917,4.608 321.975,7.642 322.908,4.608 324.483,4.608 323.725,9.508  "/><path fill="#666666" d="M326.992 9.508h-0.817V9.1c-0.233 0.35-0.583 0.466-1.05 0.466 -0.525 0-0.933-0.466-0.933-1.108 0-0.992 0.642-1.517 1.75-1.517 0.117 0 0.233 0 0.408 0.059 0.058-0.117 0.058-0.175 0.058-0.233 0-0.292-0.175-0.35-0.642-0.35 -0.292 0-0.583 0.059-0.816 0.117h-0.117 -0.117l0.117-0.875c0.525-0.175 0.816-0.233 1.225-0.233 0.875 0 1.341 0.409 1.341 1.167 0 0.175 0 0.35-0.058 0.816l-0.233 1.4 -0.059 0.233v0.175 0.117L326.992 9.508M326.292 7.7c-0.117 0-0.175 0-0.233 0 -0.583 0-0.875 0.233-0.875 0.583 0 0.233 0.116 0.408 0.35 0.408C325.942 8.75 326.233 8.342 326.292 7.7z"/><path fill="#666666" d="M343.383 9.508h-0.816V9.1c-0.233 0.35-0.583 0.466-1.05 0.466 -0.525 0-0.933-0.466-0.933-1.108 0-0.992 0.642-1.517 1.75-1.517 0.117 0 0.233 0 0.408 0.059 0.058-0.117 0.058-0.175 0.058-0.233 0-0.292-0.175-0.35-0.642-0.35 -0.292 0-0.583 0.059-0.816 0.117l-0.117 0.059h-0.059l0.117-0.875c0.525-0.175 0.817-0.233 1.167-0.233 0.875 0 1.341 0.408 1.341 1.167 0 0.175 0 0.35-0.058 0.817L343.5 8.809l-0.058 0.233v0.175 0.117L343.383 9.508M342.684 7.7c-0.117 0-0.175 0-0.233 0 -0.583 0-0.875 0.233-0.875 0.583 0 0.233 0.117 0.408 0.35 0.408C342.392 8.75 342.684 8.342 342.684 7.7z"/><path fill="#666666" d="M346.184 5.483c-0.059 0-0.059 0-0.117 0 -0.35 0-0.525 0.175-0.817 0.642l0.117-0.583h-0.933l-0.583 3.967h0.992c0.35-2.45 0.467-2.858 0.933-2.858 0.059 0 0.059 0 0.059 0C345.95 6.184 346.067 5.833 346.184 5.483L346.184 5.483"/><path fill="#B3B3B3" d="M342.975 13.417c0-0.992-0.525-1.808-1.458-1.808 -1.05 0-1.75 0.933-1.75 2.333 0 0.992 0.408 1.809 1.458 1.809C342.217 15.809 342.975 15.05 342.975 13.417M341.983 13.358c0 0.933-0.292 1.458-0.7 1.458 -0.35 0-0.525-0.35-0.525-0.875 0-0.642 0.292-1.341 0.758-1.341C341.867 12.542 341.983 12.95 341.983 13.358z"/><path fill="#B3B3B3" d="M340.117 10.908l-0.175 1.05c-0.35-0.175-0.583-0.292-0.817-0.292 -0.7 0-1.167 0.758-1.167 1.867 0 0.758 0.35 1.225 0.875 1.225 0.233 0 0.466-0.058 0.816-0.233l-0.233 1.05c-0.35 0.116-0.583 0.116-0.816 0.116 -0.992 0-1.633-0.816-1.633-2.1 0-1.75 0.875-2.975 2.1-2.975 0.175 0 0.292 0 0.408 0.058l0.408 0.117C340 10.85 340 10.85 340.117 10.908"/><path fill="#B3B3B3" d="M333.934 11.608c0 0-0.059 0-0.117 0 -0.292 0-0.467 0.175-0.758 0.642l0.058-0.583H332.3l-0.583 3.967h0.933c0.35-2.45 0.409-2.858 0.875-2.858h0.059C333.7 12.309 333.817 11.958 333.934 11.608L333.934 11.608"/><path fill="#B3B3B3" d="M344.725 14.642c0.467 0 0.758-0.583 0.758-1.342 0-0.525-0.175-0.758-0.467-0.758 -0.408 0-0.7 0.583-0.7 1.342C344.258 14.408 344.434 14.642 344.725 14.642M346.125 15.633h-0.875l0.059-0.408c-0.233 0.292-0.525 0.466-0.875 0.466 -0.7 0-1.108-0.642-1.108-1.633 0-1.342 0.7-2.45 1.517-2.45 0.35 0 0.642 0.175 0.875 0.525l0.233-1.4h0.933L346.125 15.633z"/><path fill="#B3B3B3" d="M324.658 13.242c0-0.058 0-0.175 0-0.175 0-0.35-0.175-0.525-0.466-0.525 -0.292 0-0.525 0.233-0.583 0.7H324.658M325.184 15.575c-0.35 0.116-0.642 0.175-0.992 0.175 -1.05 0-1.575-0.642-1.575-1.809 0-1.341 0.7-2.392 1.633-2.392 0.758 0 1.283 0.583 1.283 1.458 0 0.292-0.058 0.583-0.117 0.992h-1.867c0 0.059 0 0.117 0 0.117 0 0.467 0.292 0.7 0.817 0.7 0.35 0 0.642-0.058 0.992-0.233L325.184 15.575z"/><path fill="#B3B3B3" d="M335.742 13.242c0-0.058 0-0.175 0-0.175 0-0.35-0.175-0.525-0.467-0.525 -0.292 0-0.525 0.233-0.583 0.7H335.742M336.267 15.575c-0.292 0.116-0.642 0.175-0.933 0.175 -1.05 0-1.575-0.642-1.575-1.809 0-1.341 0.7-2.392 1.633-2.392 0.758 0 1.283 0.583 1.283 1.458 0 0.292-0.058 0.583-0.116 0.992h-1.867c0 0.059 0 0.117 0 0.117 0 0.467 0.292 0.7 0.816 0.7 0.35 0 0.642-0.058 0.992-0.233L336.267 15.575z"/><path fill="#B3B3B3" d="M348.809 13.242c0-0.058 0-0.175 0-0.175 0-0.35-0.175-0.525-0.467-0.525 -0.292 0-0.525 0.233-0.583 0.7H348.809M349.333 15.575c-0.35 0.116-0.642 0.175-0.934 0.175 -1.05 0-1.575-0.642-1.575-1.809 0-1.341 0.7-2.392 1.633-2.392 0.758 0 1.283 0.583 1.283 1.458 0 0.292-0.058 0.583-0.117 0.992h-1.867c0 0.059 0 0.117 0 0.117 0 0.467 0.292 0.7 0.817 0.7 0.35 0 0.642-0.058 0.992-0.233L349.333 15.575z"/><path fill="#B3B3B3" d="M322.383 11.783c-0.175-0.117-0.408-0.233-0.758-0.233s-0.7 0.059-0.7 0.467c0 0.7 1.4 0.467 1.4 1.983 0 1.4-0.934 1.75-1.75 1.75 -0.35 0-0.758-0.117-1.108-0.233l0.233-0.992c0.175 0.175 0.583 0.292 0.875 0.292 0.292 0 0.758-0.058 0.758-0.583 0-0.817-1.4-0.525-1.4-1.925 0-1.284 0.816-1.692 1.575-1.692 0.408 0 0.875 0.058 1.108 0.233L322.383 11.783"/><path fill="#B3B3B3" d="M327.925 15.575c-0.175 0.116-0.466 0.175-0.816 0.175 -0.817 0-1.342-0.816-1.342-1.809 0-1.283 0.758-2.333 1.809-2.333 0.233 0 0.583 0.117 0.875 0.292l-0.233 0.934c-0.175-0.117-0.408-0.233-0.642-0.233 -0.525 0-0.875 0.466-0.875 1.283 0 0.467 0.233 0.875 0.642 0.875 0.233 0 0.408-0.058 0.642-0.175L327.925 15.575"/><path fill="#B3B3B3" d="M331.425 14.583c-0.058 0.35-0.116 0.7-0.116 1.05h-0.875l0.058-0.642 0 0c-0.292 0.467-0.583 0.758-1.108 0.758 -0.583 0-0.875-0.583-0.875-1.342 0-0.292 0-0.408 0.059-0.816l0.233-1.867h0.992l-0.292 1.867c0 0.175-0.058 0.408-0.058 0.583 0 0.233 0.117 0.467 0.35 0.467 0.409 0 0.642-0.525 0.7-1.108l0.292-1.808h1.05L331.425 14.583"/><polyline fill="#B3B3B3" points="350.267,15.575 350.092,15.575 350.092,14.934 349.858,14.934 349.858,14.758 350.442,14.758    350.442,14.934 350.267,14.934 350.267,15.575  "/><polyline fill="#B3B3B3" points="351.258,15.575 351.083,15.575 351.083,14.934 351.083,14.934 350.967,15.575 350.792,15.575    350.675,14.934 350.675,14.934 350.675,15.575 350.559,15.575 350.559,14.758 350.733,14.758 350.908,15.4 350.908,15.4    351.025,14.758 351.258,14.758 351.258,15.575  "/></g></svg>