<?xml version="1.0" encoding="utf-8"?>
<!-- Generator: Adobe Illustrator 18.0.0, SVG Export Plug-In . SVG Version: 6.00 Build 0)  -->
<!DOCTYPE svg PUBLIC "-//W3C//DTD SVG 1.1//EN" "http://www.w3.org/Graphics/SVG/1.1/DTD/svg11.dtd">
<svg version="1.1" id="Layer_1" xmlns="http://www.w3.org/2000/svg" xmlns:xlink="http://www.w3.org/1999/xlink" x="0px" y="0px"
	 viewBox="0 0 230 230" enable-background="new 0 0 230 230" xml:space="preserve">
<circle fill="#F6F6F6" cx="115" cy="115" r="115"/>
<g>
	<path d="M99,160.5c-0.7,1.6-1.3,3.2-2.1,4.6c-3.5,6.4-9,9.5-16.2,9.2c-8-0.4-13.2-4.8-15.9-12.2c-0.5-1.3-1-1.8-2.4-1.9
		c-6.6-0.5-12.3-6.8-12.3-13.5c0-25.9,0-51.8,0-77.7c0-7.6,6.4-13.5,14.4-13.5c9.8-0.1,19.5,0,29.3,0c8.4,0,16.8,0.2,25.2,0
		c9.7-0.2,15.8,7.9,15.1,15.2c-0.2,1.8,0,3.7,0,5.7c2.2,0,4.2,0,6.1,0c5.7,0,11.3,0,17,0c3.6,0,6.1,1.4,8,4.4
		c7.6,11.6,15.2,23.1,22.9,34.7c1.3,2,2.1,4.2,2,6.6c0,8.1,0,16.3,0,24.4c0,7.1-5.7,13.3-12.8,13.8c-1.2,0.1-1.7,0.6-2,1.7
		c-3.9,11.4-16.5,15.9-26.6,9.5c-3.6-2.3-5.7-5.7-7-9.6c-0.3-0.8-0.4-1.4-1.5-1.4c-13.6,0-27.2,0-40.8,0
		C99.1,160.5,99,160.5,99,160.5z M172.2,111.4c-0.2-0.3-0.2-0.6-0.3-0.8c-4.2-6.4-8.4-12.8-12.6-19.1c-0.3-0.5-1.2-0.9-1.8-0.9
		c-2.9-0.1-5.8,0-8.8,0c-2.5,0-5,0-7.6,0c0,7.1,0,14,0,20.8C151.5,111.4,161.7,111.4,172.2,111.4z M74.5,156.9c0,4.1,2.8,7,7,7
		c4.1,0,7-2.9,7-7c0-4-2.8-6.8-6.9-6.9C77.5,149.9,74.5,152.8,74.5,156.9z M165.4,157c0-4.1-2.9-7-7-7c-4.1,0-7,2.9-7,7
		c0,4,2.8,6.8,6.9,6.9C162.5,164,165.4,161.1,165.4,157z"/>
</g>
</svg>
