<?xml version="1.0" encoding="utf-8"?>
<!-- Generator: Adobe Illustrator 18.0.0, SVG Export Plug-In . SVG Version: 6.00 Build 0)  -->
<!DOCTYPE svg PUBLIC "-//W3C//DTD SVG 1.1//EN" "http://www.w3.org/Graphics/SVG/1.1/DTD/svg11.dtd">
<svg version="1.1" id="Layer_1" xmlns="http://www.w3.org/2000/svg" xmlns:xlink="http://www.w3.org/1999/xlink" x="0px" y="0px"
	 viewBox="0 0 230 230" enable-background="new 0 0 230 230" xml:space="preserve">
<circle fill="#F6F6F6" cx="115" cy="115" r="115"/>
<g>
	<path d="M77.8,73.1L66,66.6l-0.7,1.2l75.2,41.7V139h1.3v-30c0-0.2-0.1-0.5-0.3-0.6l-26.3-14.5"/>
	<path d="M113.2,92.8L79.7,74.2"/>
	<path d="M168.3,52.5c-0.1,0-0.3,0-5.7,0.4l-95.3,6.4c-5.4,0.4-5.5,0.3-5.6,0.3c-0.8,0-1.6,0.1-2.4,0.5c-2.4,1-4.1,3.3-4.1,5.9v79
		c0,2.4,1.3,4.6,3.4,5.7l78.3,41.1c0.9,0.5,2,0.7,3,0.7c1.2,0,2.3-0.3,3.3-0.9c1.9-1.2,3.1-3.2,3.1-5.5v-37.4
		c4.3-0.8,11.3-2.2,23.1-4.4c3-0.6,5.2-3.2,5.2-6.3v-79c0-1.8-0.7-3.5-2-4.7C171.5,53.1,169.9,52.5,168.3,52.5z M169.4,57.6v80.7h0
		l-28.9,5.5v43.6l-79.9-41.9V64.8l0.1,0.1"/>
</g>
</svg>
