<?xml version="1.0" encoding="utf-8"?>
<!-- Generator: Adobe Illustrator 18.0.0, SVG Export Plug-In . SVG Version: 6.00 Build 0)  -->
<!DOCTYPE svg PUBLIC "-//W3C//DTD SVG 1.1//EN" "http://www.w3.org/Graphics/SVG/1.1/DTD/svg11.dtd">
<svg version="1.1" id="Layer_1" xmlns="http://www.w3.org/2000/svg" xmlns:xlink="http://www.w3.org/1999/xlink" x="0px" y="0px"
	 viewBox="0 0 230 230" enable-background="new 0 0 230 230" xml:space="preserve">
<circle fill="#F6F6F6" cx="115" cy="115" r="115"/>
<path d="M115.4,42.5c17.8,0,29.1,12.3,31.3,18c2.7,7,2.9,14.8,2,20.1c-1.1,6.6-2.7,16.8-3.1,20c-0.8,6.5-2.7,8.6-4.1,11
	c-1.3,2.2-5.3,8.2-7.6,11c0,3.7,0,19.5,0,19.5s37.6,15.6,39.2,17.3c1.5,1.6,3.4,5.2,1.7,6.9s-31.1,21.2-59.5,21.2
	S56.6,167.7,55,166.2c-1.7-1.6,2.2-5.7,2.2-5.7l39.6-18.4c0,0,0-16.4,0-19.5c-2.3-2.3-6.5-9.2-7.4-10.9c-1.4-2.7-3.4-5.6-4.2-11.1
	c-0.6-4.4-2.4-15.9-3.2-20c-0.6-3.5-1.4-13.1,1.4-20.1C86.5,52.8,96.6,42.5,115.4,42.5z"/>
</svg>
