<?xml version="1.0" encoding="UTF-8" standalone="no"?>
<!-- Generator: Adobe Illustrator 18.0.0, SVG Export Plug-In . SVG Version: 6.00 Build 0)  -->

<svg
   xmlns:dc="http://purl.org/dc/elements/1.1/"
   xmlns:cc="http://creativecommons.org/ns#"
   xmlns:rdf="http://www.w3.org/1999/02/22-rdf-syntax-ns#"
   xmlns:svg="http://www.w3.org/2000/svg"
   xmlns="http://www.w3.org/2000/svg"
   xmlns:sodipodi="http://sodipodi.sourceforge.net/DTD/sodipodi-0.dtd"
   xmlns:inkscape="http://www.inkscape.org/namespaces/inkscape"
   version="1.1"
   id="Layer_1"
   x="0px"
   y="0px"
   viewBox="0 0 120.99819 580"
   enable-background="new 0 0 560 960"
   xml:space="preserve"
   inkscape:version="0.48.5 r10040"
   width="20px"
   height="80px"
   sodipodi:docname="profile.svg"><metadata
   id="metadata3013"><rdf:RDF><cc:Work
       rdf:about=""><dc:format>image/svg+xml</dc:format><dc:type
         rdf:resource="http://purl.org/dc/dcmitype/StillImage" /></cc:Work></rdf:RDF></metadata><defs
   id="defs3011" /><sodipodi:namedview
   pagecolor="#ffffff"
   bordercolor="#666666"
   borderopacity="1"
   objecttolerance="10"
   gridtolerance="10"
   guidetolerance="10"
   inkscape:pageopacity="0"
   inkscape:pageshadow="2"
   inkscape:window-width="640"
   inkscape:window-height="480"
   id="namedview3009"
   showgrid="false"
   fit-margin-top="0"
   fit-margin-left="0"
   fit-margin-right="0"
   fit-margin-bottom="0"
   inkscape:zoom="0.24583333"
   inkscape:cx="280.0291"
   inkscape:cy="100"
   inkscape:window-x="0"
   inkscape:window-y="0"
   inkscape:window-maximized="0"
   inkscape:current-layer="Layer_1" />
<path
   d="m 60.829097,145 c 17.8,0 29.1,12.3 31.3,18 2.7,7 2.9,14.8 2,20.1 -1.1,6.6 -2.7,16.8 -3.1,20 -0.8,6.5 -2.7,8.6 -4.1,11 -1.3,2.2 -5.3,8.2 -7.6,11 0,3.7 0,19.5 0,19.5 0,0 37.600003,15.6 39.200003,17.3 1.5,1.6 3.4,5.2 1.7,6.9 -1.7,1.7 -31.100003,21.2 -59.500003,21.2 -28.4,0 -58.6,-19.8 -60.30000005,-21.3 C -1.270903,267.1 2.629097,263 2.629097,263 l 39.6,-18.4 c 0,0 0,-16.4 0,-19.5 -2.3,-2.3 -6.5,-9.2 -7.4,-10.9 -1.4,-2.7 -3.4,-5.6 -4.2,-11.1 -0.6,-4.4 -2.4,-15.9 -3.2,-20 -0.6,-3.5 -1.4,-13.1 1.4,-20.1 3.2,-7.7 13.3,-18 32,-18 z"
   id="path3001"
   inkscape:connector-curvature="0" />
<path
   d="m 60.829097,290 c 17.8,0 29.1,12.3 31.3,18 2.7,7 2.9,14.8 2,20.1 -1.1,6.6 -2.7,16.8 -3.1,20 -0.8,6.5 -2.7,8.6 -4.1,11 -1.3,2.2 -5.3,8.2 -7.6,11 0,3.7 0,19.5 0,19.5 0,0 37.600003,15.6 39.200003,17.3 1.5,1.6 3.4,5.2 1.7,6.9 -1.7,1.7 -31.100003,21.2 -59.500003,21.2 -28.4,0 -58.6,-19.8 -60.30000005,-21.3 C -1.270903,412.1 2.629097,408 2.629097,408 l 39.6,-18.4 c 0,0 0,-16.4 0,-19.5 -2.3,-2.3 -6.5,-9.2 -7.4,-10.9 -1.4,-2.7 -3.4,-5.6 -4.2,-11.1 -0.6,-4.4 -2.4,-15.9 -3.2,-20 -0.6,-3.5 -1.4,-13.1 1.4,-20.1 3.2,-7.7 13.3,-18 32,-18 z"
   id="path3003"
   inkscape:connector-curvature="0"
   style="fill:#ff00a6" />
<path
   d="m 60.829097,435 c 17.8,0 29.1,12.3 31.3,18 2.7,7 2.9,14.8 2,20.1 -1.1,6.6 -2.7,16.8 -3.1,20 -0.8,6.5 -2.7,8.6 -4.1,11 -1.3,2.2 -5.3,8.2 -7.6,11 0,3.7 0,19.5 0,19.5 0,0 37.600003,15.6 39.200003,17.3 1.5,1.6 3.4,5.2 1.7,6.9 -1.7,1.7 -31.100003,21.2 -59.500003,21.2 -28.4,0 -58.6,-19.8 -60.30000005,-21.3 C -1.270903,557.1 2.629097,553 2.629097,553 l 39.6,-18.4 c 0,0 0,-16.4 0,-19.5 -2.3,-2.3 -6.5,-9.2 -7.4,-10.9 -1.4,-2.7 -3.4,-5.6 -4.2,-11.1 -0.6,-4.4 -2.4,-15.9 -3.2,-20 -0.6,-3.5 -1.4,-13.1 1.4,-20.1 3.2,-7.7 13.3,-18 32,-18 z"
   id="path3005"
   inkscape:connector-curvature="0"
   style="fill:#b3b3b3" />
<path
   d="m 60.829097,0 c 17.8,0 29.2,12.3 31.4,18 2.7,7 2.9,14.8 2,20.1 -1.1,6.6 -2.7,16.8 -3.1,20 -0.8,6.5 -2.7,8.6 -4.1,11 -1.3,2.2 -5.3,8.2 -7.6,11 0,3.7 0,19.5 0,19.5 0,0 37.600003,15.6 39.200003,17.3 1.5,1.6 3.4,5.2 1.7,6.9 -1.7,1.7 -31.100003,21.2 -59.500003,21.2 -28.4,0 -58.7,-19.8 -60.40000005,-21.3 C -1.270903,122.1 2.629097,118 2.629097,118 l 39.6,-18.4 c 0,0 0,-16.4 0,-19.5 -2.3,-2.3 -6.5,-9.2 -7.4,-10.9 -1.4,-2.7 -3.4,-5.6 -4.2,-11.1 -0.6,-4.4 -2.4,-15.9 -3.2,-20 -0.7,-3.5 -1.5,-13.1 1.4,-20.1 3.2,-7.7 13.3,-18 32,-18 z"
   id="path3007"
   inkscape:connector-curvature="0"
   style="fill:#ffffff" />
</svg>