<?xml version="1.0" encoding="UTF-8" standalone="no"?>
<!-- Generator: Adobe Illustrator 18.0.0, SVG Export Plug-In . SVG Version: 6.00 Build 0)  -->

<svg
   xmlns:dc="http://purl.org/dc/elements/1.1/"
   xmlns:cc="http://creativecommons.org/ns#"
   xmlns:rdf="http://www.w3.org/1999/02/22-rdf-syntax-ns#"
   xmlns:svg="http://www.w3.org/2000/svg"
   xmlns="http://www.w3.org/2000/svg"
   xmlns:sodipodi="http://sodipodi.sourceforge.net/DTD/sodipodi-0.dtd"
   xmlns:inkscape="http://www.inkscape.org/namespaces/inkscape"
   version="1.1"
   id="Layer_1"
   x="0px"
   y="0px"
   viewBox="0 0 150.5 599.5"
   enable-background="new 0 0 150.5 599.5"
   xml:space="preserve"
   width="20px"
   height="80px"
   inkscape:version="0.48.5 r10040"
   sodipodi:docname="search.svg"><metadata
   id="metadata3047"><rdf:RDF><cc:Work
       rdf:about=""><dc:format>image/svg+xml</dc:format><dc:type
         rdf:resource="http://purl.org/dc/dcmitype/StillImage" /></cc:Work></rdf:RDF></metadata><defs
   id="defs3045" /><sodipodi:namedview
   pagecolor="#ffffff"
   bordercolor="#666666"
   borderopacity="1"
   objecttolerance="10"
   gridtolerance="10"
   guidetolerance="10"
   inkscape:pageopacity="0"
   inkscape:pageshadow="2"
   inkscape:window-width="1440"
   inkscape:window-height="838"
   id="namedview3043"
   showgrid="false"
   inkscape:zoom="2.95"
   inkscape:cx="10"
   inkscape:cy="40"
   inkscape:window-x="-8"
   inkscape:window-y="-8"
   inkscape:window-maximized="1"
   inkscape:current-layer="Layer_1" />
<path
   d="M 2.0011899,127.76186 C 14.308508,115.41121 26.515766,103.06055 38.923144,90.810303 c 1.300773,-1.305354 1.400833,-2.108649 0.500297,-3.715239 -10.306128,-19.178663 -10.606306,-38.758974 0,-57.636402 21.212614,-37.9556796 71.342419,-40.16474 96.957649,-9.739949 17.81059,21.086488 18.91125,51.912926 2.50149,73.903122 -6.80405,9.137475 -15.40916,15.664245 -25.81535,19.881545 -9.90589,4.11689 -20.312077,5.12101 -31.018443,3.51442 -7.704581,-1.20495 -14.808806,-3.91607 -21.91303,-7.93254 C 46.827844,122.44004 33.419872,135.89522 20.111959,149.25 13.508032,142.62282 7.0041647,136.09605 0,129.16763 c 0.70041647,-0.40165 1.4008329,-0.80329 2.0011899,-1.40577 z M 54.532425,59.481805 C 55.232842,80.066235 71.842718,95.328836 91.554439,95.128012 113.06723,94.826777 128.27627,77.254703 127.77598,57.57398 127.27568,36.889139 110.36562,21.526126 90.854022,21.626538 69.841528,21.927773 53.832009,39.0982 54.532425,59.481805 z"
   id="path3035"
   inkscape:connector-curvature="0" />
<path
   d="M 2.1012494,278.26186 C 14.308508,265.91121 26.615826,253.56055 38.923144,241.3103 c 1.300773,-1.30535 1.400833,-2.10865 0.500297,-3.71524 -10.306128,-19.17866 -10.606306,-38.75897 0,-57.6364 21.212614,-37.95568 71.342419,-40.16474 96.957649,-9.73995 17.81059,21.08649 18.91125,51.91293 2.50149,73.90312 -6.80405,9.13748 -15.40916,15.66425 -25.81535,19.88155 -9.90589,4.11689 -20.312077,5.12101 -31.018443,3.51442 -7.704581,-1.20495 -14.808806,-3.91607 -21.91303,-7.93254 C 46.827844,272.94004 33.419872,286.39522 20.111959,299.75 13.508032,293.12282 7.0041647,286.59605 0,279.66763 c 0.80047597,-0.40165 1.5008924,-0.80329 2.1012494,-1.40577 z M 54.632485,209.98181 c 0.700416,20.58442 17.310293,35.84703 37.022013,35.6462 21.512792,-0.30123 36.721832,-17.87331 36.221542,-37.55403 -0.5003,-20.68484 -17.41036,-36.04785 -36.921958,-35.94744 -21.012494,0.30123 -37.022014,17.47166 -36.321597,37.85527 z"
   id="path3037"
   inkscape:connector-curvature="0"
   style="fill:#ff00a6" />
<path
   d="M 2.1012494,428.76186 C 14.308508,416.41121 26.615826,404.06055 38.923144,391.8103 c 1.300773,-1.30535 1.400833,-2.10865 0.500297,-3.71524 -10.306128,-19.17866 -10.606306,-38.75897 0,-57.6364 21.212614,-37.95568 71.342419,-40.16474 96.957649,-9.73995 17.81059,21.08649 18.91125,51.91293 2.50149,73.90312 -6.80405,9.13748 -15.40916,15.66425 -25.81535,19.88155 -9.90589,4.11689 -20.312077,5.12101 -31.018443,3.51442 -7.704581,-1.20495 -14.808806,-3.91607 -21.91303,-7.93254 C 46.827844,423.44004 33.419872,436.89522 20.111959,450.25 13.508032,443.62282 7.0041647,437.09605 0,430.16763 c 0.80047597,-0.40165 1.5008924,-0.80329 2.1012494,-1.40577 z M 54.632485,360.48181 c 0.700416,20.58442 17.310293,35.84703 37.022013,35.6462 21.512792,-0.30123 36.721832,-17.87331 36.221542,-37.55403 -0.5003,-20.68484 -17.41036,-36.04785 -36.921958,-35.94744 -21.012494,0.30123 -37.022014,17.47166 -36.321597,37.85527 z"
   id="path3039"
   inkscape:connector-curvature="0"
   style="fill:#ffffff" />
<path
   d="M 2.0011899,579.26186 C 14.308508,566.91121 26.515766,554.56055 38.923144,542.3103 c 1.300773,-1.30535 1.400833,-2.10865 0.500297,-3.71524 -10.306128,-19.17866 -10.606306,-38.75897 0,-57.6364 21.212614,-37.95568 71.342419,-40.16474 96.957649,-9.73995 17.81059,21.08649 18.91125,51.91293 2.50149,73.90312 -6.80405,9.13748 -15.40916,15.66425 -25.81535,19.88155 -9.90589,4.11689 -20.312077,5.12101 -31.018443,3.51442 -7.704581,-1.20495 -14.808806,-3.91607 -21.91303,-7.93254 C 46.827844,573.94004 33.419872,587.39522 20.111959,600.75 13.508032,594.12282 7.0041647,587.59605 0,580.66763 c 0.70041647,-0.40165 1.4008329,-0.80329 2.0011899,-1.40577 z M 54.532425,510.98181 c 0.700417,20.58442 17.310293,35.84703 37.022014,35.6462 21.512791,-0.30123 36.721831,-17.87331 36.221541,-37.55403 -0.5003,-20.68484 -17.41036,-36.04785 -36.921958,-35.94744 -21.012494,0.30123 -37.022013,17.47166 -36.321597,37.85527 z"
   id="path3041"
   inkscape:connector-curvature="0"
   style="fill:#aaaaaa" />
</svg>