<?xml version="1.0" encoding="utf-8"?>
<!-- Generator: Adobe Illustrator 16.0.0, SVG Export Plug-In . SVG Version: 6.00 Build 0)  -->
<!DOCTYPE svg PUBLIC "-//W3C//DTD SVG 1.1//EN" "http://www.w3.org/Graphics/SVG/1.1/DTD/svg11.dtd">
<svg version="1.1" id="Layer_1" xmlns="http://www.w3.org/2000/svg" xmlns:xlink="http://www.w3.org/1999/xlink" x="0px" y="0px"
	 width="133.933px" height="536.783px" viewBox="316.667 0 133.933 536.783" enable-background="new 316.667 0 133.933 536.783"
	 xml:space="preserve">
<circle fill="#F6F6F6" cx="383.633" cy="201.133" r="66.967"/>
<circle fill="#FF00A6" cx="383.633" cy="335.3" r="66.967"/>
<circle fill="#F6F6F6" cx="383.633" cy="469.816" r="66.967"/>
<circle fill="#F6F6F6" cx="383.633" cy="66.967" r="66.967"/>
<g>
	<path d="M347.292,86.392c0-1.75,0-3.5,0-5.191c0.409-4.083,0.642-8.225,1.167-12.309c0.816-6.533,3.908-9.625,10.441-9.683
		c16.567-0.175,33.192-0.175,49.758,0c6.534,0.058,9.742,3.15,10.442,9.625c0.525,4.608,0.875,9.216,0.816,13.825
		c-0.117,5.95-0.466,11.958-1.341,17.85c-0.642,4.434-3.85,6.942-8.167,7.292c-17.15,1.458-34.3,1.517-51.508,0.117
		c-7.175-0.583-9.625-3.033-10.558-10.208C347.934,93.975,347.642,90.184,347.292,86.392z M385.675,67.142
		c0,10.792,0,21.35,0,32.492c1.809-0.642,3.208-1.108,4.375-1.517c1.809,0.292,4.083,1.458,5.367,0.758
		c1.342-0.758,2.217-3.208,2.333-5.017c0.35-4.142,0.35-8.283,0.175-12.425c-0.233-6.767-2.275-7.875-8.4-4.608
		c0-3.267,0-6.417,0-9.684C388.242,67.142,387.075,67.142,385.675,67.142z M414.434,87.85c0-2.392,0.058-4.2,0-6.008
		c0-0.642-0.175-1.342-0.35-1.983c-0.817-3.208-3.034-5.017-6.242-4.958c-3.267,0.059-5.833,2.1-6.067,5.425
		c-0.292,4.433-0.35,8.866,0,13.3c0.292,4.2,3.675,6.475,7.758,5.6c3.733-0.758,5.542-4.142,4.375-8.225c-1.108,0-2.275,0-3.5,0
		c-0.175,0.758-0.175,1.458-0.466,2.042c-0.583,0.934-1.342,1.75-2.042,2.567c-0.7-0.875-1.808-1.692-2.042-2.684
		c-0.35-1.517-0.117-3.208-0.117-5.133C408.717,87.85,411.4,87.85,414.434,87.85z M377.158,75.425c0,5.6-0.058,11.083,0,16.567
		c0,1.925-0.7,3.325-2.566,3.441c-0.35,0-1.225-2.042-1.225-3.091c-0.117-5.542-0.058-11.142-0.058-16.858c-1.517,0-2.684,0-4.259,0
		c0,6.183-0.058,12.191,0,18.258c0,1.925-0.583,4.667,1.809,5.25c1.575,0.35,3.617-0.992,5.425-1.575
		c0.175-0.058,0.35,0,0.642-0.058c0.233,3.267,2.567,1.4,4.259,1.808c0-7.992,0-15.75,0-23.683
		C379.9,75.425,378.733,75.425,377.158,75.425z M362.925,99.108c0-9.217,0-18.375,0-27.825c1.983,0,3.559,0,5.134,0
		c0-1.575,0-2.858,0-4.025c-5.017,0-9.8,0-14.642,0c0,1.458,0,2.625,0,4.025c1.692,0.059,3.267,0.175,5.133,0.233
		c0,9.392,0,18.492,0,27.65C360.008,99.108,361.292,99.108,362.925,99.108z"/>
	<path d="M359.309,21.467c1.925,0,3.441,0,5.25,0c1.05,3.733,2.1,7.467,3.383,12.075c1.225-4.492,2.275-8.225,3.267-12.075
		c1.633,0,3.15,0,5.075,0c-3.033,10.733-7.7,21-5.542,32.55c-2.1,0-3.617,0-5.075,0c-0.408-5.6-0.233-11.142-1.283-16.508
		C363.392,32.2,361.175,27.066,359.309,21.467z"/>
	<path d="M405.567,54.133c-1.809-0.35-3.909,1.225-4.667-1.575c-0.175,0-0.408,0-0.525,0.058c-1.691,1.342-3.733,2.975-5.658,1.458
		c-1.167-0.934-1.692-3.325-1.75-5.017c-0.175-6.067-0.059-12.134-0.059-18.2c0-0.292,0.175-0.525,0.292-0.992
		c1.283,0,2.566,0,4.258,0c0,6.767,0,13.475,0,20.3c2.858-0.175,3.675-1.517,3.675-3.733c-0.058-5.483,0-10.967,0-16.567
		c1.575,0,2.858,0,4.375,0C405.567,37.858,405.567,45.792,405.567,54.133z"/>
	<path d="M376.283,41.825c0-2.042-0.117-4.025,0-6.067c0.233-3.792,2.625-6.183,6.184-6.358c3.792-0.117,6.358,1.75,6.65,5.659
		c0.35,4.608,0.35,9.216,0,13.825c-0.292,3.85-2.975,5.833-6.708,5.658c-3.558-0.175-5.892-2.566-6.125-6.417
		C376.225,46.083,376.283,43.925,376.283,41.825z M380.892,41.767L380.892,41.767c0,1.925-0.233,3.908,0.059,5.775
		c0.175,0.992,1.225,1.867,1.867,2.8c0.642-0.817,1.867-1.633,1.925-2.45c0.175-3.908,0.175-7.875-0.058-11.842
		c-0.059-0.816-1.284-1.517-1.983-2.275c-0.583,0.875-1.575,1.633-1.692,2.567C380.658,38.033,380.892,39.9,380.892,41.767z"/>
	<path d="M393.725,87.15c0,2.042,0.175,4.083-0.117,6.067c-0.117,0.875-1.225,1.575-1.925,2.392c-0.7-0.817-1.925-1.633-1.983-2.508
		c-0.233-3.967-0.175-7.934,0-11.9c0.058-0.817,1.108-1.634,1.691-2.45c0.758,0.758,2.042,1.458,2.217,2.333
		C393.958,83.066,393.725,85.167,393.725,87.15z"/>
	<path d="M405.275,84.175c0.583-1.983,0.992-3.616,1.633-5.017c0.175-0.292,2.1-0.292,2.275,0c0.642,1.517,0.933,3.15,1.4,5.017
		C408.658,84.175,407.434,84.175,405.275,84.175z"/>
</g>
<g>
	<path fill="#FF00A6" d="M347.292,220.792c0-1.75,0-3.5,0-5.191c0.409-4.083,0.642-8.225,1.167-12.309
		c0.816-6.533,3.908-9.625,10.441-9.683c16.567-0.175,33.192-0.175,49.758,0c6.534,0.058,9.742,3.15,10.442,9.625
		c0.525,4.608,0.875,9.217,0.816,13.825c-0.117,5.95-0.466,11.958-1.341,17.85c-0.642,4.434-3.85,6.942-8.167,7.292
		c-17.15,1.458-34.3,1.517-51.508,0.116c-7.175-0.583-9.625-3.033-10.558-10.208C347.934,228.375,347.642,224.583,347.292,220.792z
		 M385.675,201.542c0,10.792,0,21.35,0,32.492c1.809-0.642,3.208-1.108,4.375-1.517c1.809,0.292,4.083,1.458,5.367,0.758
		c1.342-0.758,2.217-3.208,2.333-5.017c0.35-4.142,0.35-8.283,0.175-12.425c-0.233-6.767-2.275-7.875-8.4-4.608
		c0-3.267,0-6.417,0-9.684C388.242,201.542,387.075,201.542,385.675,201.542z M414.434,222.25c0-2.392,0.058-4.2,0-6.008
		c0-0.642-0.175-1.342-0.35-1.983c-0.817-3.208-3.034-5.017-6.242-4.958c-3.267,0.059-5.833,2.1-6.067,5.425
		c-0.292,4.433-0.35,8.867,0,13.3c0.292,4.2,3.675,6.475,7.758,5.6c3.733-0.758,5.542-4.142,4.375-8.225c-1.108,0-2.275,0-3.5,0
		c-0.175,0.758-0.175,1.458-0.466,2.042c-0.583,0.934-1.342,1.75-2.042,2.567c-0.7-0.875-1.808-1.692-2.042-2.683
		c-0.35-1.517-0.117-3.208-0.117-5.134C408.717,222.25,411.4,222.25,414.434,222.25z M377.158,209.825c0,5.6-0.058,11.083,0,16.566
		c0,1.925-0.7,3.325-2.566,3.442c-0.35,0-1.225-2.042-1.225-3.092c-0.117-5.542-0.058-11.142-0.058-16.858c-1.517,0-2.684,0-4.259,0
		c0,6.184-0.058,12.192,0,18.258c0,1.925-0.583,4.667,1.809,5.25c1.575,0.35,3.617-0.992,5.425-1.575
		c0.175-0.058,0.35,0,0.642-0.058c0.233,3.267,2.567,1.4,4.259,1.808c0-7.991,0-15.75,0-23.683
		C379.9,209.825,378.733,209.825,377.158,209.825z M362.925,233.508c0-9.217,0-18.375,0-27.825c1.983,0,3.559,0,5.134,0
		c0-1.575,0-2.858,0-4.025c-5.017,0-9.8,0-14.642,0c0,1.458,0,2.625,0,4.025c1.692,0.059,3.267,0.175,5.133,0.233
		c0,9.392,0,18.492,0,27.65C360.008,233.508,361.292,233.508,362.925,233.508z"/>
	<path fill="#FF00A6" d="M359.309,155.867c1.925,0,3.441,0,5.25,0c1.05,3.733,2.1,7.467,3.383,12.075
		c1.225-4.492,2.275-8.225,3.267-12.075c1.633,0,3.15,0,5.075,0c-3.033,10.733-7.7,21-5.542,32.55c-2.1,0-3.617,0-5.075,0
		c-0.408-5.6-0.233-11.142-1.283-16.508C363.392,166.6,361.175,161.467,359.309,155.867z"/>
	<path fill="#FF00A6" d="M405.567,188.533c-1.809-0.35-3.909,1.225-4.667-1.575c-0.175,0-0.408,0-0.525,0.058
		c-1.691,1.342-3.733,2.975-5.658,1.458c-1.167-0.934-1.692-3.325-1.75-5.017c-0.175-6.067-0.059-12.133-0.059-18.2
		c0-0.292,0.175-0.525,0.292-0.992c1.283,0,2.566,0,4.258,0c0,6.767,0,13.475,0,20.3c2.858-0.175,3.675-1.517,3.675-3.733
		c-0.058-5.483,0-10.967,0-16.567c1.575,0,2.858,0,4.375,0C405.567,172.258,405.567,180.191,405.567,188.533z"/>
	<path fill="#FF00A6" d="M376.283,176.225c0-2.042-0.117-4.025,0-6.067c0.233-3.792,2.625-6.183,6.184-6.358
		c3.792-0.116,6.358,1.75,6.65,5.659c0.35,4.608,0.35,9.216,0,13.825c-0.292,3.85-2.975,5.833-6.708,5.659
		c-3.558-0.175-5.892-2.567-6.125-6.417C376.225,180.425,376.283,178.325,376.283,176.225z M380.892,176.167L380.892,176.167
		c0,1.925-0.233,3.909,0.059,5.775c0.175,0.992,1.225,1.867,1.867,2.8c0.642-0.817,1.867-1.633,1.925-2.45
		c0.175-3.908,0.175-7.875-0.058-11.841c-0.059-0.817-1.284-1.517-1.983-2.275c-0.583,0.875-1.575,1.633-1.692,2.567
		C380.658,172.434,380.892,174.3,380.892,176.167z"/>
	<path fill="#FF00A6" d="M393.725,221.55c0,2.042,0.175,4.083-0.117,6.067c-0.117,0.875-1.225,1.575-1.925,2.392
		c-0.7-0.817-1.925-1.633-1.983-2.508c-0.233-3.967-0.175-7.934,0-11.9c0.058-0.817,1.108-1.633,1.691-2.45
		c0.758,0.758,2.042,1.458,2.217,2.333C393.958,217.467,393.725,219.566,393.725,221.55z"/>
	<path fill="#FF00A6" d="M405.275,218.575c0.583-1.983,0.992-3.617,1.633-5.017c0.175-0.292,2.1-0.292,2.275,0
		c0.642,1.517,0.933,3.15,1.4,5.017C408.658,218.575,407.434,218.575,405.275,218.575z"/>
</g>
<g>
	<path fill="#FFFFFF" d="M347.292,354.725c0-1.75,0-3.5,0-5.191c0.409-4.083,0.642-8.225,1.167-12.309
		c0.816-6.533,3.908-9.625,10.441-9.683c16.567-0.176,33.192-0.176,49.758,0c6.534,0.058,9.742,3.149,10.442,9.625
		c0.525,4.608,0.875,9.216,0.816,13.824c-0.117,5.95-0.466,11.959-1.341,17.851c-0.642,4.434-3.85,6.941-8.167,7.291
		c-17.15,1.459-34.3,1.518-51.508,0.117c-7.175-0.583-9.625-3.033-10.558-10.208C347.934,362.309,347.642,358.517,347.292,354.725z
		 M385.675,335.475c0,10.792,0,21.351,0,32.492c1.809-0.642,3.208-1.108,4.375-1.517c1.809,0.291,4.083,1.458,5.367,0.758
		c1.342-0.758,2.217-3.208,2.333-5.017c0.35-4.142,0.35-8.283,0.175-12.425c-0.233-6.767-2.275-7.875-8.4-4.608
		c0-3.267,0-6.417,0-9.684C388.242,335.475,387.075,335.475,385.675,335.475z M414.434,356.184c0-2.392,0.058-4.2,0-6.009
		c0-0.642-0.175-1.342-0.35-1.983c-0.817-3.208-3.034-5.017-6.242-4.958c-3.267,0.059-5.833,2.1-6.067,5.425
		c-0.292,4.434-0.35,8.867,0,13.3c0.292,4.2,3.675,6.476,7.758,5.601c3.733-0.759,5.542-4.142,4.375-8.226c-1.108,0-2.275,0-3.5,0
		c-0.175,0.759-0.175,1.459-0.466,2.042c-0.583,0.934-1.342,1.75-2.042,2.566c-0.7-0.875-1.808-1.691-2.042-2.684
		c-0.35-1.517-0.117-3.208-0.117-5.133C408.717,356.184,411.4,356.184,414.434,356.184z M377.158,343.758
		c0,5.601-0.058,11.084,0,16.567c0,1.925-0.7,3.325-2.566,3.441c-0.35,0-1.225-2.042-1.225-3.092
		c-0.117-5.541-0.058-11.142-0.058-16.858c-1.517,0-2.684,0-4.259,0c0,6.184-0.058,12.192,0,18.259c0,1.925-0.583,4.666,1.809,5.25
		c1.575,0.35,3.617-0.992,5.425-1.575c0.175-0.059,0.35,0,0.642-0.059c0.233,3.267,2.567,1.4,4.259,1.809c0-7.992,0-15.75,0-23.684
		C379.9,343.758,378.733,343.758,377.158,343.758z M362.925,367.441c0-9.217,0-18.375,0-27.825c1.983,0,3.559,0,5.134,0
		c0-1.574,0-2.858,0-4.024c-5.017,0-9.8,0-14.642,0c0,1.458,0,2.625,0,4.024c1.692,0.059,3.267,0.176,5.133,0.233
		c0,9.392,0,18.492,0,27.65C360.008,367.441,361.292,367.441,362.925,367.441z"/>
	<path fill="#FFFFFF" d="M359.309,289.8c1.925,0,3.441,0,5.25,0c1.05,3.733,2.1,7.467,3.383,12.075
		c1.225-4.492,2.275-8.225,3.267-12.075c1.633,0,3.15,0,5.075,0c-3.033,10.733-7.7,21-5.542,32.55c-2.1,0-3.617,0-5.075,0
		c-0.408-5.6-0.233-11.142-1.283-16.508C363.392,300.533,361.175,295.4,359.309,289.8z"/>
	<path fill="#FFFFFF" d="M405.567,322.467c-1.809-0.351-3.909,1.225-4.667-1.575c-0.175,0-0.408,0-0.525,0.059
		c-1.691,1.342-3.733,2.975-5.658,1.458c-1.167-0.934-1.692-3.325-1.75-5.017c-0.175-6.066-0.059-12.134-0.059-18.2
		c0-0.291,0.175-0.524,0.292-0.991c1.283,0,2.566,0,4.258,0c0,6.767,0,13.475,0,20.3c2.858-0.175,3.675-1.517,3.675-3.733
		c-0.058-5.483,0-10.967,0-16.566c1.575,0,2.858,0,4.375,0C405.567,306.191,405.567,314.125,405.567,322.467z"/>
	<path fill="#FFFFFF" d="M376.283,310.158c0-2.042-0.117-4.025,0-6.066c0.233-3.792,2.625-6.184,6.184-6.358
		c3.792-0.117,6.358,1.75,6.65,5.658c0.35,4.608,0.35,9.217,0,13.825c-0.292,3.85-2.975,5.833-6.708,5.658
		c-3.558-0.175-5.892-2.566-6.125-6.417C376.225,314.417,376.283,312.258,376.283,310.158z M380.892,310.1L380.892,310.1
		c0,1.926-0.233,3.908,0.059,5.775c0.175,0.991,1.225,1.866,1.867,2.8c0.642-0.816,1.867-1.633,1.925-2.45
		c0.175-3.908,0.175-7.875-0.058-11.842c-0.059-0.816-1.284-1.517-1.983-2.274c-0.583,0.875-1.575,1.633-1.692,2.566
		C380.658,306.366,380.892,308.233,380.892,310.1z"/>
	<path fill="#FFFFFF" d="M393.725,355.483c0,2.042,0.175,4.083-0.117,6.066c-0.117,0.875-1.225,1.575-1.925,2.392
		c-0.7-0.816-1.925-1.633-1.983-2.508c-0.233-3.967-0.175-7.934,0-11.9c0.058-0.816,1.108-1.633,1.691-2.45
		c0.758,0.759,2.042,1.459,2.217,2.334C393.958,351.4,393.725,353.5,393.725,355.483z"/>
	<path fill="#FFFFFF" d="M405.275,352.508c0.583-1.982,0.992-3.616,1.633-5.017c0.175-0.291,2.1-0.291,2.275,0
		c0.642,1.517,0.933,3.15,1.4,5.017C408.658,352.508,407.434,352.508,405.275,352.508z"/>
</g>
<g>
	<path fill="#AAAAAA" d="M347.292,489.241c0-1.75,0-3.5,0-5.191c0.409-4.083,0.642-8.225,1.167-12.309
		c0.816-6.533,3.908-9.625,10.441-9.683c16.567-0.175,33.192-0.175,49.758,0c6.534,0.058,9.742,3.149,10.442,9.625
		c0.525,4.608,0.875,9.217,0.816,13.825c-0.117,5.949-0.466,11.958-1.341,17.85c-0.642,4.434-3.85,6.941-8.167,7.292
		c-17.15,1.458-34.3,1.517-51.508,0.116c-7.175-0.583-9.625-3.033-10.558-10.208C347.934,496.883,347.642,493.033,347.292,489.241z
		 M385.675,469.991c0,10.792,0,21.351,0,32.492c1.809-0.642,3.208-1.108,4.375-1.517c1.809,0.292,4.083,1.458,5.367,0.758
		c1.342-0.758,2.217-3.208,2.333-5.017c0.35-4.142,0.35-8.283,0.175-12.425c-0.233-6.767-2.275-7.875-8.4-4.608
		c0-3.267,0-6.416,0-9.683C388.242,469.991,387.075,469.991,385.675,469.991z M414.434,490.7c0-2.392,0.058-4.2,0-6.009
		c0-0.642-0.175-1.342-0.35-1.983c-0.817-3.208-3.034-5.017-6.242-4.958c-3.267,0.059-5.833,2.1-6.067,5.425
		c-0.292,4.434-0.35,8.867,0,13.3c0.292,4.2,3.675,6.476,7.758,5.601c3.733-0.759,5.542-4.142,4.375-8.226c-1.108,0-2.275,0-3.5,0
		c-0.175,0.759-0.175,1.459-0.466,2.042c-0.583,0.934-1.342,1.75-2.042,2.566c-0.7-0.875-1.808-1.691-2.042-2.683
		c-0.35-1.517-0.117-3.209-0.117-5.134C408.717,490.7,411.4,490.7,414.434,490.7z M377.158,478.333c0,5.601-0.058,11.084,0,16.567
		c0,1.925-0.7,3.324-2.566,3.441c-0.35,0-1.225-2.042-1.225-3.092c-0.117-5.542-0.058-11.142-0.058-16.858c-1.517,0-2.684,0-4.259,0
		c0,6.184-0.058,12.191,0,18.259c0,1.925-0.583,4.666,1.809,5.25c1.575,0.35,3.617-0.992,5.425-1.575
		c0.175-0.059,0.35,0,0.642-0.059c0.233,3.267,2.567,1.4,4.259,1.809c0-7.992,0-15.75,0-23.684
		C379.9,478.333,378.733,478.333,377.158,478.333z M362.925,501.958c0-9.217,0-18.375,0-27.825c1.983,0,3.559,0,5.134,0
		c0-1.574,0-2.857,0-4.024c-5.017,0-9.8,0-14.642,0c0,1.458,0,2.625,0,4.024c1.692,0.059,3.267,0.176,5.133,0.233
		c0,9.392,0,18.492,0,27.65C360.008,501.958,361.292,501.958,362.925,501.958z"/>
	<path fill="#AAAAAA" d="M359.309,424.316c1.925,0,3.441,0,5.25,0c1.05,3.733,2.1,7.467,3.383,12.075
		c1.225-4.491,2.275-8.225,3.267-12.075c1.633,0,3.15,0,5.075,0c-3.033,10.733-7.7,21-5.542,32.55c-2.1,0-3.617,0-5.075,0
		c-0.408-5.6-0.233-11.142-1.283-16.508C363.392,435.05,361.175,429.917,359.309,424.316z"/>
	<path fill="#AAAAAA" d="M405.567,456.983c-1.809-0.35-3.909,1.225-4.667-1.575c-0.175,0-0.408,0-0.525,0.059
		c-1.691,1.342-3.733,2.975-5.658,1.458c-1.167-0.934-1.692-3.325-1.75-5.017c-0.175-6.066-0.059-12.133-0.059-18.2
		c0-0.291,0.175-0.524,0.292-0.991c1.283,0,2.566,0,4.258,0c0,6.767,0,13.475,0,20.3c2.858-0.175,3.675-1.517,3.675-3.733
		c-0.058-5.483,0-10.967,0-16.566c1.575,0,2.858,0,4.375,0C405.567,440.708,405.567,448.642,405.567,456.983z"/>
	<path fill="#AAAAAA" d="M376.283,444.675c0-2.042-0.117-4.024,0-6.066c0.233-3.792,2.625-6.184,6.184-6.358
		c3.792-0.117,6.358,1.75,6.65,5.658c0.35,4.608,0.35,9.217,0,13.825c-0.292,3.85-2.975,5.833-6.708,5.658
		c-3.558-0.175-5.892-2.566-6.125-6.417C376.225,448.934,376.283,446.775,376.283,444.675z M380.892,444.616L380.892,444.616
		c0,1.926-0.233,3.909,0.059,5.775c0.175,0.992,1.225,1.867,1.867,2.8c0.642-0.816,1.867-1.633,1.925-2.45
		c0.175-3.908,0.175-7.875-0.058-11.841c-0.059-0.817-1.284-1.517-1.983-2.275c-0.583,0.875-1.575,1.633-1.692,2.566
		C380.658,440.941,380.892,442.809,380.892,444.616z"/>
	<path fill="#AAAAAA" d="M393.725,490.059c0,2.041,0.175,4.083-0.117,6.066c-0.117,0.875-1.225,1.575-1.925,2.392
		c-0.7-0.816-1.925-1.634-1.983-2.509c-0.233-3.966-0.175-7.933,0-11.899c0.058-0.816,1.108-1.634,1.691-2.45
		c0.758,0.759,2.042,1.458,2.217,2.333C393.958,485.917,393.725,488.017,393.725,490.059z"/>
	<path fill="#AAAAAA" d="M405.275,487.025c0.583-1.983,0.992-3.617,1.633-5.017c0.175-0.292,2.1-0.292,2.275,0
		c0.642,1.517,0.933,3.149,1.4,5.017C408.658,487.025,407.434,487.025,405.275,487.025z"/>
</g>
</svg>
