<?xml version="1.0" encoding="utf-8"?>
<!-- Generator: Adobe Illustrator 16.0.0, SVG Export Plug-In . SVG Version: 6.00 Build 0)  -->
<!DOCTYPE svg PUBLIC "-//W3C//DTD SVG 1.1//EN" "http://www.w3.org/Graphics/SVG/1.1/DTD/svg11.dtd">
<svg version="1.1"
	 id="Layer_1" sodipodi:docname="bag.svg" inkscape:version="0.48.5 r10040" xmlns:dc="http://purl.org/dc/elements/1.1/" xmlns:cc="http://creativecommons.org/ns#" xmlns:rdf="http://www.w3.org/1999/02/22-rdf-syntax-ns#" xmlns:svg="http://www.w3.org/2000/svg" xmlns:sodipodi="http://sodipodi.sourceforge.net/DTD/sodipodi-0.dtd" xmlns:inkscape="http://www.inkscape.org/namespaces/inkscape"
	 xmlns="http://www.w3.org/2000/svg" xmlns:xlink="http://www.w3.org/1999/xlink" x="0px" y="0px" width="20px" height="80px"
	 viewBox="0 0 20 80" enable-background="new 0 0 20 80" xml:space="preserve">
<sodipodi:namedview  id="namedview3080" inkscape:window-height="637" inkscape:window-width="1163" inkscape:pageshadow="2" inkscape:pageopacity="0" inkscape:cy="42.462491" bordercolor="#666666" inkscape:cx="140.71825" showgrid="false" pagecolor="#ffffff" inkscape:zoom="1.2191307" guidetolerance="10" gridtolerance="10" fit-margin-left="0" objecttolerance="10" fit-margin-top="0" borderopacity="1" inkscape:window-maximized="0" inkscape:current-layer="Layer_1" inkscape:window-y="0" inkscape:window-x="0" fit-margin-bottom="0" fit-margin-right="0">
	</sodipodi:namedview>
<path id="path3072" inkscape:connector-curvature="0" d="M6.067,26.187c0,0-0.027-4.4,4.053-4.413
	c4.054-0.027,4.054,4.413,4.054,4.413H6.067z M18.227,26.187H16.2c0,0-0.026-6.213-6.08-6.187c-6.014,0.014-6.067,6.187-6.067,6.187
	h-2.04L0,40h20L18.227,26.187z"/>
<path id="path3074" inkscape:connector-curvature="0" fill="#FF00A6" d="M6.067,46.187c0,0-0.027-4.399,4.053-4.413
	c4.054-0.014,4.054,4.413,4.054,4.413H6.067z M18.227,46.187H16.2c0,0-0.026-6.213-6.08-6.187c-6.014,0.013-6.067,6.187-6.067,6.187
	h-2.04L0,60h20L18.227,46.187z"/>
<path id="path3076" inkscape:connector-curvature="0" fill="#B3B3B3" d="M6.067,66.187c0,0-0.027-4.399,4.053-4.413
	c4.054-0.014,4.054,4.413,4.054,4.413H6.067z M18.227,66.187H16.2c0,0-0.026-6.214-6.08-6.187c-6.014,0.014-6.067,6.187-6.067,6.187
	h-2.04L0,80h20L18.227,66.187z"/>
<path id="path3078" inkscape:connector-curvature="0" fill="#FFFFFF" d="M6.067,6.187c0,0-0.027-4.4,4.053-4.413
	c4.054-0.013,4.054,4.413,4.054,4.413H6.067z M18.227,6.187H16.2c0,0-0.026-6.213-6.08-6.187C4.106,0.014,4.053,6.187,4.053,6.187
	h-2.04L0,20h20L18.227,6.187z"/>
<rect x="7.493" y="28.54" fill="none" width="12.507" height="19.554"/>
<text transform="matrix(1 0 0 1 7.4932 37.0601)" fill="#FFFFFF" font-family="'MyriadPro-Regular'" font-size="12">0</text>
<rect x="7.493" y="7.986" fill="none" width="12.507" height="19.554"/>
<text transform="matrix(1 0 0 1 7.4932 16.5063)" font-family="'MyriadPro-Regular'" font-size="12">0</text>
<rect x="7.492" y="48.558" fill="none" width="12.508" height="19.553"/>
<text transform="matrix(1 0 0 1 7.4922 57.0781)" fill="#FFFFFF" font-family="'MyriadPro-Regular'" font-size="12">0</text>
<rect x="7.492" y="68.725" fill="none" width="12.508" height="19.553"/>
<text transform="matrix(1 0 0 1 7.4922 77.2441)" fill="#FFFFFF" font-family="'MyriadPro-Regular'" font-size="12">0</text>
</svg>
