<?xml version="1.0" encoding="UTF-8" standalone="no"?>
<!-- Generator: Adobe Illustrator 18.0.0, SVG Export Plug-In . SVG Version: 6.00 Build 0)  -->

<svg
   xmlns:dc="http://purl.org/dc/elements/1.1/"
   xmlns:cc="http://creativecommons.org/ns#"
   xmlns:rdf="http://www.w3.org/1999/02/22-rdf-syntax-ns#"
   xmlns:svg="http://www.w3.org/2000/svg"
   xmlns="http://www.w3.org/2000/svg"
   xmlns:sodipodi="http://sodipodi.sourceforge.net/DTD/sodipodi-0.dtd"
   xmlns:inkscape="http://www.inkscape.org/namespaces/inkscape"
   version="1.1"
   id="Layer_1"
   x="0px"
   y="0px"
   viewBox="0 0 150 600.00062"
   enable-background="new 0 0 560 960"
   xml:space="preserve"
   inkscape:version="0.48.5 r10040"
   width="20"
   height="80"
   sodipodi:docname="bag.svg"><metadata
   id="metadata3084"><rdf:RDF><cc:Work
       rdf:about=""><dc:format>image/svg+xml</dc:format><dc:type
         rdf:resource="http://purl.org/dc/dcmitype/StillImage" /></cc:Work></rdf:RDF></metadata><defs
   id="defs3082" /><sodipodi:namedview
   pagecolor="#ffffff"
   bordercolor="#666666"
   borderopacity="1"
   objecttolerance="10"
   gridtolerance="10"
   guidetolerance="10"
   inkscape:pageopacity="0"
   inkscape:pageshadow="2"
   inkscape:window-width="1163"
   inkscape:window-height="637"
   id="namedview3080"
   showgrid="false"
   fit-margin-top="0"
   fit-margin-left="0"
   fit-margin-right="0"
   fit-margin-bottom="0"
   inkscape:zoom="1.2191307"
   inkscape:cx="140.71825"
   inkscape:cy="42.462491"
   inkscape:window-x="0"
   inkscape:window-y="0"
   inkscape:window-maximized="0"
   inkscape:current-layer="Layer_1" />
<path
   clip-rule="evenodd"
   d="m 45.499998,196.40064 c 0,0 -0.2,-33 30.4,-33.1 30.400002,-0.2 30.400002,33.1 30.400002,33.1 H 45.499998 z m 91.200002,0 h -15.2 c 0,0 -0.2,-46.6 -45.600002,-46.4 -45.1,0.1 -45.5,46.4 -45.5,46.4 h -15.3 L -2.4560522e-6,300.00064 H 150 l -13.3,-103.6 z"
   id="path3072"
   inkscape:connector-curvature="0"
   style="fill-rule:evenodd" />
<path
   clip-rule="evenodd"
   d="m 45.499998,346.40064 c 0,0 -0.2,-33 30.4,-33.1 30.400002,-0.1 30.400002,33.1 30.400002,33.1 H 45.499998 z m 91.200002,0 h -15.2 c 0,0 -0.2,-46.6 -45.600002,-46.4 -45.1,0.1 -45.5,46.4 -45.5,46.4 h -15.3 L -2.4560522e-6,450.00064 H 150 l -13.3,-103.6 z"
   id="path3074"
   inkscape:connector-curvature="0"
   style="fill:#ff00a6;fill-rule:evenodd" />
<path
   clip-rule="evenodd"
   d="m 45.499998,496.40064 c 0,0 -0.2,-33 30.4,-33.1 30.400002,-0.1 30.400002,33.1 30.400002,33.1 H 45.499998 z m 91.200002,0 h -15.2 c 0,0 -0.2,-46.6 -45.600002,-46.4 -45.1,0.1 -45.5,46.4 -45.5,46.4 h -15.3 L -2.4560522e-6,600.00064 H 150 l -13.3,-103.6 z"
   id="path3076"
   inkscape:connector-curvature="0"
   style="fill:#b3b3b3;fill-rule:evenodd" />
<path
   clip-rule="evenodd"
   d="m 45.499998,46.400642 c 0,0 -0.2,-33 30.4,-33.1 30.400002,-0.1 30.400002,33.1 30.400002,33.1 H 45.499998 z m 91.200002,0 h -15.2 c 0,0 -0.2,-46.60000006 -45.600002,-46.40000006024 -45.1,0.10000000024 -45.5,46.40000006024 -45.5,46.40000006024 h -15.3 L -2.4560522e-6,150.00064 H 150 L 136.7,46.400642 z"
   id="path3078"
   inkscape:connector-curvature="0"
   style="fill:#ffffff;fill-rule:evenodd" />
</svg>