<svg xmlns="http://www.w3.org/2000/svg" xmlns:xlink="http://www.w3.org/1999/xlink" version="1.1" id="Layer_1" x="0px" y="0px" width="37.917px" height="23.333px" viewBox="316.667 0 37.917 23.333" enable-background="new 316.667 0 37.917 23.333" xml:space="preserve"><g><path fill="#F6F6F6" d="M354.583 19.133c0 2.275-2.392 4.2-4.608 4.2h-29.983c-2.158 0-3.325-1.925-3.325-4.2V3.967 c0-2.275 1.167-3.967 3.325-3.967h29.983c2.217 0 4.6 1.7 4.6 3.967V19.133z"/><g><path fill="#004A97" d="M336.85 20.066c4.608 0 8.808-3.733 8.808-8.341c0-5.017-4.2-8.458-8.808-8.458h-3.967 c-4.667 0-8.458 3.442-8.458 8.458c0 4.6 3.9 8.3 8.5 8.341H336.85z"/><path fill="#FFFFFF" d="M334.633 16.217v-9.1c1.809 0.7 3.1 2.5 3.1 4.55C337.783 13.7 336.5 15.5 334.6 16.2 M328.042 11.667c0-2.1 1.284-3.85 3.15-4.55v9.1C329.325 15.5 328 13.7 328 11.7 M332.883 4 c-4.258 0-7.7 3.441-7.7 7.7s3.441 7.7 7.7 7.7s7.7-3.5 7.7-7.7C340.583 7.4 337.1 4 332.9 4"/></g></g></svg>