<svg xmlns="http://www.w3.org/2000/svg" xmlns:xlink="http://www.w3.org/1999/xlink" version="1.1" id="Layer_1" x="0px" y="0px" width="37.917px" height="23.333px" viewBox="316.667 0 37.917 23.333" enable-background="new 316.667 0 37.917 23.333" xml:space="preserve"><g><path fill="#F6F6F6" d="M354.583 19.133c0 2.275-2.1 4.2-4.317 4.2h-29.983c-2.216 0-3.617-1.925-3.617-4.2V3.967 c0-2.275 1.4-3.967 3.617-3.967h29.983c2.217 0 4.3 1.7 4.3 3.967V19.133z"/><g><path fill="#0097D9" d="M335.275 17.85c1.692-1.517 2.742-3.733 2.742-6.242c0-2.45-1.05-4.667-2.742-6.242 c-1.458-1.342-3.441-2.158-5.6-2.158c-4.608 0-8.341 3.792-8.341 8.4c0 4.7 3.7 8.4 8.3 8.4 C331.833 20 333.8 19.2 335.3 17.85L335.275 17.85z"/><path fill="#E40520" d="M340.875 3.208c-2.158 0-4.142 0.816-5.6 2.158c-0.292 0.292-0.583 0.583-0.816 0.875h1.691 c0.233 0.3 0.5 0.6 0.6 0.875h-2.975c-0.175 0.292-0.35 0.583-0.467 0.875h3.908c0.117 0.3 0.2 0.6 0.3 0.875H333 c-0.117 0.292-0.175 0.583-0.233 0.875h5.133c0.117 0.6 0.2 1.2 0.2 1.808c0 0.934-0.175 1.809-0.409 2.684H333 c0.117 0.3 0.2 0.6 0.3 0.875h3.908c-0.117 0.292-0.292 0.583-0.467 0.875h-2.975c0.175 0.3 0.4 0.6 0.6 0.9 h1.691c-0.233 0.292-0.525 0.642-0.816 0.875c1.458 1.3 3.4 2.2 5.6 2.158c4.608 0 8.341-3.792 8.341-8.4 C349.217 7 345.5 3.2 340.9 3.208L340.875 3.208z"/><path fill="#FFFFFF" d="M346.358 13.417c0-0.175 0.117-0.292 0.292-0.292c0.175 0 0.3 0.1 0.3 0.3 c0 0.175-0.117 0.292-0.292 0.292C346.475 13.7 346.4 13.6 346.4 13.417L346.358 13.417z M346.65 13.7 c0.117 0 0.233-0.117 0.233-0.233s-0.117-0.233-0.233-0.233s-0.233 0.116-0.233 0.233S346.533 13.7 346.6 13.65L346.65 13.65z M346.592 13.533L346.592 13.533l-0.059-0.233h0.117h0.059l0.058 0.059c0 0 0 0.058-0.058 0.058l0.058 0.117h-0.058l-0.059-0.117 h-0.058V13.533v-0.117h0.058c0 0 0 0 0.1 0l0 0l0 0c0 0 0 0-0.059 0h-0.058l0 0V13.533L346.592 13.533z"/><polygon fill="#FFFFFF" points="328.6,13.7 327.6,13.7 328.2,10.4 326.8,13.7 325.9,13.7 325.7,10.4 325.1,13.7 324.1,13.7 324.9,9.4 326.5,9.4 326.6,12.1 327.8,9.4 329.4,9.4"/><path fill="#FFFFFF" d="M340.233 13.65c-0.292 0.059-0.525 0.117-0.758 0.117c-0.525 0-0.817-0.292-0.817-0.758 c0-0.117 0-0.175 0.059-0.292l0.058-0.35l0.059-0.292L339.3 9.45h1.05l-0.175 0.816h0.525l-0.117 0.817h-0.525l-0.292 1.5 c0 0.1 0 0.1 0 0.117c0 0.2 0.1 0.2 0.3 0.233c0.117 0 0.2 0 0.292-0.058L340.233 13.65L340.233 13.65z"/><path fill="#FFFFFF" d="M343.267 10.267c-0.058-0.058-0.117-0.058-0.117-0.058c-0.058 0-0.058 0-0.117 0c-0.058 0-0.058 0-0.117 0 c-0.35 0-0.583 0.175-0.933 0.583l0.117-0.525h-0.934l-0.583 3.442h1.05c0.35-2.1 0.525-2.508 1.05-2.508c0.058 0 0.1 0 0.1 0 h0.117L343.267 10.267L343.267 10.267z"/><path fill="#FFFFFF" d="M336.15 11.316c0 0.5 0.2 0.8 0.8 0.992c0.408 0.2 0.5 0.2 0.5 0.4 c0 0.233-0.175 0.292-0.583 0.292c-0.292 0-0.583-0.058-0.934-0.117l-0.117 0.817h0.059l0.175 0.058c0.059 0 0.2 0 0.3 0.1 c0.233 0 0.5 0 0.6 0c1.108 0 1.633-0.35 1.633-1.167c0-0.467-0.233-0.758-0.758-0.992c-0.466-0.175-0.466-0.233-0.466-0.35 c0-0.175 0.175-0.292 0.525-0.292c0.233 0 0.5 0 0.8 0.059l0.175-0.817c-0.292-0.058-0.7-0.058-0.933-0.058 C336.559 10.2 336.1 10.7 336.1 11.316L336.15 11.316z"/><path fill="#FFFFFF" d="M332.008 13.708h-0.875v-0.35c-0.292 0.292-0.642 0.408-1.108 0.408c-0.583 0-0.933-0.408-0.933-0.933 c0-0.817 0.7-1.342 1.808-1.342c0.117 0 0.3 0 0.4 0c0.058-0.117 0.058-0.175 0.058-0.233c0-0.233-0.175-0.292-0.642-0.292 c-0.292 0-0.642 0.058-0.875 0.117h-0.117h-0.117l0.117-0.758c0.525-0.117 0.875-0.175 1.225-0.175 c0.875 0 1.3 0.3 1.3 0.992c0 0.2 0 0.292-0.058 0.7l-0.233 1.225L331.95 13.3v0.175v0.117L332.008 13.708L332.008 13.708z M331.25 12.191c-0.117 0-0.175 0-0.233 0c-0.583 0-0.875 0.175-0.875 0.525c0 0.2 0.1 0.3 0.3 0.3 C330.958 13 331.2 12.7 331.2 12.191L331.25 12.191z"/><path fill="#FFFFFF" d="M335.45 13.65c-0.35 0.117-0.7 0.117-1.05 0.117c-1.167 0-1.75-0.525-1.75-1.575 c0-1.167 0.758-2.042 1.809-2.042c0.875 0 1.4 0.5 1.4 1.284c0 0.233-0.059 0.525-0.117 0.875H333.7c0 0.1 0 0.1 0 0.1 c0 0.4 0.3 0.6 0.9 0.583c0.35 0 0.7-0.058 1.05-0.233L335.45 13.65L335.45 13.65z M334.867 11.6 c0-0.058 0-0.116 0-0.175c0-0.292-0.175-0.467-0.467-0.467c-0.35 0-0.583 0.233-0.642 0.642H334.867L334.867 11.55z"/><path fill="#FFFFFF" d="M346.533 12.133c-0.175 1.167-0.933 1.692-2.042 1.692c-1.167 0-1.633-0.7-1.633-1.575 c0-1.225 0.816-2.042 2.042-2.042c1.05 0 1.6 0.7 1.6 1.575C346.533 11.9 346.5 12 346.5 12.133L346.533 12.133z M345.425 11.725c0-0.35-0.175-0.7-0.583-0.7c-0.525 0-0.875 0.642-0.875 1.167c0 0.5 0.2 0.8 0.6 0.8 c0.233 0 0.7-0.292 0.817-0.875C345.425 12 345.4 11.8 345.4 11.725L345.425 11.725z"/></g></g></svg>