<svg xmlns="http://www.w3.org/2000/svg" xmlns:xlink="http://www.w3.org/1999/xlink" version="1.1" id="Layer_1" x="0px" y="0px" width="37.917px" height="23.333px" viewBox="316.667 0 37.917 23.333" enable-background="new 316.667 0 37.917 23.333" xml:space="preserve"><path fill="#F6F6F6" d="M354.583 19.133c0 2.275-2.217 4.2-4.375 4.2h-29.983c-2.217 0-3.559-1.925-3.559-4.2V3.967 c0-2.275 1.342-3.967 3.559-3.967h29.983c2.158 0 4.4 1.7 4.4 3.967V19.133z"/><g><g><g><g><radialGradient id="SVGID_2_" cx="-678.7" cy="865.4" r="108.9" gradientTransform="matrix(0.3296 0 0 -0.3296 548.2554 284.9678)" gradientUnits="userSpaceOnUse"><stop offset="0" style="stop-color:#00B1E7"/><stop offset="0.427" style="stop-color:#0098CD"/><stop offset="0.5244" style="stop-color:#008DBE"/><stop offset="0.8403" style="stop-color:#006C91"/><stop offset="1" style="stop-color:#005F80"/></radialGradient><path id="SVGID_1_" fill="url(#SVGID_2_)" d="M335.917 10.267v-0.7c0 0-0.058-0.583-0.642-0.583H334.4v1.283h-0.933V6.65h2.217 c0 0 1.167-0.117 1.2 1.05c0 0.642-0.525 0.875-0.525 0.875s0.466 0.2 0.5 0.816v0.875H335.917 M334.4 8.167h0.934 c0.292 0 0.525-0.175 0.525-0.35c0-0.175-0.233-0.35-0.525-0.35H334.4V8.167L334.4 8.2"/></g></g><g><g><radialGradient id="SVGID_3_" cx="-678.7" cy="865.4" r="108.9" gradientTransform="matrix(0.3296 0 0 -0.3296 548.2554 284.9678)" gradientUnits="userSpaceOnUse"><stop offset="0" style="stop-color:#00B1E7"/><stop offset="0.427" style="stop-color:#0098CD"/><stop offset="0.5244" style="stop-color:#008DBE"/><stop offset="0.8403" style="stop-color:#006C91"/><stop offset="1" style="stop-color:#005F80"/></radialGradient><path id="SVGID_4_" fill="url(#SVGID_3_)" d="M346.825 10.267l-1.458-2.45v2.45h-0.817h-0.175H343.5l-0.35-0.758h-1.691 l-0.292 0.758h-0.875h-0.175h-0.467c0 0-1.225-0.175-1.225-1.691c0-2.042 1.4-1.925 1.458-1.983l1.167 0.058v0.817h-0.933 c0 0-0.583 0-0.7 0.816c0 0.1 0 0.2 0 0.233c0 1.2 1.1 0.9 1.1 0.817l1.167-2.742h1.283l1.4 3.325V6.592h1.283 l1.458 2.392V6.592h0.933v3.617h-1.225 M341.925 8.575h0.875l-0.466-1.05L341.925 8.575L341.925 8.6"/></g></g><g><g><radialGradient id="SVGID_5_" cx="-678.7" cy="865.4" r="108.9" gradientTransform="matrix(0.3296 0 0 -0.3296 548.2554 284.9678)" gradientUnits="userSpaceOnUse"><stop offset="0" style="stop-color:#00B1E7"/><stop offset="0.427" style="stop-color:#0098CD"/><stop offset="0.5244" style="stop-color:#008DBE"/><stop offset="0.8403" style="stop-color:#006C91"/><stop offset="1" style="stop-color:#005F80"/></radialGradient><path id="SVGID_7_" fill="url(#SVGID_5_)" d="M328.625 10.267V7.758l-1.167 2.508H326.7l-1.167-2.508v2.508h-0.816H324.6h-0.875 l-0.292-0.758h-1.692l-0.35 0.758H320.4l1.517-3.617h1.284l1.4 3.325V6.65h1.458l0.991 2.275l0.992-2.275h1.458v3.617H328.625 M322.092 8.575h0.875L322.5 7.467L322.092 8.575L322.092 8.6"/></g></g><g><g><radialGradient id="SVGID_6_" cx="-678.7" cy="865.4" r="108.9" gradientTransform="matrix(0.3296 0 0 -0.3296 548.2554 284.9678)" gradientUnits="userSpaceOnUse"><stop offset="0" style="stop-color:#00B1E7"/><stop offset="0.427" style="stop-color:#0098CD"/><stop offset="0.5244" style="stop-color:#008DBE"/><stop offset="0.8403" style="stop-color:#006C91"/><stop offset="1" style="stop-color:#005F80"/></radialGradient><polyline id="SVGID_10_" fill="url(#SVGID_6_)" points="330.1,10.3 330.1,6.7 332.9,6.7 332.9,7.5 331,7.5 331,8.1 332.9,8.1 332.9,8.9 331,8.9 331,9.5 332.9,9.5 332.9,10.3 330.1,10.3"/></g></g><g><g><radialGradient id="SVGID_8_" cx="-678.7" cy="865.4" r="108.9" gradientTransform="matrix(0.3296 0 0 -0.3296 548.2554 284.9678)" gradientUnits="userSpaceOnUse"><stop offset="0" style="stop-color:#00B1E7"/><stop offset="0.427" style="stop-color:#0098CD"/><stop offset="0.5244" style="stop-color:#008DBE"/><stop offset="0.8403" style="stop-color:#006C91"/><stop offset="1" style="stop-color:#005F80"/></radialGradient><polyline id="SVGID_13_" fill="url(#SVGID_8_)" points="337.3,10.3 337.3,6.7 338.2,6.7 338.2,10.3 337.3,10.3"/></g></g></g><g><g><g><radialGradient id="SVGID_9_" cx="-678.7" cy="865.4" r="108.9" gradientTransform="matrix(0.3296 0 0 -0.3296 548.2554 284.9678)" gradientUnits="userSpaceOnUse"><stop offset="0" style="stop-color:#00B1E7"/><stop offset="0.427" style="stop-color:#0098CD"/><stop offset="0.5244" style="stop-color:#008DBE"/><stop offset="0.8403" style="stop-color:#006C91"/><stop offset="1" style="stop-color:#005F80"/></radialGradient><path id="SVGID_16_" fill="url(#SVGID_9_)" d="M339.475 16.45v-0.7c0 0-0.059-0.583-0.642-0.583h-0.875v1.284h-0.934v-3.617 h2.217c0 0 1.167-0.117 1.2 1.05c0 0.642-0.525 0.875-0.525 0.875s0.467 0.2 0.5 0.817v0.875H339.475 M337.958 14.3 h0.933c0.292 0 0.525-0.175 0.525-0.35s-0.233-0.35-0.525-0.35h-0.933V14.35L337.958 14.3"/></g></g><g><g><radialGradient id="SVGID_11_" cx="-678.7" cy="865.4" r="108.9" gradientTransform="matrix(0.3296 0 0 -0.3296 548.2554 284.9678)" gradientUnits="userSpaceOnUse"><stop offset="0" style="stop-color:#00B1E7"/><stop offset="0.427" style="stop-color:#0098CD"/><stop offset="0.5244" style="stop-color:#008DBE"/><stop offset="0.8403" style="stop-color:#006C91"/><stop offset="1" style="stop-color:#005F80"/></radialGradient><path id="SVGID_19_" fill="url(#SVGID_11_)" d="M333.292 16.45h-0.816l-0.992-1.108l-0.992 1.108h-0.583h-2.858v-3.617h2.858 h0.467l1.05 1.167l1.05-1.167h0.7l0 0h2.217c0 0 1.167-0.117 1.2 1.05c0 1.05-0.409 1.4-1.575 1.4h-0.934v1.167H333.292 M332.125 14.642l1.167 1.283v-2.508L332.125 14.642L332.125 14.6 M327.983 15.691h1.925l0.934-0.991l-0.934-0.992h-1.925 v0.583h1.925v0.817h-1.925V15.691L327.983 15.7 M334.225 14.35h0.933c0.292 0 0.525-0.175 0.525-0.35s-0.233-0.35-0.525-0.35 h-0.933V14.35L334.225 14.3"/></g></g><g><g><radialGradient id="SVGID_12_" cx="-678.7" cy="865.4" r="108.9" gradientTransform="matrix(0.3296 0 0 -0.3296 548.2554 284.9678)" gradientUnits="userSpaceOnUse"><stop offset="0" style="stop-color:#00B1E7"/><stop offset="0.427" style="stop-color:#0098CD"/><stop offset="0.5244" style="stop-color:#008DBE"/><stop offset="0.8403" style="stop-color:#006C91"/><stop offset="1" style="stop-color:#005F80"/></radialGradient><path id="SVGID_22_" fill="url(#SVGID_12_)" d="M345.775 16.45h-1.633v-0.817h1.458c0 0 0.5 0.1 0.525-0.292 c0-0.35-0.758-0.292-0.758-0.292s-1.283 0.117-1.283-1.108c0-1.167 1.167-1.108 1.167-1.108H347v0.875h-1.458 c0 0-0.466-0.117-0.466 0.233c0 0.3 0.7 0.2 0.7 0.233s1.4-0.116 1.4 0.992c0 1.167-0.933 1.284-1.225 1.3 C345.833 16.4 345.8 16.4 345.8 16.4"/></g></g><g><g><radialGradient id="SVGID_14_" cx="-678.7" cy="865.4" r="108.9" gradientTransform="matrix(0.3296 0 0 -0.3296 548.2554 284.9678)" gradientUnits="userSpaceOnUse"><stop offset="0" style="stop-color:#00B1E7"/><stop offset="0.427" style="stop-color:#0098CD"/><stop offset="0.5244" style="stop-color:#008DBE"/><stop offset="0.8403" style="stop-color:#006C91"/><stop offset="1" style="stop-color:#005F80"/></radialGradient><polyline id="SVGID_25_" fill="url(#SVGID_14_)" points="340.8,16.4 340.8,12.8 343.7,12.8 343.7,13.7 341.8,13.7 341.8,14.2 343.7,14.2 343.7,15.1 341.8,15.1 341.8,15.7 343.7,15.7 343.7,16.4 340.8,16.4"/></g></g><g><g><radialGradient id="SVGID_15_" cx="-678.7" cy="865.4" r="108.9" gradientTransform="matrix(0.3296 0 0 -0.3296 548.2554 284.9678)" gradientUnits="userSpaceOnUse"><stop offset="0" style="stop-color:#00B1E7"/><stop offset="0.427" style="stop-color:#0098CD"/><stop offset="0.5244" style="stop-color:#008DBE"/><stop offset="0.8403" style="stop-color:#006C91"/><stop offset="1" style="stop-color:#005F80"/></radialGradient><path id="SVGID_28_" fill="url(#SVGID_15_)" d="M349.042 16.45h-1.633v-0.817h1.458c0 0 0.5 0.1 0.525-0.292 c0-0.35-0.758-0.292-0.758-0.292s-1.283 0.117-1.283-1.108c0-1.167 1.167-1.108 1.167-1.108h1.75v0.875h-1.4 c0 0-0.467-0.117-0.467 0.233c0 0.3 0.7 0.2 0.7 0.233s1.4-0.116 1.4 0.992c0 1.167-0.933 1.284-1.225 1.3 C349.1 16.4 349 16.4 349 16.4"/></g></g></g></g></svg>