<svg xmlns="http://www.w3.org/2000/svg" xmlns:xlink="http://www.w3.org/1999/xlink" version="1.1" id="Layer_1" x="0" y="0" width="37.92" height="23.33" viewBox="316.67 0 37.92 23.33" enable-background="new 316.667 0 37.917 23.333" xml:space="preserve"><path fill="#F6F6F6" d="M354.58 19.13c0 2.28-1.92 4.2-4.08 4.2h-30.04c-2.16 0-3.79-1.92-3.79-4.2V3.97c0-2.27 1.63-3.97 3.79-3.97H350.5c2.16 0 4.08 1.69 4.08 3.97V19.13z"/><path fill="#009BDE" d="M340.76 7.53h-2.33c-0.17 0-0.29 0.12-0.29 0.29l-0.93 6.01c0 0.12 0.06 0.23 0.18 0.23h1.23c0.12 0 0.23-0.06 0.23-0.17l0.29-1.69c0-0.17 0.18-0.29 0.29-0.29h0.76c1.52 0 2.45-0.76 2.68-2.22 0.12-0.64 0-1.17-0.29-1.52C342.1 7.76 341.52 7.53 340.76 7.53zM340.99 9.74c-0.12 0.82-0.76 0.82-1.4 0.82h-0.35l0.23-1.57c0-0.12 0.12-0.17 0.18-0.17h0.18c0.41 0 0.82 0 1.05 0.23C340.99 9.22 341.05 9.45 340.99 9.74z"/><path fill="#002F87" d="M324.08 7.53h-2.33c-0.17 0-0.29 0.12-0.29 0.29l-0.93 6.01c0 0.12 0.06 0.23 0.18 0.23h1.11c0.18 0 0.29-0.12 0.29-0.29l0.23-1.63c0-0.17 0.18-0.29 0.29-0.29h0.76c1.52 0 2.45-0.76 2.68-2.22 0.12-0.64 0-1.17-0.29-1.52C325.48 7.76 324.89 7.53 324.08 7.53zM324.37 9.74c-0.12 0.82-0.76 0.82-1.4 0.82h-0.35l0.23-1.57c0-0.12 0.12-0.17 0.18-0.17h0.18c0.41 0 0.82 0 1.05 0.23C324.37 9.22 324.43 9.45 324.37 9.74z"/><path fill="#002F87" d="M331.08 9.68h-1.11c-0.12 0-0.17 0.06-0.17 0.18l-0.06 0.29 -0.06-0.12c-0.23-0.35-0.76-0.47-1.34-0.47 -1.23 0-2.27 0.93-2.51 2.28 -0.12 0.64 0.06 1.28 0.41 1.69s0.82 0.58 1.4 0.58c0.99 0 1.58-0.64 1.58-0.64l-0.06 0.29c0 0.12 0.06 0.23 0.18 0.23h0.99c0.18 0 0.29-0.12 0.29-0.29l0.58-3.85C331.25 9.8 331.19 9.68 331.08 9.68zM329.5 11.9c-0.12 0.64-0.64 1.05-1.28 1.05 -0.35 0-0.58-0.12-0.76-0.29 -0.17-0.17-0.23-0.47-0.17-0.76 0.12-0.64 0.64-1.05 1.23-1.05 0.29 0 0.58 0.12 0.76 0.29C329.5 11.26 329.56 11.55 329.5 11.9z"/><path fill="#009BDE" d="M347.7 9.68h-1.11c-0.12 0-0.17 0.06-0.17 0.18l-0.06 0.29 -0.06-0.12c-0.23-0.35-0.76-0.47-1.34-0.47 -1.23 0-2.27 0.93-2.51 2.28 -0.12 0.64 0.06 1.28 0.41 1.69s0.82 0.58 1.4 0.58c0.99 0 1.58-0.64 1.58-0.64l-0.06 0.29c0 0.12 0.06 0.23 0.18 0.23H347c0.18 0 0.29-0.12 0.29-0.29l0.58-3.85C347.93 9.8 347.82 9.68 347.7 9.68zM346.13 11.9c-0.12 0.64-0.64 1.05-1.28 1.05 -0.35 0-0.58-0.12-0.76-0.29 -0.17-0.17-0.23-0.47-0.17-0.76 0.12-0.64 0.64-1.05 1.23-1.05 0.29 0 0.58 0.12 0.76 0.29C346.13 11.26 346.18 11.55 346.13 11.9z"/><path fill="#002F87" d="M337.03 9.68h-1.11c-0.12 0-0.23 0.06-0.29 0.12l-1.57 2.28 -0.64-2.16c-0.06-0.12-0.17-0.23-0.29-0.23h-1.11c-0.12 0-0.23 0.12-0.17 0.23l1.23 3.62 -1.17 1.63c-0.12 0.12 0 0.29 0.18 0.29h1.11c0.12 0 0.23-0.06 0.29-0.12l3.73-5.37C337.26 9.86 337.2 9.68 337.03 9.68z"/><path fill="#009BDE" d="M349.04 7.7l-0.93 6.07c0 0.12 0.06 0.23 0.18 0.23h0.99c0.18 0 0.29-0.12 0.29-0.29l0.93-5.95c0-0.12-0.06-0.23-0.17-0.23h-1.05C349.1 7.53 349.04 7.58 349.04 7.7z"/></svg>