<?xml version="1.0" encoding="UTF-8" standalone="no"?>
<!-- Generator: Adobe Illustrator 18.0.0, SVG Export Plug-In . SVG Version: 6.00 Build 0)  -->

<svg
   xmlns:dc="http://purl.org/dc/elements/1.1/"
   xmlns:cc="http://creativecommons.org/ns#"
   xmlns:rdf="http://www.w3.org/1999/02/22-rdf-syntax-ns#"
   xmlns:svg="http://www.w3.org/2000/svg"
   xmlns="http://www.w3.org/2000/svg"
   xmlns:sodipodi="http://sodipodi.sourceforge.net/DTD/sodipodi-0.dtd"
   xmlns:inkscape="http://www.inkscape.org/namespaces/inkscape"
   version="1.1"
   id="Layer_1"
   x="0px"
   y="0px"
   viewBox="0 0 30 60"
   enable-background="new 0 0 193 383"
   xml:space="preserve"
   inkscape:version="0.48.5 r10040"
   width="30"
   height="60"
   sodipodi:docname="delivery-standard.svg"><metadata
   id="metadata3169"><rdf:RDF><cc:Work
       rdf:about=""><dc:format>image/svg+xml</dc:format><dc:type
         rdf:resource="http://purl.org/dc/dcmitype/StillImage" /></cc:Work></rdf:RDF></metadata><defs
   id="defs3167" /><sodipodi:namedview
   pagecolor="#ffffff"
   bordercolor="#666666"
   borderopacity="1"
   objecttolerance="10"
   gridtolerance="10"
   guidetolerance="10"
   inkscape:pageopacity="0"
   inkscape:pageshadow="2"
   inkscape:window-width="1920"
   inkscape:window-height="1018"
   id="namedview3165"
   showgrid="false"
   inkscape:zoom="4.9295039"
   inkscape:cx="25.254807"
   inkscape:cy="56.03598"
   inkscape:window-x="-8"
   inkscape:window-y="-8"
   inkscape:window-maximized="1"
   inkscape:current-layer="Layer_1" />
<g
   id="g3153"
   transform="matrix(0.15836207,0,0,0.15836207,-0.28194015,-0.21859429)">
	<circle
   stroke-miterlimit="10"
   cx="96.5"
   cy="96.099998"
   r="93.099998"
   id="circle3155"
   sodipodi:cx="96.5"
   sodipodi:cy="96.099998"
   sodipodi:rx="93.099998"
   sodipodi:ry="93.099998"
   style="fill:none;stroke:#009245;stroke-width:3.23930001;stroke-miterlimit:10"
   d="M 189.6,96.099998 C 189.6,147.51771 147.91771,189.2 96.5,189.2 45.082291,189.2 3.4000015,147.51771 3.4000015,96.099998 3.4000015,44.682289 45.082291,3 96.5,3 c 51.41771,0 93.1,41.682289 93.1,93.099998 z" />
	<g
   id="g3157">
		<path
   d="m 83.9,133 c -0.6,1.3 -1,2.6 -1.7,3.8 -2.8,5.2 -7.3,7.7 -13.1,7.4 -6.5,-0.3 -10.7,-3.9 -12.9,-9.9 -0.4,-1 -0.8,-1.4 -2,-1.5 -5.4,-0.4 -10,-5.5 -10,-10.9 0,-21 0,-41.9 0,-62.9 0,-6.1 5.2,-10.9 11.7,-11 7.9,-0.1 15.8,0 23.7,0 6.8,0 13.6,0.1 20.4,0 7.9,-0.2 12.8,6.4 12.2,12.3 -0.1,1.5 0,3 0,4.6 1.8,0 3.4,0 5,0 4.6,0 9.2,0 13.7,0 2.9,0 4.9,1.2 6.5,3.6 6.1,9.4 12.3,18.7 18.5,28.1 1.1,1.6 1.7,3.4 1.7,5.4 0,6.6 0,13.2 0,19.8 0,5.7 -4.6,10.8 -10.4,11.2 -1,0.1 -1.3,0.5 -1.6,1.4 -3.1,9.3 -13.3,12.9 -21.5,7.7 -2.9,-1.8 -4.6,-4.6 -5.7,-7.7 -0.2,-0.6 -0.3,-1.2 -1.3,-1.2 -11,0 -22,0 -33,0 C 84,132.9 83.9,133 83.9,133 z m 59.3,-39.8 c -0.1,-0.3 -0.2,-0.5 -0.3,-0.6 -3.4,-5.2 -6.8,-10.3 -10.2,-15.5 -0.3,-0.4 -0.9,-0.7 -1.4,-0.7 -2.4,-0.1 -4.7,0 -7.1,0 -2,0 -4.1,0 -6.2,0 0,5.7 0,11.3 0,16.9 8.4,-0.1 16.8,-0.1 25.2,-0.1 z m -79.1,36.9 c 0,3.4 2.3,5.7 5.7,5.7 3.4,0 5.7,-2.3 5.7,-5.7 0,-3.3 -2.3,-5.5 -5.6,-5.6 -3.4,-0.1 -5.8,2.3 -5.8,5.6 z m 73.6,0 c 0,-3.3 -2.3,-5.7 -5.7,-5.7 -3.4,0 -5.7,2.3 -5.7,5.7 0,3.3 2.3,5.5 5.6,5.6 3.5,0.1 5.8,-2.2 5.8,-5.6 z"
   id="path3159"
   inkscape:connector-curvature="0"
   style="fill:#009245" />
	</g>
</g>

<g
   id="g3171"
   transform="translate(-1.7803516,1.8803545)"><circle
     style="fill:none;stroke:#aaaaaa;stroke-width:3.23930001;stroke-miterlimit:10"
     transform="matrix(0.15836207,0,0,0.15836207,1.4984114,-2.23525)"
     sodipodi:ry="93.099998"
     sodipodi:rx="93.099998"
     sodipodi:cy="286.39999"
     sodipodi:cx="96.5"
     id="circle3161"
     r="93.099998"
     cy="286.39999"
     cx="96.5"
     stroke-miterlimit="10"
     d="m 189.6,286.39999 c 0,51.41771 -41.68229,93.1 -93.1,93.1 -51.417709,0 -93.0999985,-41.68229 -93.0999985,-93.1 C 3.4000015,234.98228 45.082291,193.3 96.5,193.3 c 51.41771,0 93.1,41.68228 93.1,93.09999 z" /><path
     style="fill:#aaaaaa"
     inkscape:connector-curvature="0"
     id="path3163"
     d="m 14.784989,48.9632 c -0.09502,0.20587 -0.158362,0.41175 -0.269215,0.60178 -0.443414,0.82348 -1.156043,1.21939 -2.074543,1.17188 -1.029354,-0.0475 -1.694475,-0.61761 -2.042871,-1.56779 -0.06334,-0.15836 -0.12669,-0.2217 -0.316724,-0.23754 -0.8551554,-0.0633 -1.583621,-0.87099 -1.583621,-1.72615 0,-3.3256 0,-6.63537 0,-9.96097 0,-0.96601 0.8234828,-1.72615 1.852836,-1.74198 1.251061,-0.0158 2.502121,0 3.753181,0 1.076863,0 2.153725,0.0158 3.230587,0 1.25106,-0.0317 2.027034,1.01351 1.932017,1.94785 -0.01584,0.23754 0,0.47509 0,0.72847 0.285052,0 0.538431,0 0.79181,0 0.728466,0 1.456932,0 2.169561,0 0.45925,0 0.775974,0.19003 1.029353,0.5701 0.966009,1.4886 1.947854,2.96137 2.929699,4.44997 0.174198,0.25338 0.269215,0.53844 0.269215,0.85516 0,1.04519 0,2.09038 0,3.13557 0,0.90266 -0.728465,1.71031 -1.646965,1.77365 -0.158362,0.0158 -0.205871,0.0792 -0.25338,0.22171 -0.490922,1.47277 -2.106215,2.04287 -3.404784,1.21939 -0.45925,-0.28505 -0.728466,-0.72847 -0.902664,-1.21939 -0.03167,-0.095 -0.04751,-0.19003 -0.205871,-0.19003 -1.741983,0 -3.483965,0 -5.225948,0 -0.01584,-0.0475 -0.03167,-0.0317 -0.03167,-0.0317 z m 9.390871,-6.30281 c -0.01584,-0.0475 -0.03167,-0.0792 -0.04751,-0.095 -0.538431,-0.82349 -1.076862,-1.63113 -1.615293,-2.45462 -0.04751,-0.0633 -0.142526,-0.11085 -0.221707,-0.11085 -0.380069,-0.0158 -0.744302,0 -1.124371,0 -0.316724,0 -0.649285,0 -0.981845,0 0,0.90266 0,1.78949 0,2.67632 1.330242,-0.0158 2.660483,-0.0158 3.990724,-0.0158 z m -12.52644,5.82773 c 0,0.53843 0.364233,0.90266 0.902664,0.90266 0.538431,0 0.902664,-0.36423 0.902664,-0.90266 0,-0.5226 -0.364233,-0.87099 -0.886828,-0.88683 -0.538431,0 -0.9185,0.36423 -0.9185,0.88683 z m 11.655449,0.0158 c 0,-0.52259 -0.364233,-0.90266 -0.902664,-0.90266 -0.538431,0 -0.902664,0.36423 -0.902664,0.90266 0,0.5226 0.364233,0.871 0.886828,0.88683 0.554267,0.0158 0.9185,-0.3484 0.9185,-0.88683 z" /></g>
</svg>