<?xml version="1.0" encoding="utf-8"?>
<!-- Generator: Adobe Illustrator 18.0.0, SVG Export Plug-In . SVG Version: 6.00 Build 0)  -->
<!DOCTYPE svg PUBLIC "-//W3C//DTD SVG 1.1//EN" "http://www.w3.org/Graphics/SVG/1.1/DTD/svg11.dtd">
<svg version="1.1" id="Layer_1" xmlns="http://www.w3.org/2000/svg" xmlns:xlink="http://www.w3.org/1999/xlink" x="0px" y="0px"
	 width="232px" height="928px" viewBox="0 0 232 928" enable-background="new 0 0 232 928" xml:space="preserve">
<circle fill="#F6F6F6" cx="116.5" cy="115" r="115"/>
<g>
	<path d="M47,167.3c0-26.2,0-52.1,0-78.4c1.2,0.6,2.4,1,3.4,1.5c21.5,10.2,43,20.4,64.5,30.7c1.6,0.7,2.8,0.7,4.3,0
		c21.6-10.3,43.3-20.6,65-30.9c0.8-0.4,1.8-0.8,2.8-1.2c0,26.3,0,52.3,0,78.4C140.4,167.3,93.7,167.3,47,167.3z"/>
	<path d="M47,62.7h140v13.2c0,0.6-1.4,1.4-2.3,1.8c-17.9,8.7-62,30.1-66.2,31.9c-0.9,0.4-2.2,0.4-3.1,0
		C93.2,98.9,70.9,88.1,48.6,77.3C48,77,47,76,47,75.4V62.7z"/>
</g>
<circle fill="#F6F6F6" cx="116.5" cy="346.2" r="115"/>
<g>
	<path fill="#FF00A6" d="M47,398.6c0-26.2,0-52.1,0-78.4c1.2,0.6,2.4,1,3.4,1.5c21.5,10.2,43,20.4,64.5,30.7c1.6,0.7,2.8,0.7,4.3,0
		c21.6-10.3,43.3-20.6,65-30.9c0.8-0.4,1.8-0.8,2.8-1.2c0,26.3,0,52.3,0,78.4C140.4,398.6,93.7,398.6,47,398.6z"/>
	<path fill="#FF00A6" d="M47,293.9h140v13.2c0,0.6-1.4,1.4-2.3,1.8c-17.9,8.7-62,30.1-66.2,31.9c-0.9,0.4-2.2,0.4-3.1,0
		c-22.3-10.7-44.6-21.5-66.9-32.3c-0.7-0.3-1.6-1.3-1.6-1.9V293.9z"/>
</g>
<circle fill="#FF00A6" cx="116.5" cy="577.5" r="115"/>
<g>
	<path fill="#FFFFFF" d="M46,629.8c0-26.2,0-52.1,0-78.4c1.2,0.6,2.4,1,3.4,1.5c21.5,10.2,43,20.4,64.5,30.7c1.6,0.7,2.8,0.7,4.3,0
		c21.6-10.3,43.3-20.6,65-30.9c0.8-0.4,1.8-0.8,2.8-1.2c0,26.3,0,52.3,0,78.4C139.4,629.8,92.7,629.8,46,629.8z"/>
	<path fill="#FFFFFF" d="M46,525.2h140v13.2c0,0.6-1.4,1.4-2.3,1.8c-17.9,8.7-62,30.1-66.2,31.9c-0.9,0.4-2.2,0.4-3.1,0
		c-22.3-10.7-44.6-21.5-66.9-32.3c-0.7-0.3-1.6-1.3-1.6-1.9V525.2z"/>
</g>
<circle fill="#F6F6F6" cx="116.5" cy="808.8" r="115"/>
<g>
	<path fill="#B3B3B3" d="M46,861.1c0-26.2,0-52.1,0-78.4c1.2,0.6,2.4,1,3.4,1.5c21.5,10.2,43,20.4,64.5,30.7c1.6,0.7,2.8,0.7,4.3,0
		c21.6-10.3,43.3-20.6,65-30.9c0.8-0.4,1.8-0.8,2.8-1.2c0,26.3,0,52.3,0,78.4C139.4,861.1,92.7,861.1,46,861.1z"/>
	<path fill="#B3B3B3" d="M46,756.4h140v13.2c0,0.6-1.4,1.4-2.3,1.8c-17.9,8.7-62,30.1-66.2,31.9c-0.9,0.4-2.2,0.4-3.1,0
		c-22.3-10.7-44.6-21.5-66.9-32.3c-0.7-0.3-1.6-1.3-1.6-1.9V756.4z"/>
</g>
</svg>
