<?xml version="1.0" encoding="utf-8"?>
<!-- Generator: Adobe Illustrator 16.0.0, SVG Export Plug-In . SVG Version: 6.00 Build 0)  -->
<!DOCTYPE svg PUBLIC "-//W3C//DTD SVG 1.1//EN" "http://www.w3.org/Graphics/SVG/1.1/DTD/svg11.dtd">
<svg version="1.1" id="Layer_1" xmlns="http://www.w3.org/2000/svg" xmlns:xlink="http://www.w3.org/1999/xlink" x="0px" y="0px"
	 width="133.933px" height="536.783px" viewBox="316.667 0 133.933 536.783" enable-background="new 316.667 0 133.933 536.783"
	 xml:space="preserve">
<circle fill="#F6F6F6" cx="383.633" cy="201.133" r="66.967"/>
<circle fill="#F6F6F6" cx="383.633" cy="66.967" r="66.967"/>
<g>
	<path d="M360.533,68.775c0-4.783,0-9.566,0-14.35c3.617,0,7.175,0,10.967,0c0-4.55-0.058-8.691,0-12.892
		c0.059-7.816,4.258-13.941,11.317-16.625c6.008-2.333,12.25-1.458,18.433-1.167c0.525,0,1.342,1.05,1.342,1.692
		c0.117,3.966,0.058,7.933,0.058,12.191c-3.85,0-7.117-0.059-10.325,0c-2.625,0.059-4.9,0.934-5.075,3.908
		c-0.233,4.258-0.058,8.517-0.058,13.067c5.308,0,10.383,0,15.05,0c0,4.142-0.117,7.933,0.058,11.725
		c0.059,2.333-0.875,2.917-3.033,2.858c-3.967-0.175-7.933-0.059-12.308-0.059c0,13.65,0,26.95,0,40.25c-5.309,0-10.208,0-15.517,0
		c0-13.475,0-26.775,0-40.542C367.592,68.775,364.033,68.775,360.533,68.775z"/>
</g>
<g>
	<path fill="#FF00A6" d="M360.533,202.941c0-4.783,0-9.566,0-14.35c3.617,0,7.175,0,10.967,0c0-4.55-0.058-8.692,0-12.892
		c0.059-7.817,4.258-13.942,11.317-16.625c6.008-2.333,12.25-1.458,18.433-1.167c0.525,0,1.342,1.05,1.342,1.692
		c0.117,3.966,0.058,7.933,0.058,12.191c-3.85,0-7.117-0.058-10.325,0c-2.625,0.059-4.9,0.934-5.075,3.909
		c-0.233,4.258-0.058,8.517-0.058,13.066c5.308,0,10.383,0,15.05,0c0,4.142-0.117,7.934,0.058,11.725
		c0.059,2.333-0.875,2.917-3.033,2.858c-3.967-0.175-7.933-0.059-12.308-0.059c0,13.65,0,26.95,0,40.25c-5.309,0-10.208,0-15.517,0
		c0-13.475,0-26.775,0-40.542C367.592,202.941,364.033,202.941,360.533,202.941z"/>
</g>
<circle fill="#FF00A6" cx="383.633" cy="335.3" r="66.967"/>
<g>
	<path fill="#FFFFFF" d="M360.533,337.108c0-4.783,0-9.566,0-14.35c3.617,0,7.175,0,10.967,0c0-4.551-0.058-8.692,0-12.892
		c0.059-7.817,4.258-13.942,11.317-16.625c6.008-2.334,12.25-1.459,18.433-1.167c0.525,0,1.342,1.05,1.342,1.691
		c0.117,3.967,0.058,7.934,0.058,12.191c-3.85,0-7.117-0.058-10.325,0c-2.625,0.059-4.9,0.934-5.075,3.909
		c-0.233,4.258-0.058,8.517-0.058,13.066c5.308,0,10.383,0,15.05,0c0,4.142-0.117,7.934,0.058,11.725
		c0.059,2.334-0.875,2.917-3.033,2.858c-3.967-0.175-7.933-0.059-12.308-0.059c0,13.65,0,26.95,0,40.25c-5.309,0-10.208,0-15.517,0
		c0-13.475,0-26.774,0-40.541C367.592,337.108,364.033,337.108,360.533,337.108z"/>
</g>
<circle fill="#F6F6F6" cx="383.633" cy="469.816" r="66.967"/>
<g>
	<path fill="#B3B3B3" d="M360.533,471.625c0-4.783,0-9.566,0-14.35c3.617,0,7.175,0,10.967,0c0-4.551-0.058-8.692,0-12.892
		c0.059-7.817,4.258-13.942,11.317-16.625c6.008-2.334,12.25-1.459,18.433-1.167c0.525,0,1.342,1.05,1.342,1.691
		c0.117,3.967,0.058,7.934,0.058,12.191c-3.85,0-7.117-0.058-10.325,0c-2.625,0.059-4.9,0.934-5.075,3.909
		c-0.233,4.258-0.058,8.517-0.058,13.066c5.308,0,10.383,0,15.05,0c0,4.142-0.117,7.934,0.058,11.725
		c0.059,2.334-0.875,2.917-3.033,2.858c-3.967-0.175-7.933-0.059-12.308-0.059c0,13.65,0,26.95,0,40.25c-5.309,0-10.208,0-15.517,0
		c0-13.475,0-26.774,0-40.541C367.592,471.625,364.033,471.625,360.533,471.625z"/>
</g>
</svg>
