<?xml version="1.0" encoding="utf-8"?>
<!-- Generator: Adobe Illustrator 16.0.0, SVG Export Plug-In . SVG Version: 6.00 Build 0)  -->
<!DOCTYPE svg PUBLIC "-//W3C//DTD SVG 1.1//EN" "http://www.w3.org/Graphics/SVG/1.1/DTD/svg11.dtd">
<svg version="1.1" id="Layer_1" xmlns="http://www.w3.org/2000/svg" xmlns:xlink="http://www.w3.org/1999/xlink" x="0px" y="0px"
	 width="133.933px" height="536.783px" viewBox="316.667 0 133.933 536.783" enable-background="new 316.667 0 133.933 536.783"
	 xml:space="preserve">
<circle fill="#F6F6F6" cx="383.633" cy="201.133" r="66.967"/>
<circle fill="#FF00A6" cx="383.633" cy="335.3" r="66.967"/>
<circle fill="#F6F6F6" cx="383.633" cy="469.816" r="66.967"/>
<circle fill="#F6F6F6" cx="383.633" cy="66.967" r="66.967"/>
<g>
	<path d="M379.025,82.542c-2.45,10.792-4.841,21.292-13.183,29.867c-1.167-7.233-1.458-13.708,0-20.125
		c1.75-7.933,3.733-15.808,5.542-23.742c0.35-1.458,0.175-3.091-0.117-4.608c-0.816-4.025-1.167-7.992,0.467-11.842
		c0.642-1.517,1.633-2.975,2.742-4.142c2.275-2.392,5.833-3.034,8.517-1.75c2.508,1.167,4.083,3.908,3.617,7.292
		c-0.408,3.15-1.283,6.242-2.042,9.275c-0.583,2.275-1.342,4.492-1.983,6.708c-0.875,3.033-0.525,5.833,1.808,7.992
		c2.567,2.392,5.833,3.033,8.867,1.458c2.567-1.283,5.192-3.208,6.825-5.542c4.608-6.533,5.95-14.117,5.191-21.933
		c-0.875-9.1-6.417-14.409-15.75-16.1c-15.108-2.684-28.525,8.225-28.408,23.1c0,3.383,0.875,6.475,2.975,9.158
		c1.167,1.517,0.992,6.65-0.525,7.816c-0.642,0.525-2.159,0.467-3.034,0.059c-4.841-2.392-7.292-6.592-8.4-11.667
		c-3.558-16.042,6.767-31.85,23.625-35.991c9.858-2.392,19.6-2.042,28.467,3.616c10.85,6.884,14.583,17.092,12.892,29.517
		c-1.05,7.875-3.792,15.05-9.625,20.708c-4.667,4.492-10.325,6.65-16.8,6.534C386.142,88.083,382.35,86.275,379.025,82.542z"/>
</g>
<g>
	<path fill="#FF00A6" d="M379.9,216.708c-2.45,10.792-4.841,21.292-13.183,29.867c-1.167-7.233-1.458-13.708,0-20.125
		c1.75-7.934,3.733-15.809,5.542-23.742c0.35-1.458,0.175-3.092-0.117-4.608c-0.816-4.025-1.167-7.992,0.467-11.842
		c0.642-1.517,1.633-2.975,2.742-4.142c2.275-2.392,5.833-3.033,8.517-1.75c2.508,1.167,4.083,3.908,3.617,7.292
		c-0.408,3.15-1.283,6.242-2.042,9.275c-0.583,2.275-1.342,4.491-1.983,6.708c-0.875,3.033-0.525,5.833,1.808,7.992
		c2.567,2.392,5.833,3.033,8.867,1.458c2.567-1.283,5.192-3.208,6.825-5.542c4.608-6.533,5.95-14.116,5.191-21.933
		c-0.875-9.1-6.417-14.408-15.75-16.1c-15.05-2.742-28.466,8.225-28.408,23.1c0,3.383,0.875,6.475,2.975,9.158
		c1.167,1.517,0.992,6.65-0.525,7.817c-0.642,0.525-2.159,0.467-3.034,0.058c-4.841-2.392-7.292-6.591-8.4-11.667
		c-3.558-16.042,6.767-31.85,23.625-35.992c9.858-2.392,19.6-2.042,28.467,3.617c10.85,6.883,14.583,17.092,12.892,29.517
		c-1.05,7.875-3.792,15.05-9.625,20.708c-4.667,4.492-10.325,6.65-16.8,6.533C387.017,222.25,383.225,220.441,379.9,216.708z"/>
</g>
<g>
	<path fill="#FFFFFF" d="M379.025,350.875c-2.45,10.792-4.841,21.292-13.183,29.866c-1.167-7.233-1.458-13.708,0-20.125
		c1.75-7.933,3.733-15.808,5.542-23.741c0.35-1.458,0.175-3.092-0.117-4.608c-0.816-4.025-1.167-7.991,0.467-11.842
		c0.642-1.517,1.633-2.975,2.742-4.142c2.275-2.392,5.833-3.033,8.517-1.75c2.508,1.167,4.083,3.908,3.617,7.292
		c-0.408,3.149-1.283,6.241-2.042,9.274c-0.583,2.275-1.342,4.492-1.983,6.709c-0.875,3.033-0.525,5.833,1.808,7.991
		c2.567,2.392,5.833,3.033,8.867,1.459c2.567-1.284,5.192-3.209,6.825-5.542c4.608-6.533,5.95-14.117,5.191-21.934
		c-0.875-9.1-6.417-14.408-15.75-16.1c-15.108-2.684-28.525,8.225-28.408,23.1c0,3.384,0.875,6.475,2.975,9.158
		c1.167,1.517,0.992,6.65-0.525,7.817c-0.642,0.524-2.159,0.466-3.034,0.058c-4.841-2.392-7.292-6.592-8.4-11.666
		c-3.558-16.042,6.767-31.851,23.625-35.992c9.858-2.392,19.6-2.041,28.467,3.617c10.85,6.883,14.583,17.091,12.892,29.517
		c-1.05,7.875-3.792,15.05-9.625,20.708c-4.667,4.491-10.325,6.65-16.8,6.533C386.142,356.417,382.35,354.608,379.025,350.875z"/>
</g>
<g>
	<path fill="#AAAAAA" d="M379.025,485.392c-2.45,10.792-4.841,21.292-13.183,29.866c-1.167-7.232-1.458-13.708,0-20.125
		c1.75-7.933,3.733-15.808,5.542-23.741c0.35-1.458,0.175-3.092-0.117-4.608c-0.816-4.025-1.167-7.991,0.467-11.842
		c0.642-1.517,1.633-2.975,2.742-4.142c2.275-2.392,5.833-3.033,8.517-1.75c2.508,1.167,4.083,3.908,3.617,7.292
		c-0.408,3.149-1.283,6.241-2.042,9.274c-0.583,2.275-1.342,4.492-1.983,6.709c-0.875,3.033-0.525,5.833,1.808,7.991
		c2.567,2.392,5.833,3.033,8.867,1.459c2.567-1.284,5.192-3.209,6.825-5.542c4.608-6.533,5.95-14.117,5.191-21.934
		c-0.875-9.1-6.417-14.408-15.75-16.1c-15.108-2.684-28.525,8.225-28.408,23.1c0,3.384,0.875,6.476,2.975,9.158
		c1.167,1.517,0.992,6.65-0.525,7.817c-0.642,0.524-2.159,0.466-3.034,0.058c-4.841-2.392-7.292-6.592-8.4-11.666
		c-3.558-16.042,6.767-31.851,23.625-35.992c9.858-2.392,19.6-2.042,28.467,3.617c10.85,6.883,14.583,17.091,12.892,29.517
		c-1.05,7.875-3.792,15.05-9.625,20.708c-4.667,4.491-10.325,6.65-16.8,6.533C386.142,490.934,382.35,489.184,379.025,485.392z"/>
</g>
</svg>
