<svg xmlns="http://www.w3.org/2000/svg" xmlns:xlink="http://www.w3.org/1999/xlink" version="1.1" id="Layer_1" x="0px" y="0px" width="33.367px" height="11.283px" viewBox="320.283 4.55 33.367 11.283" enable-background="new 320.283 4.55 33.367 11.283" xml:space="preserve"><g><g><path fill="#666666" d="M320.05 12.658l0.875-0.467c0.35 0.759 0.934 1.108 1.75 1.108 0.759 0 1.284-0.233 1.284-0.816 0-0.525-0.409-0.817-1.458-1.108 -1.225-0.35-2.217-0.7-2.217-1.925 0-1.108 0.875-1.809 2.159-1.809 1.225 0 1.983 0.642 2.392 1.342l-0.758 0.525c-0.35-0.642-0.934-0.933-1.575-0.933 -0.7 0-1.108 0.233-1.108 0.7 0 0.583 0.467 0.817 1.517 1.108 1.225 0.35 2.159 0.758 2.159 1.925 0 1.05-0.875 1.866-2.392 1.866C321.392 14.233 320.458 13.592 320.05 12.658zM325.825 13.008c0-0.992 0.816-1.633 2.975-1.867v-0.117c0-0.466-0.233-0.642-0.758-0.642 -0.642 0-1.167 0.292-1.517 0.642l-0.525-0.7c0.467-0.467 1.225-0.817 2.217-0.817 1.225 0 1.633 0.583 1.633 1.633v1.867c0 0.525 0.058 0.875 0.117 1.108h-1.05c-0.058-0.175-0.117-0.35-0.117-0.583 -0.466 0.467-1.05 0.642-1.691 0.642C326.35 14.175 325.825 13.767 325.825 13.008zM328.742 12.833v-0.992c-1.283 0.175-1.925 0.467-1.925 0.992 0 0.35 0.233 0.525 0.642 0.525C328.042 13.358 328.45 13.184 328.742 12.833zM331.542 14.117v-3.733h-0.816V9.566h0.816V9.1c0-0.758 0.292-1.342 1.458-1.342 0.175 0 0.525 0.058 0.642 0.058v0.817c-0.058 0-0.233-0.058-0.35-0.058 -0.35 0-0.7 0.116-0.7 0.583v0.408h0.992v0.817h-0.992v3.733H331.542zM334.108 11.842c0-1.75 1.225-2.392 2.158-2.392 0.992 0 1.983 0.583 1.983 2.45v0.233h-3.092c0.059 0.817 0.525 1.167 1.225 1.167 0.583 0 0.934-0.175 1.283-0.525l0.583 0.525c-0.467 0.525-1.108 0.817-1.925 0.817C335.158 14.233 334.108 13.533 334.108 11.842zM337.317 11.375c-0.059-0.7-0.409-1.05-1.05-1.05 -0.525 0-0.992 0.292-1.108 1.05H337.317z"/><path fill="#B3B3B3" d="M339.592 14.117V7.758h0.758v3.267l2.858-3.267h0.933l-2.158 2.392 2.45 3.909h-0.875l-2.1-3.325 -1.108 1.225v2.158H339.592zM344.842 11.842c0-1.633 1.108-2.333 2.042-2.333 1.05 0 1.867 0.758 1.867 2.392v0.175h-3.208c0 0.991 0.642 1.575 1.342 1.575 0.642 0 0.992-0.292 1.342-0.758l0.408 0.35c-0.408 0.583-0.992 0.933-1.867 0.933C345.833 14.233 344.842 13.417 344.842 11.842zM348.108 11.492c-0.059-0.817-0.467-1.342-1.167-1.342 -0.583 0-1.167 0.409-1.284 1.342H348.108zM349.333 15.75l0.175-0.583c0.117 0.059 0.35 0.059 0.642 0.059 0.467 0 0.7-0.175 0.875-0.642l0.175-0.467 -1.75-4.55h0.758l1.341 3.675 0 0 1.342-3.675h0.758l-1.925 5.017c-0.292 0.816-0.642 1.225-1.517 1.225C349.8 15.867 349.508 15.809 349.333 15.75z"/></g><path fill="#666666" d="M329.559 5.075c0-0.409-0.35-0.467-0.7-0.467 -0.117 0-0.292 0-0.467 0 -0.292 0-0.583 0-0.583 0v1.458h0.583V5.542h0.059l0.466 0.525h0.875l-0.642-0.583C329.383 5.483 329.559 5.309 329.559 5.075zM328.742 5.25c-0.117 0-0.35 0-0.35 0V4.9h0.35c0.117 0 0.233 0.059 0.233 0.175C328.975 5.191 328.858 5.25 328.742 5.25zM332.184 4.55c0.292 0 0.466 0.059 0.583 0.059v0.35c-0.117 0-0.292-0.059-0.467-0.059 -0.116 0-0.583 0-0.583 0.409 0 0.408 0.467 0.408 0.583 0.408 0.175 0 0.35-0.059 0.467-0.059v0.35c-0.117 0.058-0.292 0.058-0.583 0.058 -0.292 0-1.167-0.058-1.167-0.758C331.017 4.667 331.833 4.55 332.184 4.55zM329.967 4.608h0.7v1.458h-0.642V4.608H329.967zM325.767 4.608h1.517V4.9h-0.875v0.292h0.875v0.292h-0.875v0.292h0.875v0.35h-1.517V4.608zM321.042 4.608l-0.758 1.458h0.642l0.117-0.292h0.758l0.117 0.292h0.642l-0.7-1.458H321.042zM321.217 5.483l0.233-0.467 0.233 0.467H321.217zM325.125 4.608l0.35 1.458h-0.583l-0.233-0.816 -0.408 0.816h-0.408l-0.35-0.816 -0.175 0.816h-0.583l0.35-1.458h0.642l0.35 0.758 0.35-0.758H325.125zM342.508 5.309l0.7 0.758h-0.7L342.1 5.6l-0.408 0.466h-0.7l0.7-0.758 -0.642-0.7h0.7l0.292 0.408 0.292-0.408h0.758L342.508 5.309zM347.875 4.608h1.517V4.9h-0.875v0.292h0.875v0.292h-0.875v0.292h0.875v0.35h-1.517V4.608zM351.492 5.658c0 0.175-0.117 0.467-0.875 0.467 -0.642 0-0.817-0.117-0.933-0.175l0.175-0.292c0.233 0.117 0.467 0.117 0.583 0.117 0.175 0 0.292-0.058 0.292-0.117 0-0.117-0.117-0.117-0.35-0.117s-0.642-0.058-0.7-0.408c0-0.35 0.35-0.525 0.816-0.525 0.292 0 0.642 0.058 0.875 0.175l-0.233 0.233c-0.175-0.058-0.35-0.058-0.467-0.058 -0.175 0-0.35 0-0.35 0.117 0 0.116 0.175 0.116 0.292 0.116 0.175 0 0.35 0 0.525 0.117C351.434 5.367 351.492 5.483 351.492 5.658zM353.533 5.658c0 0.175-0.117 0.467-0.875 0.467 -0.642 0-0.816-0.117-0.992-0.175l0.175-0.292c0.233 0.117 0.467 0.117 0.583 0.117 0.175 0 0.292-0.058 0.292-0.117 0-0.117-0.117-0.117-0.35-0.117s-0.7-0.058-0.7-0.408 0.35-0.525 0.875-0.525c0.292 0 0.642 0.058 0.875 0.175l-0.233 0.233c-0.175-0.058-0.35-0.058-0.467-0.058 -0.175 0-0.35 0-0.35 0.117 0 0.116 0.175 0.116 0.292 0.116 0.175 0 0.35 0 0.525 0.117C353.533 5.367 353.533 5.483 353.533 5.658zM347.467 5.075c0-0.409-0.35-0.467-0.7-0.467 -0.117 0-0.292 0-0.525 0 -0.292 0-0.583 0-0.583 0v1.458h0.583V5.542h0.058l0.467 0.525h0.817l-0.642-0.583C347.292 5.483 347.467 5.309 347.467 5.075zM346.592 5.25c-0.117 0-0.35 0-0.35 0V4.9h0.35c0.117 0 0.233 0.059 0.233 0.175C346.825 5.191 346.708 5.25 346.592 5.25zM337.083 4.608h0.583v1.458h-0.7l-0.875-0.816v0.816h-0.583V4.608h0.7l0.875 0.816V4.608zM333.7 4.608l-0.758 1.458h0.642l0.117-0.292h0.758l0.117 0.292h0.642l-0.758-1.458H333.7zM333.817 5.483l0.233-0.467 0.233 0.467H333.817zM339.125 4.608h1.517V4.9h-0.875v0.292h0.875v0.292h-0.875v0.292h0.875v0.35h-1.517V4.608zM344.608 4.608c-0.117 0-0.292 0-0.467 0 -0.292 0-0.583 0-0.583 0v1.458h0.583V5.542c0 0 0.233 0 0.408 0 0.175 0 0.35 0 0.467-0.058 0.175-0.059 0.292-0.175 0.292-0.408C345.309 4.667 344.958 4.608 344.608 4.608zM344.492 5.25c-0.117 0-0.35 0-0.35 0V4.9c0 0 0.292 0 0.35 0 0.117 0 0.233 0.059 0.233 0.175C344.667 5.191 344.608 5.25 344.492 5.25z"/></g></svg>