<?xml version="1.0" encoding="utf-8"?>
<!-- Generator: Adobe Illustrator 16.0.0, SVG Export Plug-In . SVG Version: 6.00 Build 0)  -->
<!DOCTYPE svg PUBLIC "-//W3C//DTD SVG 1.1//EN" "http://www.w3.org/Graphics/SVG/1.1/DTD/svg11.dtd">
<svg version="1.1" id="Layer_1" xmlns="http://www.w3.org/2000/svg" xmlns:xlink="http://www.w3.org/1999/xlink" x="0px" y="0px"
	 width="133.933px" height="536.783px" viewBox="316.667 0 133.933 536.783" enable-background="new 316.667 0 133.933 536.783"
	 xml:space="preserve">
<circle fill="#F6F6F6" cx="383.633" cy="201.133" r="66.967"/>
<circle fill="#F6F6F6" cx="383.633" cy="66.967" r="66.967"/>
<circle fill="#FF00A6" cx="383.633" cy="335.3" r="66.967"/>
<circle fill="#F6F6F6" cx="383.633" cy="469.816" r="66.967"/>
<g>
	<path d="M337.9,42.642c0-1.633-0.058-3.617-0.233-6.066c2.159,0.058,5.833,0.116,11.025,0.116c5.191,0,8.808-0.058,10.966-0.116
		c-0.175,2.392-0.233,4.433-0.233,6.066c0,0.992,0.059,1.925,0.117,2.684h-0.875c-0.408-1.983-0.875-3.559-1.458-4.725
		c-0.583-1.167-1.225-1.983-2.042-2.508c-0.816-0.525-1.75-0.758-2.917-0.758h-0.816V57.75c0,0.992,0.116,1.691,0.292,2.158
		c0.175,0.467,0.583,0.758,1.05,0.934c0.467,0.175,1.342,0.233,2.45,0.233v0.7c-2.975-0.058-5.25-0.117-6.767-0.117
		s-3.675,0.059-6.534,0.117v-0.7c1.108,0,1.925-0.117,2.45-0.233s0.875-0.467,1.05-0.934c0.175-0.467,0.292-1.167,0.292-2.158v-20.3
		h-0.758c-1.167,0-2.1,0.233-2.917,0.758c-0.816,0.525-1.458,1.341-2.042,2.45c-0.583,1.167-1.05,2.742-1.458,4.725h-0.816
		C337.842,44.566,337.9,43.691,337.9,42.642z"/>
	<path d="M386.083,37.625c-0.35,0.175-0.583,0.408-0.758,0.816c-0.117,0.409-0.175,1.05-0.175,1.925v17.675
		c0,0.875,0.059,1.517,0.175,1.925s0.408,0.7,0.758,0.816c0.35,0.175,0.933,0.233,1.75,0.292v0.7
		c-1.167-0.058-2.975-0.117-5.425-0.117c-2.392,0-4.258,0.059-5.6,0.117v-0.7c0.758-0.059,1.341-0.117,1.75-0.292
		c0.35-0.175,0.642-0.408,0.758-0.816s0.175-1.05,0.175-1.925v-8.575h-9.45v8.575c0,0.875,0.059,1.517,0.175,1.925
		s0.35,0.7,0.758,0.816c0.35,0.175,0.933,0.233,1.75,0.292v0.7c-1.283-0.058-3.033-0.117-5.367-0.117
		c-2.508,0-4.434,0.059-5.6,0.117v-0.7c0.758-0.059,1.342-0.117,1.692-0.292c0.35-0.175,0.583-0.408,0.758-0.816
		c0.117-0.408,0.175-1.05,0.175-1.925V40.367c0-0.875-0.058-1.517-0.175-1.925c-0.117-0.408-0.409-0.7-0.758-0.816
		c-0.35-0.175-0.934-0.233-1.692-0.292v-0.7c1.167,0.058,3.092,0.117,5.6,0.117c2.333,0,4.083-0.059,5.367-0.117v0.7
		c-0.817,0.058-1.4,0.117-1.75,0.292s-0.583,0.408-0.758,0.816c-0.117,0.409-0.175,1.05-0.175,1.925v8.4h9.45v-8.4
		c0-0.875-0.058-1.517-0.175-1.925c-0.117-0.408-0.409-0.7-0.758-0.816c-0.35-0.175-0.934-0.233-1.75-0.292v-0.7
		c1.341,0.058,3.208,0.117,5.6,0.117s4.2-0.059,5.425-0.117v0.7C387.017,37.392,386.434,37.45,386.083,37.625z"/>
	<path d="M409.708,56.408c0,2.158,0.058,3.967,0.233,5.425c-1.633-0.059-4.317-0.117-8.167-0.117c-5.191,0-9.042,0.058-11.608,0.117
		v-0.7c0.758-0.058,1.342-0.117,1.692-0.292c0.35-0.175,0.583-0.408,0.758-0.817c0.117-0.408,0.175-1.05,0.175-1.925V40.367
		c0-0.875-0.058-1.517-0.175-1.925c-0.117-0.408-0.408-0.7-0.758-0.816c-0.35-0.175-0.934-0.233-1.692-0.292v-0.7
		c2.567,0.058,6.417,0.117,11.608,0.117c3.5,0,5.95-0.059,7.409-0.117c-0.175,1.983-0.233,3.733-0.233,5.25
		c0,1.05,0.058,1.867,0.117,2.392h-0.817c-0.233-1.75-0.642-3.091-1.108-4.083c-0.525-0.991-1.108-1.691-1.867-2.158
		s-1.691-0.642-2.858-0.642h-1.458c-0.758,0-1.284,0.059-1.633,0.175c-0.35,0.117-0.525,0.35-0.642,0.7
		c-0.117,0.35-0.175,0.875-0.175,1.633v8.809h1.108c1.283,0,2.217-0.467,2.858-1.4c0.642-0.934,1.108-2.042,1.342-3.325h0.816
		c-0.058,1.167-0.117,2.275-0.117,3.325V49c0,1.225,0.059,2.917,0.233,5.075h-0.816c-0.467-3.15-1.925-4.725-4.317-4.725h-1.108
		v8.983c0,0.758,0.059,1.341,0.175,1.633c0.116,0.35,0.35,0.583,0.642,0.7c0.35,0.117,0.875,0.175,1.633,0.175h1.75
		c1.691,0,3.033-0.583,4.083-1.75c1.05-1.167,1.75-3.092,2.217-5.833h0.817C409.708,54.191,409.708,55.184,409.708,56.408z"/>
	<path d="M355.809,83.592c1.341,0.642,2.333,1.4,2.917,2.275s0.875,1.867,0.875,2.917c0,1.458-0.408,2.742-1.167,3.733
		c-0.759,0.992-1.925,1.809-3.384,2.333c-1.458,0.525-3.208,0.816-5.25,0.816c-0.525,0-1.4,0-2.625-0.058
		c-1.225-0.059-2.45-0.059-3.733-0.059c-2.45,0-4.258,0.059-5.483,0.117v-0.7c0.758-0.059,1.341-0.117,1.691-0.292
		c0.35-0.175,0.583-0.408,0.758-0.816c0.117-0.408,0.175-1.05,0.175-1.925V74.258c0-0.875-0.059-1.517-0.175-1.925
		c-0.117-0.409-0.408-0.7-0.758-0.817c-0.35-0.175-0.933-0.233-1.691-0.292v-0.7c1.167,0.059,2.975,0.117,5.425,0.117
		c0.934,0,1.983,0,3.15-0.058c1.167-0.059,1.983-0.059,2.392-0.059c1.925,0,3.5,0.233,4.842,0.7
		c1.342,0.466,2.275,1.108,2.975,1.983s0.992,1.808,0.992,2.917c0,0.875-0.233,1.75-0.758,2.566
		c-0.525,0.817-1.283,1.575-2.392,2.275c-1.05,0.642-2.392,1.108-3.967,1.4v0.058C352.717,82.542,354.467,82.95,355.809,83.592z
		 M351.083,80.675c0.642-1.05,0.933-2.45,0.933-4.2c0-1.809-0.292-3.092-0.816-3.967c-0.583-0.875-1.458-1.283-2.684-1.283
		c-0.642,0-1.108,0.058-1.4,0.233c-0.292,0.175-0.525,0.466-0.642,0.875c-0.117,0.408-0.175,1.05-0.175,1.925v7.992h1.517
		C349.333,82.25,350.442,81.725,351.083,80.675z M346.475,93.742c0.117,0.408,0.35,0.7,0.7,0.816
		c0.35,0.117,0.875,0.233,1.575,0.233c3.325,0,4.958-2.1,4.958-6.242c0-1.867-0.467-3.267-1.4-4.258
		c-0.934-0.992-2.45-1.458-4.492-1.458H346.3v8.983C346.3,92.75,346.358,93.392,346.475,93.742z"/>
	<path d="M371.092,71.458c-0.408,0.175-0.642,0.408-0.817,0.816c-0.117,0.408-0.233,1.05-0.233,1.925v18.083
		c0,0.758,0.059,1.342,0.175,1.633c0.117,0.35,0.292,0.583,0.642,0.7c0.292,0.117,0.816,0.175,1.458,0.175h1.75
		c1.05,0,2.042-0.35,2.975-0.992c0.875-0.642,1.633-1.575,2.275-2.8c0.583-1.225,1.05-2.566,1.283-4.142h0.816
		c-0.058,0.816-0.117,1.867-0.117,3.15c0,2.275,0.059,4.142,0.233,5.658c-1.633-0.058-4.316-0.117-8.167-0.117
		c-5.192,0-9.042,0.059-11.608,0.117v-0.7c0.758-0.059,1.342-0.117,1.692-0.292c0.35-0.175,0.583-0.408,0.758-0.816
		c0.117-0.408,0.175-1.05,0.175-1.925V74.258c0-0.875-0.058-1.517-0.175-1.925c-0.117-0.409-0.409-0.7-0.758-0.817
		c-0.35-0.175-0.934-0.233-1.692-0.292v-0.7c1.167,0.059,3.092,0.117,5.6,0.117c2.392,0,4.258-0.058,5.6-0.117v0.7
		C372.142,71.225,371.5,71.283,371.092,71.458z"/>
	<path d="M403,71.458c1.867,0.992,3.383,2.508,4.434,4.433c1.05,1.925,1.575,4.258,1.575,6.942c0,2.625-0.525,4.958-1.633,6.941
		s-2.566,3.559-4.492,4.667c-1.925,1.108-4.083,1.692-6.533,1.692c-2.508,0-4.725-0.525-6.592-1.517s-3.383-2.508-4.375-4.434
		c-0.992-1.925-1.575-4.258-1.575-6.941c0-2.625,0.525-4.958,1.575-6.942c1.05-2.042,2.567-3.558,4.492-4.667
		s4.083-1.692,6.533-1.692C398.917,69.941,401.133,70.467,403,71.458z M392.85,72.158c-0.992,1.05-1.75,2.508-2.275,4.434
		c-0.525,1.867-0.817,4.083-0.817,6.533s0.292,4.667,0.875,6.533s1.4,3.325,2.45,4.317c1.05,0.992,2.158,1.517,3.441,1.517
		c1.284,0,2.45-0.525,3.442-1.575c0.992-1.05,1.75-2.508,2.275-4.433c0.525-1.867,0.817-4.083,0.817-6.533
		c0-2.45-0.292-4.608-0.875-6.534c-0.583-1.867-1.4-3.325-2.45-4.375c-1.05-0.992-2.158-1.517-3.442-1.517
		C394.95,70.583,393.842,71.108,392.85,72.158z"/>
	<path d="M433.217,94.267c-0.175-0.408-0.408-0.642-0.759-0.642c-0.408,0-1.05,0.233-1.925,0.758
		c-2.041,1.167-4.024,1.808-5.833,1.808c-2.742,0-5.075-0.525-6.942-1.517s-3.325-2.45-4.316-4.375
		c-0.992-1.925-1.458-4.2-1.458-6.883c0-2.625,0.525-5.017,1.633-7c1.108-2.042,2.625-3.617,4.55-4.725
		c1.925-1.108,4.201-1.691,6.65-1.691c1.459,0,2.684,0.175,3.733,0.583c0.992,0.408,1.983,0.992,2.976,1.691
		c0.291,0.233,0.524,0.35,0.699,0.35c0.233,0,0.409-0.175,0.584-0.525s0.233-0.875,0.35-1.633h0.816
		c-0.116,1.633-0.116,4.492-0.116,8.633h-0.816c-0.175-1.575-0.467-2.917-0.817-3.909c-0.35-0.991-0.991-1.866-1.866-2.566
		c-0.583-0.525-1.283-0.992-2.1-1.283c-0.817-0.292-1.692-0.467-2.567-0.467c-1.633,0-3.033,0.583-4.142,1.691
		c-1.108,1.108-1.925,2.625-2.45,4.492s-0.817,3.85-0.817,6.067c0,8.225,2.275,12.308,6.825,12.308c1.05,0,1.866-0.233,2.509-0.7
		c0.291-0.233,0.524-0.467,0.642-0.758c0.116-0.292,0.175-0.642,0.175-1.108v-3.5c0-1.108-0.117-1.925-0.292-2.45
		s-0.524-0.875-0.991-1.05c-0.467-0.175-1.226-0.292-2.275-0.35v-0.7c1.342,0.059,3.384,0.117,6.066,0.117
		c2.217,0,3.792-0.058,4.783-0.117v0.7c-0.466,0.059-0.816,0.117-1.05,0.292c-0.233,0.117-0.35,0.409-0.408,0.817
		s-0.116,1.05-0.116,1.983v7.058h-0.7C433.509,95.142,433.392,94.675,433.217,94.267z"/>
</g>
<g>
	<path fill="#FF00A6" d="M337.9,176.809c0-1.634-0.058-3.617-0.233-6.067c2.159,0.058,5.833,0.117,11.025,0.117
		c5.191,0,8.808-0.059,10.966-0.117c-0.175,2.392-0.233,4.433-0.233,6.067c0,0.991,0.059,1.925,0.117,2.683h-0.875
		c-0.408-1.983-0.875-3.558-1.458-4.725c-0.583-1.167-1.225-1.983-2.042-2.508c-0.816-0.525-1.75-0.758-2.917-0.758h-0.816v20.417
		c0,0.992,0.116,1.692,0.292,2.159c0.175,0.466,0.583,0.758,1.05,0.933c0.467,0.175,1.342,0.233,2.45,0.233v0.7
		c-2.975-0.059-5.25-0.117-6.767-0.117s-3.675,0.058-6.534,0.117v-0.7c1.108,0,1.925-0.117,2.45-0.233s0.875-0.467,1.05-0.933
		c0.175-0.467,0.292-1.167,0.292-2.159v-20.3h-0.758c-1.167,0-2.1,0.233-2.917,0.758c-0.816,0.525-1.458,1.342-2.042,2.45
		c-0.583,1.167-1.05,2.742-1.458,4.725h-0.816C337.842,178.733,337.9,177.858,337.9,176.809z"/>
	<path fill="#FF00A6" d="M386.083,171.792c-0.35,0.175-0.583,0.409-0.758,0.817c-0.117,0.408-0.175,1.05-0.175,1.925v17.675
		c0,0.875,0.059,1.517,0.175,1.925s0.408,0.7,0.758,0.817c0.35,0.175,0.933,0.233,1.75,0.292v0.7
		c-1.167-0.058-2.975-0.116-5.425-0.116c-2.392,0-4.258,0.058-5.6,0.116v-0.7c0.758-0.059,1.341-0.117,1.75-0.292
		c0.35-0.175,0.642-0.409,0.758-0.817s0.175-1.05,0.175-1.925v-8.575h-9.45v8.575c0,0.875,0.059,1.517,0.175,1.925
		s0.35,0.7,0.758,0.817c0.35,0.175,0.933,0.233,1.75,0.292v0.7c-1.283-0.058-3.033-0.116-5.367-0.116
		c-2.508,0-4.434,0.058-5.6,0.116v-0.7c0.758-0.059,1.342-0.117,1.692-0.292c0.35-0.175,0.583-0.409,0.758-0.817
		c0.117-0.408,0.175-1.05,0.175-1.925v-17.675c0-0.875-0.058-1.517-0.175-1.925s-0.409-0.7-0.758-0.817
		c-0.35-0.175-0.934-0.233-1.692-0.292v-0.7c1.167,0.059,3.092,0.117,5.6,0.117c2.333,0,4.083-0.058,5.367-0.117v0.7
		c-0.817,0.059-1.4,0.117-1.75,0.292c-0.35,0.175-0.583,0.409-0.758,0.817c-0.117,0.408-0.175,1.05-0.175,1.925v8.4h9.45v-8.4
		c0-0.875-0.058-1.517-0.175-1.925s-0.409-0.7-0.758-0.817c-0.35-0.175-0.934-0.233-1.75-0.292v-0.7
		c1.341,0.059,3.208,0.117,5.6,0.117s4.2-0.058,5.425-0.117v0.7C387.017,171.559,386.434,171.617,386.083,171.792z"/>
	<path fill="#FF00A6" d="M409.708,190.575c0,2.158,0.058,3.966,0.233,5.425c-1.633-0.059-4.317-0.117-8.167-0.117
		c-5.191,0-9.042,0.058-11.608,0.117v-0.7c0.758-0.058,1.342-0.117,1.692-0.292s0.583-0.408,0.758-0.817
		c0.117-0.408,0.175-1.05,0.175-1.925v-17.675c0-0.875-0.058-1.517-0.175-1.925c-0.117-0.408-0.408-0.7-0.758-0.816
		c-0.35-0.175-0.934-0.233-1.692-0.292v-0.7c2.567,0.058,6.417,0.117,11.608,0.117c3.5,0,5.95-0.059,7.409-0.117
		c-0.175,1.983-0.233,3.733-0.233,5.25c0,1.05,0.058,1.867,0.117,2.392h-0.817c-0.233-1.75-0.642-3.092-1.108-4.083
		c-0.525-0.992-1.108-1.691-1.867-2.158s-1.691-0.642-2.858-0.642h-1.458c-0.758,0-1.284,0.058-1.633,0.175
		c-0.35,0.117-0.525,0.35-0.642,0.7c-0.117,0.35-0.175,0.875-0.175,1.633v8.809h1.108c1.283,0,2.217-0.467,2.858-1.4
		c0.642-0.933,1.108-2.042,1.342-3.325h0.816c-0.058,1.167-0.117,2.275-0.117,3.325v1.692c0,1.225,0.059,2.917,0.233,5.075h-0.816
		c-0.467-3.15-1.925-4.725-4.317-4.725h-1.108v8.983c0,0.758,0.059,1.341,0.175,1.633c0.116,0.35,0.35,0.583,0.642,0.7
		c0.35,0.117,0.875,0.175,1.633,0.175h1.75c1.691,0,3.033-0.583,4.083-1.75c1.05-1.167,1.75-3.091,2.217-5.833h0.817
		C409.708,188.358,409.708,189.35,409.708,190.575z"/>
	<path fill="#FF00A6" d="M355.809,217.758c1.341,0.642,2.333,1.4,2.917,2.275s0.875,1.867,0.875,2.917
		c0,1.458-0.408,2.741-1.167,3.733c-0.759,0.992-1.925,1.809-3.384,2.333c-1.458,0.525-3.208,0.817-5.25,0.817
		c-0.525,0-1.4,0-2.625-0.059c-1.225-0.058-2.45-0.058-3.733-0.058c-2.45,0-4.258,0.058-5.483,0.117v-0.7
		c0.758-0.058,1.341-0.117,1.691-0.292c0.35-0.175,0.583-0.409,0.758-0.817c0.117-0.408,0.175-1.05,0.175-1.925v-17.675
		c0-0.875-0.059-1.517-0.175-1.925s-0.408-0.7-0.758-0.816c-0.35-0.175-0.933-0.233-1.691-0.292v-0.7
		c1.167,0.059,2.975,0.117,5.425,0.117c0.934,0,1.983,0,3.15-0.059c1.167-0.059,1.983-0.059,2.392-0.059
		c1.925,0,3.5,0.233,4.842,0.7s2.275,1.108,2.975,1.983s0.992,1.809,0.992,2.917c0,0.875-0.233,1.75-0.758,2.567
		c-0.525,0.816-1.283,1.575-2.392,2.275c-1.05,0.642-2.392,1.108-3.967,1.4v0.059C352.717,216.708,354.467,217.117,355.809,217.758z
		 M351.083,214.842c0.642-1.05,0.933-2.45,0.933-4.2c0-1.808-0.292-3.092-0.816-3.967c-0.583-0.875-1.458-1.283-2.684-1.283
		c-0.642,0-1.108,0.059-1.4,0.233s-0.525,0.467-0.642,0.875s-0.175,1.05-0.175,1.925v7.992h1.517
		C349.333,216.417,350.442,215.892,351.083,214.842z M346.475,227.908c0.117,0.408,0.35,0.7,0.7,0.817
		c0.35,0.117,0.875,0.233,1.575,0.233c3.325,0,4.958-2.1,4.958-6.242c0-1.867-0.467-3.267-1.4-4.258
		c-0.934-0.992-2.45-1.458-4.492-1.458H346.3v8.983C346.3,226.917,346.358,227.559,346.475,227.908z"/>
	<path fill="#FF00A6" d="M371.092,205.625c-0.408,0.175-0.642,0.408-0.817,0.816c-0.117,0.409-0.233,1.05-0.233,1.925v18.083
		c0,0.758,0.059,1.341,0.175,1.633c0.117,0.35,0.292,0.583,0.642,0.7c0.292,0.117,0.816,0.175,1.458,0.175h1.75
		c1.05,0,2.042-0.35,2.975-0.992c0.875-0.642,1.633-1.575,2.275-2.8c0.583-1.225,1.05-2.566,1.283-4.142h0.816
		c-0.058,0.817-0.117,1.867-0.117,3.15c0,2.275,0.059,4.142,0.233,5.659c-1.633-0.059-4.316-0.117-8.167-0.117
		c-5.192,0-9.042,0.058-11.608,0.117v-0.7c0.758-0.058,1.342-0.117,1.692-0.292c0.35-0.175,0.583-0.409,0.758-0.817
		c0.117-0.408,0.175-1.05,0.175-1.925v-17.675c0-0.875-0.058-1.517-0.175-1.925s-0.409-0.7-0.758-0.816
		c-0.35-0.175-0.934-0.233-1.692-0.292v-0.7c1.167,0.059,3.092,0.117,5.6,0.117c2.392,0,4.258-0.059,5.6-0.117v0.7
		C372.142,205.392,371.5,205.45,371.092,205.625z"/>
	<path fill="#FF00A6" d="M403,205.625c1.867,0.992,3.383,2.508,4.434,4.434c1.05,1.925,1.575,4.258,1.575,6.941
		c0,2.625-0.525,4.958-1.633,6.941c-1.108,1.983-2.566,3.559-4.492,4.667c-1.925,1.108-4.083,1.691-6.533,1.691
		c-2.508,0-4.725-0.525-6.592-1.517s-3.383-2.508-4.375-4.433c-0.992-1.925-1.575-4.258-1.575-6.942
		c0-2.625,0.525-4.958,1.575-6.941c1.05-2.042,2.567-3.559,4.492-4.667s4.083-1.691,6.533-1.691
		C398.917,204.108,401.133,204.633,403,205.625z M392.85,206.325c-0.992,1.05-1.75,2.508-2.275,4.433
		c-0.525,1.867-0.817,4.083-0.817,6.533c0,2.45,0.292,4.667,0.875,6.534s1.4,3.325,2.45,4.316c1.05,0.992,2.158,1.517,3.441,1.517
		c1.284,0,2.45-0.525,3.442-1.575c0.992-1.05,1.75-2.508,2.275-4.434c0.525-1.867,0.817-4.083,0.817-6.533s-0.292-4.608-0.875-6.533
		c-0.583-1.867-1.4-3.325-2.45-4.375c-1.05-0.992-2.158-1.517-3.442-1.517C394.95,204.75,393.842,205.275,392.85,206.325z"/>
	<path fill="#FF00A6" d="M433.217,228.434c-0.175-0.409-0.408-0.642-0.759-0.642c-0.408,0-1.05,0.233-1.925,0.758
		c-2.041,1.167-4.024,1.809-5.833,1.809c-2.742,0-5.075-0.525-6.942-1.517s-3.325-2.45-4.316-4.375
		c-0.992-1.925-1.458-4.2-1.458-6.883c0-2.625,0.525-5.017,1.633-7c1.108-2.042,2.625-3.617,4.55-4.725
		c1.925-1.108,4.201-1.692,6.65-1.692c1.459,0,2.684,0.175,3.733,0.583c0.992,0.408,1.983,0.992,2.976,1.691
		c0.291,0.233,0.524,0.35,0.699,0.35c0.233,0,0.409-0.175,0.584-0.525s0.233-0.875,0.35-1.633h0.816
		c-0.116,1.633-0.116,4.492-0.116,8.633h-0.816c-0.175-1.575-0.467-2.917-0.817-3.908c-0.35-0.992-0.991-1.867-1.866-2.567
		c-0.583-0.525-1.283-0.992-2.1-1.283c-0.817-0.292-1.692-0.467-2.567-0.467c-1.633,0-3.033,0.583-4.142,1.692
		c-1.108,1.108-1.925,2.625-2.45,4.492s-0.817,3.85-0.817,6.066c0,8.225,2.275,12.309,6.825,12.309c1.05,0,1.866-0.233,2.509-0.7
		c0.291-0.233,0.524-0.466,0.642-0.758c0.116-0.292,0.175-0.642,0.175-1.108v-3.5c0-1.108-0.117-1.925-0.292-2.45
		s-0.524-0.875-0.991-1.05c-0.467-0.175-1.226-0.292-2.275-0.35v-0.7c1.342,0.058,3.384,0.117,6.066,0.117
		c2.217,0,3.792-0.059,4.783-0.117v0.7c-0.466,0.058-0.816,0.116-1.05,0.292c-0.233,0.117-0.35,0.408-0.408,0.816
		c-0.059,0.409-0.116,1.05-0.116,1.983v7.059h-0.7C433.509,229.309,433.392,228.842,433.217,228.434z"/>
</g>
<g>
	<path fill="#FFFFFF" d="M337.9,310.975c0-1.633-0.058-3.616-0.233-6.066c2.159,0.059,5.833,0.117,11.025,0.117
		c5.191,0,8.808-0.059,10.966-0.117c-0.175,2.392-0.233,4.434-0.233,6.066c0,0.992,0.059,1.926,0.117,2.684h-0.875
		c-0.408-1.983-0.875-3.559-1.458-4.725c-0.583-1.167-1.225-1.983-2.042-2.509c-0.816-0.524-1.75-0.758-2.917-0.758h-0.816v20.416
		c0,0.992,0.116,1.692,0.292,2.158c0.175,0.467,0.583,0.759,1.05,0.934c0.467,0.175,1.342,0.233,2.45,0.233v0.7
		c-2.975-0.059-5.25-0.117-6.767-0.117s-3.675,0.059-6.534,0.117v-0.7c1.108,0,1.925-0.116,2.45-0.233
		c0.525-0.116,0.875-0.467,1.05-0.934c0.175-0.466,0.292-1.166,0.292-2.158v-20.3h-0.758c-1.167,0-2.1,0.233-2.917,0.759
		c-0.816,0.524-1.458,1.341-2.042,2.449c-0.583,1.167-1.05,2.742-1.458,4.726h-0.816C337.842,312.9,337.9,312.025,337.9,310.975z"/>
	<path fill="#FFFFFF" d="M386.083,305.958c-0.35,0.175-0.583,0.408-0.758,0.817c-0.117,0.408-0.175,1.05-0.175,1.925v17.675
		c0,0.875,0.059,1.517,0.175,1.925s0.408,0.7,0.758,0.816c0.35,0.176,0.933,0.233,1.75,0.292v0.7
		c-1.167-0.059-2.975-0.117-5.425-0.117c-2.392,0-4.258,0.059-5.6,0.117v-0.7c0.758-0.059,1.341-0.116,1.75-0.292
		c0.35-0.175,0.642-0.408,0.758-0.816s0.175-1.05,0.175-1.925V317.8h-9.45v8.575c0,0.875,0.059,1.517,0.175,1.925
		s0.35,0.7,0.758,0.816c0.35,0.176,0.933,0.233,1.75,0.292v0.7c-1.283-0.059-3.033-0.117-5.367-0.117
		c-2.508,0-4.434,0.059-5.6,0.117v-0.7c0.758-0.059,1.342-0.116,1.692-0.292c0.35-0.175,0.583-0.408,0.758-0.816
		c0.117-0.408,0.175-1.05,0.175-1.925V308.7c0-0.875-0.058-1.517-0.175-1.925c-0.117-0.409-0.409-0.7-0.758-0.817
		c-0.35-0.175-0.934-0.233-1.692-0.291v-0.7c1.167,0.059,3.092,0.116,5.6,0.116c2.333,0,4.083-0.058,5.367-0.116v0.7
		c-0.817,0.058-1.4,0.116-1.75,0.291s-0.583,0.408-0.758,0.817c-0.117,0.408-0.175,1.05-0.175,1.925v8.399h9.45V308.7
		c0-0.875-0.058-1.517-0.175-1.925c-0.117-0.409-0.409-0.7-0.758-0.817c-0.35-0.175-0.934-0.233-1.75-0.291v-0.7
		c1.341,0.059,3.208,0.116,5.6,0.116s4.2-0.058,5.425-0.116v0.7C387.017,305.725,386.434,305.783,386.083,305.958z"/>
	<path fill="#FFFFFF" d="M409.708,324.741c0,2.159,0.058,3.967,0.233,5.426c-1.633-0.059-4.317-0.117-8.167-0.117
		c-5.191,0-9.042,0.059-11.608,0.117v-0.7c0.758-0.059,1.342-0.117,1.692-0.292s0.583-0.408,0.758-0.816
		c0.117-0.408,0.175-1.05,0.175-1.925v-17.676c0-0.875-0.058-1.517-0.175-1.925s-0.408-0.7-0.758-0.816
		c-0.35-0.175-0.934-0.233-1.692-0.292v-0.699c2.567,0.058,6.417,0.116,11.608,0.116c3.5,0,5.95-0.059,7.409-0.116
		c-0.175,1.982-0.233,3.732-0.233,5.25c0,1.05,0.058,1.866,0.117,2.392h-0.817c-0.233-1.75-0.642-3.092-1.108-4.084
		c-0.525-0.991-1.108-1.691-1.867-2.158s-1.691-0.642-2.858-0.642h-1.458c-0.758,0-1.284,0.059-1.633,0.175
		c-0.35,0.117-0.525,0.351-0.642,0.7c-0.117,0.35-0.175,0.875-0.175,1.634v8.808h1.108c1.283,0,2.217-0.467,2.858-1.399
		c0.642-0.934,1.108-2.042,1.342-3.325h0.816c-0.058,1.167-0.117,2.275-0.117,3.325v1.691c0,1.225,0.059,2.917,0.233,5.075h-0.816
		c-0.467-3.15-1.925-4.726-4.317-4.726h-1.108v8.983c0,0.759,0.059,1.342,0.175,1.634c0.116,0.35,0.35,0.583,0.642,0.7
		c0.35,0.116,0.875,0.175,1.633,0.175h1.75c1.691,0,3.033-0.583,4.083-1.75c1.05-1.167,1.75-3.092,2.217-5.833h0.817
		C409.708,322.525,409.708,323.517,409.708,324.741z"/>
	<path fill="#FFFFFF" d="M355.809,351.925c1.341,0.642,2.333,1.4,2.917,2.275s0.875,1.866,0.875,2.916
		c0,1.459-0.408,2.742-1.167,3.733c-0.759,0.992-1.925,1.809-3.384,2.334c-1.458,0.524-3.208,0.816-5.25,0.816
		c-0.525,0-1.4,0-2.625-0.059c-1.225-0.058-2.45-0.058-3.733-0.058c-2.45,0-4.258,0.058-5.483,0.116v-0.7
		c0.758-0.058,1.341-0.116,1.691-0.291c0.35-0.176,0.583-0.409,0.758-0.817c0.117-0.408,0.175-1.05,0.175-1.925v-17.675
		c0-0.875-0.059-1.517-0.175-1.925s-0.408-0.7-0.758-0.817c-0.35-0.175-0.933-0.232-1.691-0.291v-0.7
		c1.167,0.059,2.975,0.116,5.425,0.116c0.934,0,1.983,0,3.15-0.058c1.167-0.059,1.983-0.059,2.392-0.059
		c1.925,0,3.5,0.233,4.842,0.7s2.275,1.108,2.975,1.983s0.992,1.808,0.992,2.916c0,0.875-0.233,1.75-0.758,2.567
		c-0.525,0.816-1.283,1.575-2.392,2.274c-1.05,0.642-2.392,1.108-3.967,1.4v0.059C352.717,350.875,354.467,351.283,355.809,351.925z
		 M351.083,349.008c0.642-1.05,0.933-2.449,0.933-4.199c0-1.809-0.292-3.092-0.816-3.967c-0.583-0.875-1.458-1.283-2.684-1.283
		c-0.642,0-1.108,0.058-1.4,0.233c-0.292,0.175-0.525,0.466-0.642,0.875c-0.117,0.408-0.175,1.05-0.175,1.925v7.991h1.517
		C349.333,350.583,350.442,350.059,351.083,349.008z M346.475,362.075c0.117,0.408,0.35,0.7,0.7,0.816
		c0.35,0.117,0.875,0.233,1.575,0.233c3.325,0,4.958-2.1,4.958-6.241c0-1.867-0.467-3.267-1.4-4.259
		c-0.934-0.991-2.45-1.458-4.492-1.458H346.3v8.983C346.3,361.083,346.358,361.725,346.475,362.075z"/>
	<path fill="#FFFFFF" d="M371.092,339.792c-0.408,0.175-0.642,0.408-0.817,0.816c-0.117,0.408-0.233,1.05-0.233,1.925v18.083
		c0,0.759,0.059,1.342,0.175,1.634c0.117,0.35,0.292,0.583,0.642,0.7c0.292,0.116,0.816,0.175,1.458,0.175h1.75
		c1.05,0,2.042-0.35,2.975-0.992c0.875-0.642,1.633-1.574,2.275-2.8c0.583-1.225,1.05-2.566,1.283-4.142h0.816
		c-0.058,0.817-0.117,1.867-0.117,3.15c0,2.275,0.059,4.142,0.233,5.658c-1.633-0.059-4.316-0.116-8.167-0.116
		c-5.192,0-9.042,0.058-11.608,0.116v-0.7c0.758-0.058,1.342-0.116,1.692-0.291c0.35-0.176,0.583-0.409,0.758-0.817
		c0.117-0.408,0.175-1.05,0.175-1.925v-17.675c0-0.875-0.058-1.517-0.175-1.925s-0.409-0.7-0.758-0.817
		c-0.35-0.175-0.934-0.233-1.692-0.291v-0.7c1.167,0.059,3.092,0.116,5.6,0.116c2.392,0,4.258-0.058,5.6-0.116v0.7
		C372.142,339.559,371.5,339.616,371.092,339.792z"/>
	<path fill="#FFFFFF" d="M403,339.792c1.867,0.991,3.383,2.508,4.434,4.433c1.05,1.926,1.575,4.259,1.575,6.942
		c0,2.625-0.525,4.958-1.633,6.941s-2.566,3.559-4.492,4.667c-1.925,1.108-4.083,1.691-6.533,1.691
		c-2.508,0-4.725-0.525-6.592-1.517c-1.867-0.992-3.383-2.509-4.375-4.434s-1.575-4.258-1.575-6.941
		c0-2.625,0.525-4.958,1.575-6.941c1.05-2.042,2.567-3.559,4.492-4.667s4.083-1.691,6.533-1.691
		C398.917,338.275,401.133,338.8,403,339.792z M392.85,340.491c-0.992,1.051-1.75,2.509-2.275,4.434
		c-0.525,1.867-0.817,4.083-0.817,6.533s0.292,4.667,0.875,6.533c0.583,1.867,1.4,3.325,2.45,4.317
		c1.05,0.991,2.158,1.517,3.441,1.517c1.284,0,2.45-0.525,3.442-1.575s1.75-2.509,2.275-4.434c0.525-1.866,0.817-4.083,0.817-6.533
		s-0.292-4.608-0.875-6.533c-0.583-1.867-1.4-3.325-2.45-4.375c-1.05-0.992-2.158-1.517-3.442-1.517
		C394.95,338.917,393.842,339.441,392.85,340.491z"/>
	<path fill="#FFFFFF" d="M433.217,362.6c-0.175-0.408-0.408-0.642-0.759-0.642c-0.408,0-1.05,0.233-1.925,0.759
		c-2.041,1.166-4.024,1.809-5.833,1.809c-2.742,0-5.075-0.525-6.942-1.518c-1.867-0.991-3.325-2.449-4.316-4.375
		c-0.992-1.925-1.458-4.199-1.458-6.883c0-2.625,0.525-5.017,1.633-7c1.108-2.042,2.625-3.617,4.55-4.725
		c1.925-1.108,4.201-1.692,6.65-1.692c1.459,0,2.684,0.175,3.733,0.584c0.992,0.408,1.983,0.991,2.976,1.691
		c0.291,0.233,0.524,0.35,0.699,0.35c0.233,0,0.409-0.175,0.584-0.524c0.175-0.351,0.233-0.875,0.35-1.634h0.816
		c-0.116,1.634-0.116,4.492-0.116,8.634h-0.816c-0.175-1.575-0.467-2.917-0.817-3.908c-0.35-0.992-0.991-1.867-1.866-2.567
		c-0.583-0.524-1.283-0.991-2.1-1.283c-0.817-0.292-1.692-0.467-2.567-0.467c-1.633,0-3.033,0.584-4.142,1.692
		c-1.108,1.107-1.925,2.625-2.45,4.491s-0.817,3.85-0.817,6.066c0,8.226,2.275,12.309,6.825,12.309c1.05,0,1.866-0.233,2.509-0.7
		c0.291-0.233,0.524-0.467,0.642-0.758c0.116-0.292,0.175-0.642,0.175-1.108v-3.5c0-1.108-0.117-1.925-0.292-2.45
		s-0.524-0.875-0.991-1.05s-1.226-0.292-2.275-0.351v-0.699c1.342,0.058,3.384,0.116,6.066,0.116c2.217,0,3.792-0.059,4.783-0.116
		v0.699c-0.466,0.059-0.816,0.117-1.05,0.292c-0.233,0.116-0.35,0.408-0.408,0.816s-0.116,1.05-0.116,1.983V364h-0.7
		C433.509,363.475,433.392,363.008,433.217,362.6z"/>
</g>
<g>
	<path fill="#AAAAAA" d="M338.075,446.425c0-1.633-0.059-3.616-0.233-6.066c2.158,0.059,5.833,0.116,11.025,0.116
		s8.808-0.058,10.967-0.116c-0.175,2.392-0.233,4.434-0.233,6.066c0,0.992,0.058,1.925,0.117,2.684H358.9
		c-0.408-1.983-0.875-3.559-1.458-4.726c-0.583-1.166-1.225-1.982-2.042-2.508c-0.816-0.525-1.75-0.759-2.917-0.759h-0.817v20.301
		c0,0.991,0.117,1.691,0.292,2.158c0.175,0.467,0.583,0.758,1.05,0.933c0.467,0.176,1.342,0.233,2.45,0.233v0.7
		c-2.975-0.058-5.25-0.116-6.767-0.116c-1.517,0-3.675,0.058-6.534,0.116v-0.7c1.108,0,1.925-0.116,2.45-0.233
		c0.525-0.116,0.875-0.466,1.05-0.933c0.175-0.467,0.292-1.167,0.292-2.158v-20.301h-0.758c-1.167,0-2.1,0.233-2.917,0.759
		c-0.816,0.525-1.458,1.342-2.042,2.45c-0.583,1.166-1.05,2.741-1.458,4.725h-0.816
		C338.075,448.292,338.075,447.417,338.075,446.425z"/>
	<path fill="#AAAAAA" d="M386.258,441.35c-0.35,0.176-0.583,0.408-0.758,0.817c-0.117,0.408-0.175,1.05-0.175,1.925v17.675
		c0,0.875,0.058,1.517,0.175,1.925s0.408,0.7,0.758,0.816c0.35,0.176,0.934,0.233,1.75,0.292v0.7
		c-1.167-0.059-2.975-0.117-5.425-0.117c-2.392,0-4.258,0.059-5.6,0.117v-0.7c0.758-0.059,1.342-0.116,1.75-0.292
		c0.35-0.175,0.642-0.408,0.758-0.816s0.175-1.05,0.175-1.925v-8.517h-9.392v8.575c0,0.875,0.059,1.517,0.175,1.925
		s0.35,0.7,0.758,0.816c0.35,0.175,0.933,0.233,1.75,0.292v0.7c-1.284-0.059-3.034-0.117-5.367-0.117
		c-2.508,0-4.434,0.059-5.6,0.117v-0.7c0.758-0.059,1.342-0.117,1.692-0.292c0.35-0.175,0.583-0.408,0.758-0.816
		c0.117-0.408,0.175-1.05,0.175-1.925V444.15c0-0.875-0.058-1.517-0.175-1.926c-0.117-0.408-0.409-0.699-0.758-0.816
		c-0.35-0.175-0.934-0.233-1.692-0.292v-0.699c1.167,0.058,3.092,0.116,5.6,0.116c2.333,0,4.083-0.059,5.367-0.116v0.699
		c-0.817,0.059-1.4,0.117-1.75,0.292s-0.583,0.408-0.758,0.816c-0.117,0.409-0.175,1.051-0.175,1.926v8.399h9.392v-8.399
		c0-0.875-0.058-1.517-0.175-1.926c-0.117-0.408-0.408-0.699-0.758-0.816c-0.35-0.175-0.934-0.233-1.75-0.292v-0.699
		c1.342,0.058,3.208,0.116,5.6,0.116s4.2-0.059,5.425-0.116v0.699C387.192,441.116,386.608,441.175,386.258,441.35z"/>
	<path fill="#AAAAAA" d="M409.883,460.133c0,2.159,0.059,3.967,0.233,5.426c-1.633-0.059-4.317-0.117-8.167-0.117
		c-5.192,0-9.042,0.059-11.608,0.117v-0.7c0.758-0.059,1.342-0.117,1.691-0.292c0.35-0.175,0.583-0.408,0.758-0.816
		c0.117-0.408,0.175-1.05,0.175-1.925V444.15c0-0.875-0.059-1.518-0.175-1.926s-0.408-0.699-0.758-0.816
		c-0.35-0.175-0.933-0.233-1.691-0.292v-0.699c2.566,0.058,6.417,0.116,11.608,0.116c3.5,0,5.95-0.059,7.408-0.116
		c-0.175,1.983-0.233,3.733-0.233,5.25c0,1.05,0.059,1.866,0.117,2.392h-0.817c-0.233-1.75-0.642-3.092-1.108-4.084
		c-0.525-0.991-1.108-1.691-1.867-2.158s-1.692-0.642-2.858-0.642h-1.458c-0.758,0-1.283,0.059-1.633,0.175
		c-0.35,0.117-0.525,0.351-0.642,0.7c-0.117,0.351-0.175,0.875-0.175,1.634v8.808h1.108c1.284,0,2.217-0.466,2.858-1.399
		s1.108-2.042,1.342-3.325h0.817c-0.059,1.167-0.117,2.275-0.117,3.325v1.691c0,1.225,0.058,2.917,0.233,5.075h-0.758
		c-0.466-3.15-1.925-4.726-4.316-4.726h-1.108v8.983c0,0.759,0.058,1.342,0.175,1.634c0.117,0.35,0.35,0.583,0.642,0.7
		c0.35,0.116,0.875,0.175,1.633,0.175h1.75c1.691,0,3.033-0.583,4.083-1.75c1.05-1.167,1.75-3.092,2.217-5.833h0.817
		C409.942,457.917,409.883,458.908,409.883,460.133z"/>
	<path fill="#AAAAAA" d="M355.983,487.316c1.342,0.642,2.333,1.4,2.917,2.275c0.583,0.875,0.875,1.866,0.875,2.917
		c0,1.458-0.408,2.741-1.167,3.733c-0.758,0.991-1.925,1.808-3.383,2.333c-1.458,0.524-3.208,0.816-5.25,0.816
		c-0.525,0-1.4,0-2.625-0.059c-1.225-0.058-2.45-0.058-3.733-0.058c-2.45,0-4.258,0.058-5.483,0.116v-0.7
		c0.758-0.058,1.342-0.116,1.692-0.291c0.35-0.176,0.583-0.408,0.758-0.817c0.117-0.408,0.175-1.05,0.175-1.925v-17.675
		c0-0.875-0.058-1.517-0.175-1.925s-0.409-0.7-0.758-0.816c-0.35-0.176-0.934-0.233-1.692-0.292v-0.7
		c1.167,0.059,2.975,0.117,5.425,0.117c0.933,0,1.983,0,3.15-0.059c1.167-0.059,1.983-0.059,2.392-0.059
		c1.925,0,3.5,0.233,4.842,0.7c1.341,0.467,2.275,1.108,2.975,1.983c0.7,0.875,0.992,1.809,0.992,2.916
		c0,0.875-0.233,1.75-0.758,2.567c-0.525,0.816-1.283,1.575-2.392,2.274c-1.05,0.642-2.392,1.108-3.967,1.4v0.059
		C352.95,486.325,354.642,486.675,355.983,487.316z M351.258,484.4c0.642-1.051,0.934-2.45,0.934-4.2
		c0-1.809-0.292-3.092-0.817-3.967c-0.583-0.875-1.458-1.283-2.683-1.283c-0.642,0-1.108,0.058-1.4,0.233
		c-0.292,0.175-0.525,0.467-0.642,0.875s-0.175,1.05-0.175,1.925v8.05h1.517C349.567,485.975,350.617,485.45,351.258,484.4z
		 M346.65,497.525c0.117,0.408,0.35,0.699,0.7,0.816c0.35,0.116,0.875,0.233,1.575,0.233c3.325,0,4.958-2.101,4.958-6.242
		c0-1.866-0.467-3.267-1.4-4.258c-0.934-0.992-2.45-1.458-4.492-1.458h-1.517v8.982C346.475,496.475,346.533,497.116,346.65,497.525
		z"/>
	<path fill="#AAAAAA" d="M371.325,475.184c-0.409,0.175-0.642,0.408-0.817,0.816c-0.117,0.408-0.233,1.05-0.233,1.925v18.083
		c0,0.759,0.059,1.342,0.175,1.634c0.117,0.35,0.292,0.583,0.642,0.7c0.292,0.116,0.816,0.175,1.458,0.175h1.75
		c1.05,0,2.042-0.35,2.975-0.991c0.875-0.643,1.633-1.575,2.275-2.801c0.583-1.225,1.05-2.566,1.284-4.142h0.816
		c-0.058,0.817-0.117,1.867-0.117,3.15c0,2.275,0.059,4.142,0.233,5.658c-1.633-0.059-4.316-0.116-8.167-0.116
		c-5.192,0-9.042,0.058-11.608,0.116v-0.7c0.758-0.058,1.342-0.116,1.692-0.291c0.35-0.176,0.583-0.409,0.758-0.817
		c0.117-0.408,0.175-1.05,0.175-1.925v-17.675c0-0.875-0.058-1.517-0.175-1.925s-0.409-0.7-0.758-0.817
		c-0.35-0.175-0.934-0.233-1.692-0.291v-0.7c1.167,0.059,3.092,0.116,5.6,0.116c2.392,0,4.258-0.058,5.6-0.116v0.7
		C372.317,474.95,371.675,475.008,371.325,475.184z"/>
	<path fill="#AAAAAA" d="M403.175,475.184c1.867,0.991,3.384,2.508,4.434,4.433c1.05,1.926,1.575,4.259,1.575,6.942
		c0,2.625-0.525,4.958-1.634,6.941c-1.108,1.983-2.566,3.559-4.491,4.667c-1.925,1.108-4.083,1.691-6.534,1.691
		c-2.508,0-4.725-0.525-6.591-1.517c-1.867-0.992-3.384-2.509-4.375-4.434c-0.992-1.925-1.575-4.258-1.575-6.941
		c0-2.625,0.525-4.958,1.575-6.941c1.05-2.042,2.566-3.559,4.491-4.667c1.925-1.108,4.083-1.691,6.534-1.691
		C399.092,473.667,401.309,474.191,403.175,475.184z M393.025,475.941c-0.992,1.05-1.75,2.509-2.275,4.434
		c-0.525,1.866-0.816,4.083-0.816,6.533s0.292,4.667,0.875,6.533c0.583,1.867,1.4,3.325,2.45,4.317
		c1.05,0.991,2.158,1.517,3.442,1.517c1.283,0,2.45-0.525,3.441-1.575s1.75-2.509,2.275-4.434c0.525-1.866,0.817-4.083,0.817-6.533
		s-0.292-4.608-0.875-6.533c-0.583-1.867-1.4-3.325-2.45-4.375c-1.05-0.992-2.158-1.517-3.441-1.517
		S394.017,474.833,393.025,475.941z"/>
	<path fill="#AAAAAA" d="M433.45,497.991c-0.175-0.408-0.408-0.642-0.759-0.642c-0.408,0-1.05,0.233-1.925,0.759
		c-2.042,1.167-4.024,1.809-5.833,1.809c-2.742,0-5.075-0.525-6.942-1.517c-1.867-0.992-3.325-2.45-4.317-4.375
		c-0.991-1.926-1.458-4.2-1.458-6.884c0-2.625,0.525-5.017,1.633-7c1.108-2.042,2.625-3.616,4.55-4.725
		c1.925-1.108,4.2-1.692,6.65-1.692c1.459,0,2.684,0.176,3.733,0.584c0.992,0.408,1.983,0.991,2.976,1.691
		c0.291,0.233,0.524,0.35,0.699,0.35c0.233,0,0.409-0.175,0.584-0.524c0.175-0.351,0.233-0.875,0.35-1.634h0.816
		c-0.116,1.634-0.116,4.492-0.116,8.634h-0.816c-0.176-1.575-0.467-2.917-0.817-3.908c-0.35-0.992-0.991-1.867-1.866-2.567
		c-0.583-0.524-1.283-0.991-2.1-1.283c-0.817-0.291-1.692-0.467-2.567-0.467c-1.633,0-3.033,0.584-4.142,1.692
		s-1.925,2.625-2.45,4.491c-0.525,1.867-0.817,3.85-0.817,6.066c0,8.226,2.275,12.309,6.825,12.309c1.05,0,1.866-0.233,2.508-0.7
		c0.292-0.233,0.525-0.467,0.643-0.758c0.116-0.292,0.175-0.642,0.175-1.108v-3.5c0-1.108-0.117-1.925-0.292-2.45
		s-0.525-0.875-0.991-1.05c-0.467-0.175-1.226-0.292-2.275-0.351v-0.699c1.342,0.058,3.384,0.116,6.066,0.116
		c2.217,0,3.792-0.059,4.783-0.116v0.699c-0.466,0.059-0.816,0.117-1.05,0.292c-0.233,0.117-0.35,0.408-0.408,0.816
		c-0.059,0.409-0.116,1.051-0.116,1.983v7.059h-0.7C433.684,498.866,433.625,498.4,433.45,497.991z"/>
</g>
</svg>
