<?xml version="1.0" encoding="UTF-8" standalone="no"?>
<!-- Generator: Adobe Illustrator 18.0.0, SVG Export Plug-In . SVG Version: 6.00 Build 0)  -->

<svg
   xmlns:dc="http://purl.org/dc/elements/1.1/"
   xmlns:cc="http://creativecommons.org/ns#"
   xmlns:rdf="http://www.w3.org/1999/02/22-rdf-syntax-ns#"
   xmlns:svg="http://www.w3.org/2000/svg"
   xmlns="http://www.w3.org/2000/svg"
   xmlns:sodipodi="http://sodipodi.sourceforge.net/DTD/sodipodi-0.dtd"
   xmlns:inkscape="http://www.inkscape.org/namespaces/inkscape"
   version="1.1"
   id="Layer_1"
   x="0px"
   y="0px"
   viewBox="0 0 11.208 72"
   enable-background="new 0 0 93.4 600"
   xml:space="preserve"
   inkscape:version="0.48.5 r10040"
   width="12px"
   height="72px"
   sodipodi:docname="trash.svg"><metadata
   id="metadata3053"><rdf:RDF><cc:Work
       rdf:about=""><dc:format>image/svg+xml</dc:format><dc:type
         rdf:resource="http://purl.org/dc/dcmitype/StillImage" /></cc:Work></rdf:RDF></metadata><defs
   id="defs3051" /><sodipodi:namedview
   pagecolor="#ffffff"
   bordercolor="#666666"
   borderopacity="1"
   objecttolerance="10"
   gridtolerance="10"
   guidetolerance="10"
   inkscape:pageopacity="0"
   inkscape:pageshadow="2"
   inkscape:window-width="1920"
   inkscape:window-height="1018"
   id="namedview3049"
   showgrid="false"
   fit-margin-top="0"
   fit-margin-left="0"
   fit-margin-right="0"
   fit-margin-bottom="0"
   inkscape:zoom="15.103801"
   inkscape:cx="3.1130308"
   inkscape:cy="54.76801"
   inkscape:window-x="-8"
   inkscape:window-y="-8"
   inkscape:window-maximized="1"
   inkscape:current-layer="Layer_1" />
<g
   id="bin_-_selected"
   transform="matrix(0.12,0,0,0.12,-9.1552734e-8,0.0662085)">
	<g
   id="g3022">
		<g
   id="g3024">
			<path
   d="M 71.8,23.3 C 69.5,15.2 63.1,0 46.7,0 30.4,0 24,15.2 21.7,23.3 H 0 V 38.9 H 93.4 V 23.3 H 71.8 z m -41.6,0 C 32.1,17.2 36.6,7.5 46.9,7.4 57.1,7.4 62,17.1 64.1,23.3 H 30.2 z M 14.9,150 H 79.2 L 93.4,48.8 H 0 L 14.9,150 z M 61.8,56.6 h 9.9 v 70.1 H 61.8 V 56.6 z m -39.5,0 h 9.9 v 70.1 H 22.3 V 56.6 z"
   id="path3026"
   inkscape:connector-curvature="0" />
		</g>
	</g>
</g>
<g
   id="bin_-_selected_1_"
   transform="matrix(0.12,0,0,0.12,-7.6293945e-7,0)">
	<g
   id="g3029">
		<g
   id="g3031">
			<path
   d="M 71.8,173.3 C 69.5,165.2 63.1,149.9 46.7,150 30.4,150 24,165.2 21.7,173.3 H 0 v 15.6 H 93.4 V 173.3 H 71.8 z m -41.6,0 c 1.9,-6.1 6.4,-15.8 16.7,-15.9 10.2,-0.1 15.1,9.7 17.2,15.9 H 30.2 z M 14.9,300 H 79.2 L 93.4,198.8 H 0 L 14.9,300 z m 46.9,-93.4 h 9.9 v 70.1 h -9.9 v -70.1 z m -39.5,0 h 9.9 v 70.1 h -9.9 v -70.1 z"
   id="path3033"
   inkscape:connector-curvature="0"
   style="fill:#ff00a6" />
		</g>
	</g>
</g>
<g
   id="bin_-_selected_3_"
   transform="matrix(0.12,0,0,0.12,-7.6293945e-7,0)">
	<g
   id="g3036">
		<g
   id="g3038">
			<path
   d="M 71.8,323.3 C 69.5,315.2 63.1,299.9 46.7,300 30.4,300 24,315.2 21.7,323.3 H 0 v 15.6 H 93.4 V 323.3 H 71.8 z m -41.6,0 c 1.9,-6.1 6.4,-15.8 16.7,-15.9 10.2,-0.1 15.1,9.7 17.2,15.9 H 30.2 z M 14.9,450 H 79.2 L 93.4,348.8 H 0 L 14.9,450 z m 46.9,-93.4 h 9.9 v 70.1 h -9.9 v -70.1 z m -39.5,0 h 9.9 v 70.1 h -9.9 v -70.1 z"
   id="path3040"
   inkscape:connector-curvature="0"
   style="fill:#ffffff" />
		</g>
	</g>
</g>
<g
   id="bin_-_selected_2_"
   transform="matrix(0.12,0,0,0.12,-7.6293945e-7,0)">
	<g
   id="g3043">
		<g
   id="g3045">
			<path
   d="M 71.8,473.3 C 69.5,465.2 63.1,449.9 46.7,450 30.4,450 24,465.2 21.7,473.3 H 0 v 15.6 H 93.4 V 473.3 H 71.8 z m -41.6,0 c 1.9,-6.1 6.4,-15.8 16.7,-15.9 10.2,-0.1 15.1,9.7 17.2,15.9 H 30.2 z M 14.9,600 H 79.2 L 93.4,498.8 H 0 L 14.9,600 z m 46.9,-93.4 h 9.9 v 70.1 h -9.9 v -70.1 z m -39.5,0 h 9.9 v 70.1 h -9.9 v -70.1 z"
   id="path3047"
   inkscape:connector-curvature="0"
   style="fill:#aaaaaa" />
		</g>
	</g>
</g>
</svg>