<?xml version="1.0" encoding="utf-8"?>
<!-- Generator: Adobe Illustrator 16.0.0, SVG Export Plug-In . SVG Version: 6.00 Build 0)  -->
<!DOCTYPE svg PUBLIC "-//W3C//DTD SVG 1.1//EN" "http://www.w3.org/Graphics/SVG/1.1/DTD/svg11.dtd">
<svg version="1.1" id="Layer_1" xmlns="http://www.w3.org/2000/svg" xmlns:xlink="http://www.w3.org/1999/xlink" x="0px" y="0px"
	 width="133.933px" height="536.783px" viewBox="316.667 0 133.933 536.783" enable-background="new 316.667 0 133.933 536.783"
	 xml:space="preserve">
<circle fill="#F6F6F6" cx="383.633" cy="201.133" r="66.967"/>
<circle fill="#F6F6F6" cx="383.633" cy="66.967" r="66.967"/>
<circle fill="#FF00A6" cx="383.633" cy="335.3" r="66.967"/>
<circle fill="#F6F6F6" cx="383.633" cy="469.816" r="66.967"/>
<path d="M397.575,33.133c2.042,0,4.083,0,6.125,0c3.208,1.75,6.358,3.5,9.625,5.192c0.525,0.292,1.341,0.292,1.925,0.116
	c3.208-1.108,6.417-2.275,9.566-3.383c-0.642,2.8-1.166,3.616-5.892,9.275c2.742-0.758,5.483-1.517,8.226-2.275
	c0.116,0.175,0.233,0.35,0.35,0.525c-2.508,2.508-5.017,4.9-7.408,7.466c-0.642,0.7-1.167,1.75-1.283,2.684
	c-0.409,2.975-0.35,6.008-0.875,8.925c-6.825,37.8-44.392,51.975-73.325,37.917c-1.517-0.759-2.917-1.575-4.842-2.625
	c13.592-0.759,22.283-3.325,25.492-7.583c-7.642-1.108-13.066-5.017-15.925-12.658c2.45,0,4.608,0,6.767,0
	c-7.992-3.442-12.658-9.042-13.067-18.025c2.567,0.7,4.842,1.341,7.642,2.158c-8.108-9.333-9.741-17.967-4.841-24.15
	c9.683,11.2,21.816,17.559,36.925,18.667c-0.992-7.059,0.467-13.125,5.775-17.442C391.1,35.758,394.542,34.708,397.575,33.133z"/>
<path fill="#FF00A6" d="M397.575,167.3c2.042,0,4.083,0,6.125,0c3.208,1.75,6.358,3.5,9.625,5.192
	c0.525,0.292,1.341,0.292,1.925,0.117c3.208-1.108,6.417-2.275,9.566-3.383c-0.642,2.8-1.166,3.617-5.892,9.275
	c2.742-0.758,5.483-1.517,8.226-2.275c0.116,0.175,0.233,0.35,0.35,0.525c-2.508,2.508-5.017,4.9-7.408,7.467
	c-0.642,0.7-1.167,1.75-1.283,2.683c-0.409,2.975-0.35,6.008-0.875,8.925c-6.825,37.8-44.392,51.975-73.325,37.917
	c-1.517-0.758-2.917-1.575-4.842-2.625c13.592-0.758,22.283-3.325,25.492-7.583c-7.642-1.108-13.066-5.017-15.925-12.658
	c2.45,0,4.608,0,6.767,0c-7.992-3.442-12.658-9.042-13.067-18.025c2.567,0.7,4.842,1.341,7.642,2.158
	c-8.108-9.333-9.741-17.967-4.841-24.15c9.683,11.2,21.816,17.558,36.925,18.667c-0.992-7.058,0.467-13.125,5.775-17.441
	C391.1,169.925,394.542,168.875,397.575,167.3z"/>
<path fill="#FFFFFF" d="M397.575,301.467c2.042,0,4.083,0,6.125,0c3.208,1.75,6.358,3.5,9.625,5.191
	c0.525,0.292,1.341,0.292,1.925,0.117c3.208-1.108,6.417-2.275,9.566-3.384c-0.642,2.8-1.166,3.617-5.892,9.275
	c2.742-0.759,5.483-1.517,8.226-2.275c0.116,0.175,0.233,0.35,0.35,0.525c-2.508,2.508-5.017,4.899-7.408,7.467
	c-0.642,0.699-1.167,1.75-1.283,2.683c-0.409,2.976-0.35,6.009-0.875,8.925c-6.825,37.801-44.392,51.976-73.325,37.917
	c-1.517-0.758-2.917-1.575-4.842-2.625c13.592-0.758,22.283-3.325,25.492-7.583c-7.642-1.108-13.066-5.017-15.925-12.658
	c2.45,0,4.608,0,6.767,0c-7.992-3.442-12.658-9.042-13.067-18.025c2.567,0.7,4.842,1.342,7.642,2.158
	c-8.108-9.333-9.741-17.967-4.841-24.149c9.683,11.199,21.816,17.558,36.925,18.666c-0.992-7.059,0.467-13.125,5.775-17.441
	C391.1,304.092,394.542,303.042,397.575,301.467z"/>
<path fill="#AAAAAA" d="M397.575,435.983c2.042,0,4.083,0,6.125,0c3.208,1.75,6.358,3.5,9.625,5.191
	c0.525,0.292,1.341,0.292,1.925,0.117c3.208-1.108,6.417-2.275,9.566-3.384c-0.642,2.8-1.166,3.617-5.892,9.275
	c2.742-0.759,5.483-1.517,8.226-2.275c0.116,0.175,0.233,0.351,0.35,0.525c-2.508,2.508-5.017,4.899-7.408,7.467
	c-0.642,0.699-1.167,1.75-1.283,2.683c-0.409,2.976-0.35,6.009-0.875,8.926c-6.825,37.8-44.392,51.975-73.325,37.916
	c-1.517-0.758-2.917-1.575-4.842-2.625c13.592-0.758,22.283-3.325,25.492-7.583c-7.642-1.108-13.066-5.017-15.925-12.658
	c2.45,0,4.608,0,6.767,0c-7.992-3.442-12.658-9.042-13.067-18.025c2.567,0.7,4.842,1.342,7.642,2.158
	c-8.108-9.333-9.741-17.967-4.841-24.149c9.683,11.199,21.816,17.558,36.925,18.666c-0.992-7.058,0.467-13.125,5.775-17.441
	C391.1,438.608,394.542,437.559,397.575,435.983z"/>
</svg>
