<?xml version="1.0" encoding="utf-8"?>
<!-- Generator: Adobe Illustrator 16.0.0, SVG Export Plug-In . SVG Version: 6.00 Build 0)  -->
<!DOCTYPE svg PUBLIC "-//W3C//DTD SVG 1.1//EN" "http://www.w3.org/Graphics/SVG/1.1/DTD/svg11.dtd">
<svg version="1.1" id="Layer_1" xmlns="http://www.w3.org/2000/svg" xmlns:xlink="http://www.w3.org/1999/xlink" x="0px" y="0px"
	 width="960px" height="412.5px" viewBox="0 0 960 412.5" enable-background="new 0 0 960 412.5" xml:space="preserve">
<g id="icomoon-ignore">
</g>
<path fill="#666666" d="M156,6c-6,12-12,24-18,34.5c-22.5,43.5-45,87-67.5,129c-1.5,3-3,3-6,3c-9,0-16.5,0-25.5,0c-1.5,0-3,0-3-3
	c-7.5-25.5-13.5-54-19.5-81C12,63,6,39,0,13.5c0-3,0-3,3-4.5c9-1.5,19.5-3,28.5-4.5c1.5,0,3,0,3,1.5c7.5,40.5,15,81,24,121.5
	c0,1.5,0,1.5,0,3c1.5,0,1.5-1.5,3-1.5C81,88.5,102,49.5,121.5,9c1.5-1.5,3-3,4.5-3C135,6,145.5,6,156,6L156,6z M652.5,138
	c3,6,7.5,10.5,15,10.5c9,0,16.5-4.5,24-10.5c3-3,6-6,6-12c0-1.5,0-3,1.5-4.5c3-12,4.5-24,6-36c0-1.5,0-3-1.5-3c-7.5-3-15-4.5-24-4.5
	c-10.5,1.5-18,9-22.5,18s-6,19.5-7.5,28.5C651,129,651,135,652.5,138L652.5,138z M696,157.5c-7.5,7.5-15,13.5-24,16.5
	c-13.5,4.5-27,4.5-39-6c-7.5-6-10.5-15-12-25.5c-1.5-22.5,3-43.5,16.5-63C651,61.5,669,54,691.5,57c6,0,10.5,1.5,15,3
	c1.5,0,3,0,3-1.5c3-16.5,4.5-34.5,7.5-51c0-1.5,0-3,3-3c9-1.5,18-3,25.5-4.5c1.5,0,1.5,1.5,1.5,1.5c-1.5,13.5-4.5,27-6,42
	c-4.5,24-7.5,49.5-12,73.5c-3,18-6,36-9,55.5c0,1.5-1.5,1.5-3,1.5c-7.5,0-13.5,0-21,0c-1.5,0-1.5-1.5-1.5-3
	C696,166.5,696,162,696,157.5L696,157.5z M159,102c15,0,28.5,0,43.5,0c1.5,0,1.5,0,1.5-1.5c0-4.5,0-7.5-1.5-12
	c-1.5-7.5-4.5-12-12-13.5c-6-1.5-12,0-18,3C165,84,162,91.5,159,102L159,102z M193.5,120c-12,0-22.5,0-34.5,0c-1.5,0-3,0-3,3
	c0,7.5,0,16.5,6,22.5c6,7.5,15,7.5,22.5,7.5c13.5,0,25.5-6,36-12c1.5,0,1.5-1.5,3-1.5s0,1.5,0,3c0,6,0,12,0,16.5c0,1.5,0,3-1.5,3
	c-19.5,12-40.5,16.5-63,12c-19.5-4.5-31.5-18-33-39s3-40.5,15-57c15-19.5,34.5-27,60-22.5c16.5,3,27,15,30,31.5
	c1.5,10.5,1.5,21,0,31.5c0,1.5-1.5,3-3,3C216,120,204,120,193.5,120z M582,102c3,0,3-1.5,3-3c0-3,0-6,0-9c-1.5-9-6-13.5-13.5-15
	c-6-1.5-12,0-18,3c-7.5,6-12,13.5-15,22.5c0,1.5,1.5,1.5,1.5,1.5c7.5,0,13.5,0,21,0S576,102,582,102L582,102z M573,120
	c-12,0-22.5,0-34.5,0c-3,0-3,0-3,3s0,6,0,9c3,13.5,10.5,19.5,25.5,19.5c13.5,0,25.5-4.5,36-10.5c1.5-1.5,3-1.5,6-3
	c1.5-1.5,1.5,0,1.5,1.5c0,6,0,13.5,0,19.5c0,1.5,0,1.5-1.5,1.5c-21,12-43.5,18-69,10.5c-15-4.5-25.5-16.5-27-31.5
	c-3-24,1.5-46.5,18-66c15-18,34.5-24,57-19.5c16.5,3,25.5,13.5,28.5,30c3,10.5,1.5,22.5,0,33c0,1.5-1.5,1.5-3,1.5
	C595.5,120,585,120,573,120L573,120z M408,172.5c3,0,4.5-1.5,4.5-4.5c4.5-28.5,9-57,13.5-85.5c0-1.5,1.5-3,3-3c6,0,13.5,0,19.5,0
	c3,0,3,0,3-3c0-6,0-12,0-18c0-1.5,0-1.5-3-1.5c-6,0-12,0-18,0c-1.5,0-3,0-1.5-3c1.5-6,1.5-12,3-16.5c3-7.5,7.5-12,15-13.5
	c4.5,0,9,0,13.5,0c1.5,0,3,0,3-1.5c0-6,0-12,0-18c0-3-1.5-3-3-3c-6,0-12,0-16.5,0c-19.5,1.5-33,12-36,31.5c-1.5,7.5-3,13.5-3,21
	c-3,1.5-3,1.5-6,1.5c-4.5,0-7.5,0-12,0c-1.5,0-1.5,0-3,1.5c-1.5,6-1.5,13.5-3,19.5c0,1.5,0,1.5,1.5,1.5c4.5,0,7.5,0,12,0
	c1.5,0,3,0,1.5,3c-3,18-6,37.5-9,55.5c-1.5,10.5-3,21-4.5,31.5c0,3,0,3,3,3c4.5,0,7.5,0,12,0C402,172.5,405,172.5,408,172.5
	L408,172.5z M838.5,115.5c-1.5-9-6-13.5-15-12c-7.5,1.5-13.5,6-19.5,10.5v1.5c-1.5,12-4.5,24-6,37.5c0,1.5,0,1.5,1.5,3
	c12,3,28.5,3,34.5-13.5c3-6,4.5-13.5,4.5-21C838.5,118.5,838.5,117,838.5,115.5L838.5,115.5z M807,94.5c6-4.5,12-9,18-10.5
	c16.5-4.5,33,0,36,22.5c3,18-1.5,34.5-12,49.5c-9,12-19.5,16.5-34.5,18c-13.5,1.5-25.5,0-37.5-4.5c-3-1.5-3-1.5-3-4.5
	c3-18,6-34.5,7.5-52.5c3-22.5,7.5-43.5,10.5-66c0-1.5,0-3,3-3c6,0,12-1.5,16.5-3c3,0,3,0,3,3c-1.5,9-3,18-4.5,27
	C810,78,808.5,85.5,807,94.5z M282,58.5c0-3-1.5-3-3-3c-6,0-12,0-16.5,0s-4.5,0-4.5,4.5c-3,24-7.5,46.5-10.5,70.5
	c-1.5,13.5-4.5,27-6,39c0,3,0,3,3,3c7.5,0,15,0,24,0c1.5,0,3,0,3-3c3-19.5,6-37.5,9-57c0-3,0-7.5,3-9c10.5-12,24-19.5,40.5-21
	c1.5,0,3-1.5,3-3c0-7.5,0-16.5,0-24c0-1.5,0-3-3-3c-9,1.5-16.5,4.5-22.5,9S291,72,285,78C282,72,282,66,282,58.5L282,58.5z M909,144
	c-3-19.5-6-39-9-58.5c0-1.5-1.5-3-3-3c-7.5,1.5-13.5,3-19.5,3c-1.5,0-3,1.5-1.5,3c6,27,12,54,18,81c0,1.5,1.5,3,0,4.5
	c-4.5,9-9,15-21,13.5c-1.5,0-3,0-4.5,0s-3,0-3,1.5c0,4.5,0,9,0,13.5c0,1.5,0,3,3,3c10.5,1.5,21,0,30-7.5c6-4.5,10.5-12,15-18
	c6-12,12-24,19.5-37.5c9-18,19.5-37.5,28.5-55.5c1.5-1.5,0-3-1.5-3c-6,0-10.5,0-16.5,0c-3,0-4.5,0-4.5,3c-6,12-12,24-16.5,36
	C916.5,130.5,913.5,138,909,144L909,144L909,144z M349.5,172.5c1.5,0,3,0,3-3c6-37.5,12-75,16.5-111c0-3,0-3-3-3c-7.5,0-15,0-22.5,0
	c-3,0-4.5,1.5-4.5,4.5c-3,25.5-7.5,49.5-12,75c-1.5,12-3,24-6,34.5c0,3,0,3,3,3c4.5,0,7.5,0,12,0C342,172.5,346.5,172.5,349.5,172.5
	L349.5,172.5z M478.5,172.5c1.5,0,3,0,3-3c1.5-6,1.5-13.5,3-19.5c4.5-30,9-61.5,13.5-91.5c0-3,0-3-3-3c-7.5,0-15,0-22.5,0
	c-4.5,0-4.5,0-6,4.5c-3,24-7.5,46.5-10.5,70.5c-1.5,13.5-4.5,25.5-6,39c0,1.5,0,3,3,3c4.5,0,7.5,0,12,0S474,172.5,478.5,172.5
	L478.5,172.5z M369,3c-10.5-3-21,4.5-24,15c-1.5,7.5,1.5,13.5,7.5,16.5c12,4.5,27-4.5,27-18C379.5,10.5,375,4.5,369,3L369,3z
	 M504,25.5c4.5-9,0-19.5-9-22.5c-10.5-1.5-21,4.5-24,13.5C468,27,474,36,487.5,36C495,36,501,33,504,25.5z M340.5,349.5l-4.5-27
	c-10.5-27-36-52.5-64.5-64.5L312,409.5h52.5l78-190.5H390L340.5,349.5L340.5,349.5z M478.5,409.5L510,219h-49.5L429,409.5H478.5z
	 M613.5,216c-48,0-82.5,25.5-82.5,63c0,27,24,42,43.5,51s25.5,15,25.5,24c0,13.5-15,18-30,18c-19.5,0-30-3-46.5-10.5l-6-3L510,402
	c12,6,33,10.5,55.5,10.5c51,0,85.5-25.5,85.5-64.5c0-21-13.5-37.5-42-51c-16.5-9-27-15-27-24c0-7.5,9-16.5,28.5-16.5
	c16.5,0,28.5,3,37.5,7.5l4.5,3l7.5-40.5C648,220.5,631.5,216,613.5,216L613.5,216z M745.5,219c-12,0-21,3-25.5,16.5l-73.5,174h51
	c9-24,10.5-28.5,10.5-28.5c6,0,55.5,0,63,0c0,0,1.5,6,6,28.5h45L783,219H745.5L745.5,219z M723,342c0,0,4.5-10.5,19.5-52.5
	c0,0,4.5-10.5,6-18l3,16.5c9,45,12,55.5,12,55.5C756,342,732,342,723,342L723,342z"/>
<path fill="#B3B3B3" d="M318,310c-3-12-12-16.5-22.5-16.5H216v4.5c54,13.5,99,43.5,120,99C334.5,397,318,310,318,310z"/>
</svg>
